<?xml version="1.0" encoding="utf-8" standalone="no"?>
<!DOCTYPE svg PUBLIC "-//W3C//DTD SVG 1.1//EN"
  "http://www.w3.org/Graphics/SVG/1.1/DTD/svg11.dtd">
<svg xmlns:xlink="http://www.w3.org/1999/xlink" width="514.8pt" height="288pt" viewBox="0 0 514.8 288" xmlns="http://www.w3.org/2000/svg" version="1.1">
 <metadata>
  <rdf:RDF xmlns:dc="http://purl.org/dc/elements/1.1/" xmlns:cc="http://creativecommons.org/ns#" xmlns:rdf="http://www.w3.org/1999/02/22-rdf-syntax-ns#">
   <cc:Work>
    <dc:type rdf:resource="http://purl.org/dc/dcmitype/StillImage"/>
    <dc:date>2023-11-14T17:42:57.495251</dc:date>
    <dc:format>image/svg+xml</dc:format>
    <dc:creator>
     <cc:Agent>
      <dc:title>Matplotlib v3.8.0, https://matplotlib.org/</dc:title>
     </cc:Agent>
    </dc:creator>
   </cc:Work>
  </rdf:RDF>
 </metadata>
 <defs>
  <style type="text/css">*{stroke-linejoin: round; stroke-linecap: butt}</style>
 </defs>
 <g id="figure_1">
  <g id="patch_1">
   <path d="M 0 288 
L 514.8 288 
L 514.8 0 
L 0 0 
z
" style="fill: #ffffff"/>
  </g>
  <g id="axes_1">
   <g id="patch_2">
    <path d="M 75.299375 231.390625 
L 499.68 231.390625 
L 499.68 35.757812 
L 75.299375 35.757812 
z
" style="fill: #ffffff"/>
   </g>
   <g id="patch_3">
    <path d="M 94.589403 231.390625 
L 98.400816 231.390625 
L 98.400816 231.29107 
L 94.589403 231.29107 
z
" clip-path="url(#p4defa43e70)" style="fill: #1f77b4; opacity: 0.3"/>
   </g>
   <g id="patch_4">
    <path d="M 98.400816 231.390625 
L 102.212228 231.390625 
L 102.212228 231.390625 
L 98.400816 231.390625 
z
" clip-path="url(#p4defa43e70)" style="fill: #1f77b4; opacity: 0.3"/>
   </g>
   <g id="patch_5">
    <path d="M 102.212228 231.390625 
L 106.02364 231.390625 
L 106.02364 231.340848 
L 102.212228 231.340848 
z
" clip-path="url(#p4defa43e70)" style="fill: #1f77b4; opacity: 0.3"/>
   </g>
   <g id="patch_6">
    <path d="M 106.02364 231.390625 
L 109.835052 231.390625 
L 109.835052 231.390625 
L 106.02364 231.390625 
z
" clip-path="url(#p4defa43e70)" style="fill: #1f77b4; opacity: 0.3"/>
   </g>
   <g id="patch_7">
    <path d="M 109.835052 231.390625 
L 113.646464 231.390625 
L 113.646464 231.340848 
L 109.835052 231.340848 
z
" clip-path="url(#p4defa43e70)" style="fill: #1f77b4; opacity: 0.3"/>
   </g>
   <g id="patch_8">
    <path d="M 113.646464 231.390625 
L 117.457876 231.390625 
L 117.457876 231.390625 
L 113.646464 231.390625 
z
" clip-path="url(#p4defa43e70)" style="fill: #1f77b4; opacity: 0.3"/>
   </g>
   <g id="patch_9">
    <path d="M 117.457876 231.390625 
L 121.269288 231.390625 
L 121.269288 231.340848 
L 117.457876 231.340848 
z
" clip-path="url(#p4defa43e70)" style="fill: #1f77b4; opacity: 0.3"/>
   </g>
   <g id="patch_10">
    <path d="M 121.269288 231.390625 
L 125.0807 231.390625 
L 125.0807 231.241293 
L 121.269288 231.241293 
z
" clip-path="url(#p4defa43e70)" style="fill: #1f77b4; opacity: 0.3"/>
   </g>
   <g id="patch_11">
    <path d="M 125.0807 231.390625 
L 128.892113 231.390625 
L 128.892113 231.191515 
L 125.0807 231.191515 
z
" clip-path="url(#p4defa43e70)" style="fill: #1f77b4; opacity: 0.3"/>
   </g>
   <g id="patch_12">
    <path d="M 128.892113 231.390625 
L 132.703525 231.390625 
L 132.703525 231.340848 
L 128.892113 231.340848 
z
" clip-path="url(#p4defa43e70)" style="fill: #1f77b4; opacity: 0.3"/>
   </g>
   <g id="patch_13">
    <path d="M 132.703525 231.390625 
L 136.514937 231.390625 
L 136.514937 231.042183 
L 132.703525 231.042183 
z
" clip-path="url(#p4defa43e70)" style="fill: #1f77b4; opacity: 0.3"/>
   </g>
   <g id="patch_14">
    <path d="M 136.514937 231.390625 
L 140.326349 231.390625 
L 140.326349 231.141738 
L 136.514937 231.141738 
z
" clip-path="url(#p4defa43e70)" style="fill: #1f77b4; opacity: 0.3"/>
   </g>
   <g id="patch_15">
    <path d="M 140.326349 231.390625 
L 144.137761 231.390625 
L 144.137761 231.191515 
L 140.326349 231.191515 
z
" clip-path="url(#p4defa43e70)" style="fill: #1f77b4; opacity: 0.3"/>
   </g>
   <g id="patch_16">
    <path d="M 144.137761 231.390625 
L 147.949173 231.390625 
L 147.949173 231.191515 
L 144.137761 231.191515 
z
" clip-path="url(#p4defa43e70)" style="fill: #1f77b4; opacity: 0.3"/>
   </g>
   <g id="patch_17">
    <path d="M 147.949173 231.390625 
L 151.760585 231.390625 
L 151.760585 230.843073 
L 147.949173 230.843073 
z
" clip-path="url(#p4defa43e70)" style="fill: #1f77b4; opacity: 0.3"/>
   </g>
   <g id="patch_18">
    <path d="M 151.760585 231.390625 
L 155.571998 231.390625 
L 155.571998 230.793296 
L 151.760585 230.793296 
z
" clip-path="url(#p4defa43e70)" style="fill: #1f77b4; opacity: 0.3"/>
   </g>
   <g id="patch_19">
    <path d="M 155.571998 231.390625 
L 159.38341 231.390625 
L 159.38341 230.892851 
L 155.571998 230.892851 
z
" clip-path="url(#p4defa43e70)" style="fill: #1f77b4; opacity: 0.3"/>
   </g>
   <g id="patch_20">
    <path d="M 159.38341 231.390625 
L 163.194822 231.390625 
L 163.194822 230.544408 
L 159.38341 230.544408 
z
" clip-path="url(#p4defa43e70)" style="fill: #1f77b4; opacity: 0.3"/>
   </g>
   <g id="patch_21">
    <path d="M 163.194822 231.390625 
L 167.006234 231.390625 
L 167.006234 230.096412 
L 163.194822 230.096412 
z
" clip-path="url(#p4defa43e70)" style="fill: #1f77b4; opacity: 0.3"/>
   </g>
   <g id="patch_22">
    <path d="M 167.006234 231.390625 
L 170.817646 231.390625 
L 170.817646 229.847524 
L 167.006234 229.847524 
z
" clip-path="url(#p4defa43e70)" style="fill: #1f77b4; opacity: 0.3"/>
   </g>
   <g id="patch_23">
    <path d="M 170.817646 231.390625 
L 174.629058 231.390625 
L 174.629058 229.54886 
L 170.817646 229.54886 
z
" clip-path="url(#p4defa43e70)" style="fill: #1f77b4; opacity: 0.3"/>
   </g>
   <g id="patch_24">
    <path d="M 174.629058 231.390625 
L 178.44047 231.390625 
L 178.44047 229.449305 
L 174.629058 229.449305 
z
" clip-path="url(#p4defa43e70)" style="fill: #1f77b4; opacity: 0.3"/>
   </g>
   <g id="patch_25">
    <path d="M 178.44047 231.390625 
L 182.251883 231.390625 
L 182.251883 228.254646 
L 178.44047 228.254646 
z
" clip-path="url(#p4defa43e70)" style="fill: #1f77b4; opacity: 0.3"/>
   </g>
   <g id="patch_26">
    <path d="M 182.251883 231.390625 
L 186.063295 231.390625 
L 186.063295 228.204869 
L 182.251883 228.204869 
z
" clip-path="url(#p4defa43e70)" style="fill: #1f77b4; opacity: 0.3"/>
   </g>
   <g id="patch_27">
    <path d="M 186.063295 231.390625 
L 189.874707 231.390625 
L 189.874707 227.109765 
L 186.063295 227.109765 
z
" clip-path="url(#p4defa43e70)" style="fill: #1f77b4; opacity: 0.3"/>
   </g>
   <g id="patch_28">
    <path d="M 189.874707 231.390625 
L 193.686119 231.390625 
L 193.686119 225.268 
L 189.874707 225.268 
z
" clip-path="url(#p4defa43e70)" style="fill: #1f77b4; opacity: 0.3"/>
   </g>
   <g id="patch_29">
    <path d="M 193.686119 231.390625 
L 197.497531 231.390625 
L 197.497531 223.376457 
L 193.686119 223.376457 
z
" clip-path="url(#p4defa43e70)" style="fill: #1f77b4; opacity: 0.3"/>
   </g>
   <g id="patch_30">
    <path d="M 197.497531 231.390625 
L 201.308943 231.390625 
L 201.308943 221.385359 
L 197.497531 221.385359 
z
" clip-path="url(#p4defa43e70)" style="fill: #1f77b4; opacity: 0.3"/>
   </g>
   <g id="patch_31">
    <path d="M 201.308943 231.390625 
L 205.120355 231.390625 
L 205.120355 218.548045 
L 201.308943 218.548045 
z
" clip-path="url(#p4defa43e70)" style="fill: #1f77b4; opacity: 0.3"/>
   </g>
   <g id="patch_32">
    <path d="M 205.120355 231.390625 
L 208.931767 231.390625 
L 208.931767 216.258283 
L 205.120355 216.258283 
z
" clip-path="url(#p4defa43e70)" style="fill: #1f77b4; opacity: 0.3"/>
   </g>
   <g id="patch_33">
    <path d="M 208.931767 231.390625 
L 212.74318 231.390625 
L 212.74318 211.628981 
L 208.931767 211.628981 
z
" clip-path="url(#p4defa43e70)" style="fill: #1f77b4; opacity: 0.3"/>
   </g>
   <g id="patch_34">
    <path d="M 212.74318 231.390625 
L 216.554592 231.390625 
L 216.554592 209.438773 
L 212.74318 209.438773 
z
" clip-path="url(#p4defa43e70)" style="fill: #1f77b4; opacity: 0.3"/>
   </g>
   <g id="patch_35">
    <path d="M 216.554592 231.390625 
L 220.366004 231.390625 
L 220.366004 200.030837 
L 216.554592 200.030837 
z
" clip-path="url(#p4defa43e70)" style="fill: #1f77b4; opacity: 0.3"/>
   </g>
   <g id="patch_36">
    <path d="M 220.366004 231.390625 
L 224.177416 231.390625 
L 224.177416 193.659324 
L 220.366004 193.659324 
z
" clip-path="url(#p4defa43e70)" style="fill: #1f77b4; opacity: 0.3"/>
   </g>
   <g id="patch_37">
    <path d="M 224.177416 231.390625 
L 227.988828 231.390625 
L 227.988828 182.65851 
L 224.177416 182.65851 
z
" clip-path="url(#p4defa43e70)" style="fill: #1f77b4; opacity: 0.3"/>
   </g>
   <g id="patch_38">
    <path d="M 227.988828 231.390625 
L 231.80024 231.390625 
L 231.80024 174.295899 
L 227.988828 174.295899 
z
" clip-path="url(#p4defa43e70)" style="fill: #1f77b4; opacity: 0.3"/>
   </g>
   <g id="patch_39">
    <path d="M 231.80024 231.390625 
L 235.611652 231.390625 
L 235.611652 158.466673 
L 231.80024 158.466673 
z
" clip-path="url(#p4defa43e70)" style="fill: #1f77b4; opacity: 0.3"/>
   </g>
   <g id="patch_40">
    <path d="M 235.611652 231.390625 
L 239.423065 231.390625 
L 239.423065 133.627729 
L 235.611652 133.627729 
z
" clip-path="url(#p4defa43e70)" style="fill: #1f77b4; opacity: 0.3"/>
   </g>
   <g id="patch_41">
    <path d="M 239.423065 231.390625 
L 243.234477 231.390625 
L 243.234477 116.205625 
L 239.423065 116.205625 
z
" clip-path="url(#p4defa43e70)" style="fill: #1f77b4; opacity: 0.3"/>
   </g>
   <g id="patch_42">
    <path d="M 243.234477 231.390625 
L 247.045889 231.390625 
L 247.045889 96.991532 
L 243.234477 96.991532 
z
" clip-path="url(#p4defa43e70)" style="fill: #1f77b4; opacity: 0.3"/>
   </g>
   <g id="patch_43">
    <path d="M 247.045889 231.390625 
L 250.857301 231.390625 
L 250.857301 70.261046 
L 247.045889 70.261046 
z
" clip-path="url(#p4defa43e70)" style="fill: #1f77b4; opacity: 0.3"/>
   </g>
   <g id="patch_44">
    <path d="M 250.857301 231.390625 
L 254.668713 231.390625 
L 254.668713 54.382042 
L 250.857301 54.382042 
z
" clip-path="url(#p4defa43e70)" style="fill: #1f77b4; opacity: 0.3"/>
   </g>
   <g id="patch_45">
    <path d="M 254.668713 231.390625 
L 258.480125 231.390625 
L 258.480125 45.073661 
L 254.668713 45.073661 
z
" clip-path="url(#p4defa43e70)" style="fill: #1f77b4; opacity: 0.3"/>
   </g>
   <g id="patch_46">
    <path d="M 258.480125 231.390625 
L 262.291537 231.390625 
L 262.291537 46.118987 
L 258.480125 46.118987 
z
" clip-path="url(#p4defa43e70)" style="fill: #1f77b4; opacity: 0.3"/>
   </g>
   <g id="patch_47">
    <path d="M 262.291537 231.390625 
L 266.102949 231.390625 
L 266.102949 76.582781 
L 262.291537 76.582781 
z
" clip-path="url(#p4defa43e70)" style="fill: #1f77b4; opacity: 0.3"/>
   </g>
   <g id="patch_48">
    <path d="M 266.102949 231.390625 
L 269.914362 231.390625 
L 269.914362 117.898058 
L 266.102949 117.898058 
z
" clip-path="url(#p4defa43e70)" style="fill: #1f77b4; opacity: 0.3"/>
   </g>
   <g id="patch_49">
    <path d="M 269.914362 231.390625 
L 273.725774 231.390625 
L 273.725774 156.57513 
L 269.914362 156.57513 
z
" clip-path="url(#p4defa43e70)" style="fill: #1f77b4; opacity: 0.3"/>
   </g>
   <g id="patch_50">
    <path d="M 273.725774 231.390625 
L 277.537186 231.390625 
L 277.537186 191.02112 
L 273.725774 191.02112 
z
" clip-path="url(#p4defa43e70)" style="fill: #1f77b4; opacity: 0.3"/>
   </g>
   <g id="patch_51">
    <path d="M 277.537186 231.390625 
L 281.348598 231.390625 
L 281.348598 212.773862 
L 277.537186 212.773862 
z
" clip-path="url(#p4defa43e70)" style="fill: #1f77b4; opacity: 0.3"/>
   </g>
   <g id="patch_52">
    <path d="M 281.348598 231.390625 
L 285.16001 231.390625 
L 285.16001 222.231576 
L 281.348598 222.231576 
z
" clip-path="url(#p4defa43e70)" style="fill: #1f77b4; opacity: 0.3"/>
   </g>
   <g id="patch_53">
    <path d="M 285.16001 231.390625 
L 288.971422 231.390625 
L 288.971422 227.308875 
L 285.16001 227.308875 
z
" clip-path="url(#p4defa43e70)" style="fill: #1f77b4; opacity: 0.3"/>
   </g>
   <g id="patch_54">
    <path d="M 288.971422 231.390625 
L 292.782834 231.390625 
L 292.782834 229.698192 
L 288.971422 229.698192 
z
" clip-path="url(#p4defa43e70)" style="fill: #1f77b4; opacity: 0.3"/>
   </g>
   <g id="patch_55">
    <path d="M 292.782834 231.390625 
L 296.594247 231.390625 
L 296.594247 231.042183 
L 292.782834 231.042183 
z
" clip-path="url(#p4defa43e70)" style="fill: #1f77b4; opacity: 0.3"/>
   </g>
   <g id="patch_56">
    <path d="M 296.594247 231.390625 
L 300.405659 231.390625 
L 300.405659 230.892851 
L 296.594247 230.892851 
z
" clip-path="url(#p4defa43e70)" style="fill: #1f77b4; opacity: 0.3"/>
   </g>
   <g id="patch_57">
    <path d="M 300.405659 231.390625 
L 304.217071 231.390625 
L 304.217071 230.892851 
L 300.405659 230.892851 
z
" clip-path="url(#p4defa43e70)" style="fill: #1f77b4; opacity: 0.3"/>
   </g>
   <g id="patch_58">
    <path d="M 304.217071 231.390625 
L 308.028483 231.390625 
L 308.028483 231.09196 
L 304.217071 231.09196 
z
" clip-path="url(#p4defa43e70)" style="fill: #1f77b4; opacity: 0.3"/>
   </g>
   <g id="patch_59">
    <path d="M 308.028483 231.390625 
L 311.839895 231.390625 
L 311.839895 230.942628 
L 308.028483 230.942628 
z
" clip-path="url(#p4defa43e70)" style="fill: #1f77b4; opacity: 0.3"/>
   </g>
   <g id="patch_60">
    <path d="M 311.839895 231.390625 
L 315.651307 231.390625 
L 315.651307 230.892851 
L 311.839895 230.892851 
z
" clip-path="url(#p4defa43e70)" style="fill: #1f77b4; opacity: 0.3"/>
   </g>
   <g id="patch_61">
    <path d="M 315.651307 231.390625 
L 319.462719 231.390625 
L 319.462719 230.892851 
L 315.651307 230.892851 
z
" clip-path="url(#p4defa43e70)" style="fill: #1f77b4; opacity: 0.3"/>
   </g>
   <g id="patch_62">
    <path d="M 319.462719 231.390625 
L 323.274131 231.390625 
L 323.274131 230.594186 
L 319.462719 230.594186 
z
" clip-path="url(#p4defa43e70)" style="fill: #1f77b4; opacity: 0.3"/>
   </g>
   <g id="patch_63">
    <path d="M 323.274131 231.390625 
L 327.085544 231.390625 
L 327.085544 230.793296 
L 323.274131 230.793296 
z
" clip-path="url(#p4defa43e70)" style="fill: #1f77b4; opacity: 0.3"/>
   </g>
   <g id="patch_64">
    <path d="M 327.085544 231.390625 
L 330.896956 231.390625 
L 330.896956 230.843073 
L 327.085544 230.843073 
z
" clip-path="url(#p4defa43e70)" style="fill: #1f77b4; opacity: 0.3"/>
   </g>
   <g id="patch_65">
    <path d="M 330.896956 231.390625 
L 334.708368 231.390625 
L 334.708368 230.743518 
L 330.896956 230.743518 
z
" clip-path="url(#p4defa43e70)" style="fill: #1f77b4; opacity: 0.3"/>
   </g>
   <g id="patch_66">
    <path d="M 334.708368 231.390625 
L 338.51978 231.390625 
L 338.51978 230.693741 
L 334.708368 230.693741 
z
" clip-path="url(#p4defa43e70)" style="fill: #1f77b4; opacity: 0.3"/>
   </g>
   <g id="patch_67">
    <path d="M 338.51978 231.390625 
L 342.331192 231.390625 
L 342.331192 230.942628 
L 338.51978 230.942628 
z
" clip-path="url(#p4defa43e70)" style="fill: #1f77b4; opacity: 0.3"/>
   </g>
   <g id="patch_68">
    <path d="M 342.331192 231.390625 
L 346.142604 231.390625 
L 346.142604 230.693741 
L 342.331192 230.693741 
z
" clip-path="url(#p4defa43e70)" style="fill: #1f77b4; opacity: 0.3"/>
   </g>
   <g id="patch_69">
    <path d="M 346.142604 231.390625 
L 349.954016 231.390625 
L 349.954016 230.494631 
L 346.142604 230.494631 
z
" clip-path="url(#p4defa43e70)" style="fill: #1f77b4; opacity: 0.3"/>
   </g>
   <g id="patch_70">
    <path d="M 349.954016 231.390625 
L 353.765429 231.390625 
L 353.765429 230.594186 
L 349.954016 230.594186 
z
" clip-path="url(#p4defa43e70)" style="fill: #1f77b4; opacity: 0.3"/>
   </g>
   <g id="patch_71">
    <path d="M 353.765429 231.390625 
L 357.576841 231.390625 
L 357.576841 230.643963 
L 353.765429 230.643963 
z
" clip-path="url(#p4defa43e70)" style="fill: #1f77b4; opacity: 0.3"/>
   </g>
   <g id="patch_72">
    <path d="M 357.576841 231.390625 
L 361.388253 231.390625 
L 361.388253 230.693741 
L 357.576841 230.693741 
z
" clip-path="url(#p4defa43e70)" style="fill: #1f77b4; opacity: 0.3"/>
   </g>
   <g id="patch_73">
    <path d="M 361.388253 231.390625 
L 365.199665 231.390625 
L 365.199665 230.395076 
L 361.388253 230.395076 
z
" clip-path="url(#p4defa43e70)" style="fill: #1f77b4; opacity: 0.3"/>
   </g>
   <g id="patch_74">
    <path d="M 365.199665 231.390625 
L 369.011077 231.390625 
L 369.011077 230.146189 
L 365.199665 230.146189 
z
" clip-path="url(#p4defa43e70)" style="fill: #1f77b4; opacity: 0.3"/>
   </g>
   <g id="patch_75">
    <path d="M 369.011077 231.390625 
L 372.822489 231.390625 
L 372.822489 230.295521 
L 369.011077 230.295521 
z
" clip-path="url(#p4defa43e70)" style="fill: #1f77b4; opacity: 0.3"/>
   </g>
   <g id="patch_76">
    <path d="M 372.822489 231.390625 
L 376.633901 231.390625 
L 376.633901 229.947079 
L 372.822489 229.947079 
z
" clip-path="url(#p4defa43e70)" style="fill: #1f77b4; opacity: 0.3"/>
   </g>
   <g id="patch_77">
    <path d="M 376.633901 231.390625 
L 380.445314 231.390625 
L 380.445314 230.245744 
L 376.633901 230.245744 
z
" clip-path="url(#p4defa43e70)" style="fill: #1f77b4; opacity: 0.3"/>
   </g>
   <g id="patch_78">
    <path d="M 380.445314 231.390625 
L 384.256726 231.390625 
L 384.256726 229.996857 
L 380.445314 229.996857 
z
" clip-path="url(#p4defa43e70)" style="fill: #1f77b4; opacity: 0.3"/>
   </g>
   <g id="patch_79">
    <path d="M 384.256726 231.390625 
L 388.068138 231.390625 
L 388.068138 230.594186 
L 384.256726 230.594186 
z
" clip-path="url(#p4defa43e70)" style="fill: #1f77b4; opacity: 0.3"/>
   </g>
   <g id="patch_80">
    <path d="M 388.068138 231.390625 
L 391.87955 231.390625 
L 391.87955 230.594186 
L 388.068138 230.594186 
z
" clip-path="url(#p4defa43e70)" style="fill: #1f77b4; opacity: 0.3"/>
   </g>
   <g id="patch_81">
    <path d="M 391.87955 231.390625 
L 395.690962 231.390625 
L 395.690962 230.494631 
L 391.87955 230.494631 
z
" clip-path="url(#p4defa43e70)" style="fill: #1f77b4; opacity: 0.3"/>
   </g>
   <g id="patch_82">
    <path d="M 395.690962 231.390625 
L 399.502374 231.390625 
L 399.502374 230.195966 
L 395.690962 230.195966 
z
" clip-path="url(#p4defa43e70)" style="fill: #1f77b4; opacity: 0.3"/>
   </g>
   <g id="patch_83">
    <path d="M 399.502374 231.390625 
L 403.313786 231.390625 
L 403.313786 230.594186 
L 399.502374 230.594186 
z
" clip-path="url(#p4defa43e70)" style="fill: #1f77b4; opacity: 0.3"/>
   </g>
   <g id="patch_84">
    <path d="M 403.313786 231.390625 
L 407.125198 231.390625 
L 407.125198 230.793296 
L 403.313786 230.793296 
z
" clip-path="url(#p4defa43e70)" style="fill: #1f77b4; opacity: 0.3"/>
   </g>
   <g id="patch_85">
    <path d="M 407.125198 231.390625 
L 410.936611 231.390625 
L 410.936611 231.042183 
L 407.125198 231.042183 
z
" clip-path="url(#p4defa43e70)" style="fill: #1f77b4; opacity: 0.3"/>
   </g>
   <g id="patch_86">
    <path d="M 410.936611 231.390625 
L 414.748023 231.390625 
L 414.748023 230.743518 
L 410.936611 230.743518 
z
" clip-path="url(#p4defa43e70)" style="fill: #1f77b4; opacity: 0.3"/>
   </g>
   <g id="patch_87">
    <path d="M 414.748023 231.390625 
L 418.559435 231.390625 
L 418.559435 230.743518 
L 414.748023 230.743518 
z
" clip-path="url(#p4defa43e70)" style="fill: #1f77b4; opacity: 0.3"/>
   </g>
   <g id="patch_88">
    <path d="M 418.559435 231.390625 
L 422.370847 231.390625 
L 422.370847 230.942628 
L 418.559435 230.942628 
z
" clip-path="url(#p4defa43e70)" style="fill: #1f77b4; opacity: 0.3"/>
   </g>
   <g id="patch_89">
    <path d="M 422.370847 231.390625 
L 426.182259 231.390625 
L 426.182259 231.042183 
L 422.370847 231.042183 
z
" clip-path="url(#p4defa43e70)" style="fill: #1f77b4; opacity: 0.3"/>
   </g>
   <g id="patch_90">
    <path d="M 426.182259 231.390625 
L 429.993671 231.390625 
L 429.993671 231.191515 
L 426.182259 231.191515 
z
" clip-path="url(#p4defa43e70)" style="fill: #1f77b4; opacity: 0.3"/>
   </g>
   <g id="patch_91">
    <path d="M 429.993671 231.390625 
L 433.805083 231.390625 
L 433.805083 231.042183 
L 429.993671 231.042183 
z
" clip-path="url(#p4defa43e70)" style="fill: #1f77b4; opacity: 0.3"/>
   </g>
   <g id="patch_92">
    <path d="M 433.805083 231.390625 
L 437.616496 231.390625 
L 437.616496 230.843073 
L 433.805083 230.843073 
z
" clip-path="url(#p4defa43e70)" style="fill: #1f77b4; opacity: 0.3"/>
   </g>
   <g id="patch_93">
    <path d="M 437.616496 231.390625 
L 441.427908 231.390625 
L 441.427908 231.09196 
L 437.616496 231.09196 
z
" clip-path="url(#p4defa43e70)" style="fill: #1f77b4; opacity: 0.3"/>
   </g>
   <g id="patch_94">
    <path d="M 441.427908 231.390625 
L 445.23932 231.390625 
L 445.23932 230.892851 
L 441.427908 230.892851 
z
" clip-path="url(#p4defa43e70)" style="fill: #1f77b4; opacity: 0.3"/>
   </g>
   <g id="patch_95">
    <path d="M 445.23932 231.390625 
L 449.050732 231.390625 
L 449.050732 231.141738 
L 445.23932 231.141738 
z
" clip-path="url(#p4defa43e70)" style="fill: #1f77b4; opacity: 0.3"/>
   </g>
   <g id="patch_96">
    <path d="M 449.050732 231.390625 
L 452.862144 231.390625 
L 452.862144 231.141738 
L 449.050732 231.141738 
z
" clip-path="url(#p4defa43e70)" style="fill: #1f77b4; opacity: 0.3"/>
   </g>
   <g id="patch_97">
    <path d="M 452.862144 231.390625 
L 456.673556 231.390625 
L 456.673556 230.992405 
L 452.862144 230.992405 
z
" clip-path="url(#p4defa43e70)" style="fill: #1f77b4; opacity: 0.3"/>
   </g>
   <g id="patch_98">
    <path d="M 456.673556 231.390625 
L 460.484968 231.390625 
L 460.484968 230.743518 
L 456.673556 230.743518 
z
" clip-path="url(#p4defa43e70)" style="fill: #1f77b4; opacity: 0.3"/>
   </g>
   <g id="patch_99">
    <path d="M 460.484968 231.390625 
L 464.29638 231.390625 
L 464.29638 230.992405 
L 460.484968 230.992405 
z
" clip-path="url(#p4defa43e70)" style="fill: #1f77b4; opacity: 0.3"/>
   </g>
   <g id="patch_100">
    <path d="M 464.29638 231.390625 
L 468.107793 231.390625 
L 468.107793 231.29107 
L 464.29638 231.29107 
z
" clip-path="url(#p4defa43e70)" style="fill: #1f77b4; opacity: 0.3"/>
   </g>
   <g id="patch_101">
    <path d="M 468.107793 231.390625 
L 471.919205 231.390625 
L 471.919205 231.340848 
L 468.107793 231.340848 
z
" clip-path="url(#p4defa43e70)" style="fill: #1f77b4; opacity: 0.3"/>
   </g>
   <g id="patch_102">
    <path d="M 471.919205 231.390625 
L 475.730617 231.390625 
L 475.730617 231.340848 
L 471.919205 231.340848 
z
" clip-path="url(#p4defa43e70)" style="fill: #1f77b4; opacity: 0.3"/>
   </g>
   <g id="patch_103">
    <path d="M 284.391008 231.390625 
L 286.350998 231.390625 
L 286.350998 231.340848 
L 284.391008 231.340848 
z
" clip-path="url(#p4defa43e70)" style="fill: #ff7f0e; opacity: 0.3"/>
   </g>
   <g id="patch_104">
    <path d="M 286.350998 231.390625 
L 288.310987 231.390625 
L 288.310987 231.390625 
L 286.350998 231.390625 
z
" clip-path="url(#p4defa43e70)" style="fill: #ff7f0e; opacity: 0.3"/>
   </g>
   <g id="patch_105">
    <path d="M 288.310987 231.390625 
L 290.270977 231.390625 
L 290.270977 231.390625 
L 288.310987 231.390625 
z
" clip-path="url(#p4defa43e70)" style="fill: #ff7f0e; opacity: 0.3"/>
   </g>
   <g id="patch_106">
    <path d="M 290.270977 231.390625 
L 292.230967 231.390625 
L 292.230967 231.390625 
L 290.270977 231.390625 
z
" clip-path="url(#p4defa43e70)" style="fill: #ff7f0e; opacity: 0.3"/>
   </g>
   <g id="patch_107">
    <path d="M 292.230967 231.390625 
L 294.190956 231.390625 
L 294.190956 231.390625 
L 292.230967 231.390625 
z
" clip-path="url(#p4defa43e70)" style="fill: #ff7f0e; opacity: 0.3"/>
   </g>
   <g id="patch_108">
    <path d="M 294.190956 231.390625 
L 296.150946 231.390625 
L 296.150946 231.340848 
L 294.190956 231.340848 
z
" clip-path="url(#p4defa43e70)" style="fill: #ff7f0e; opacity: 0.3"/>
   </g>
   <g id="patch_109">
    <path d="M 296.150946 231.390625 
L 298.110936 231.390625 
L 298.110936 231.390625 
L 296.150946 231.390625 
z
" clip-path="url(#p4defa43e70)" style="fill: #ff7f0e; opacity: 0.3"/>
   </g>
   <g id="patch_110">
    <path d="M 298.110936 231.390625 
L 300.070925 231.390625 
L 300.070925 231.340848 
L 298.110936 231.340848 
z
" clip-path="url(#p4defa43e70)" style="fill: #ff7f0e; opacity: 0.3"/>
   </g>
   <g id="patch_111">
    <path d="M 300.070925 231.390625 
L 302.030915 231.390625 
L 302.030915 231.29107 
L 300.070925 231.29107 
z
" clip-path="url(#p4defa43e70)" style="fill: #ff7f0e; opacity: 0.3"/>
   </g>
   <g id="patch_112">
    <path d="M 302.030915 231.390625 
L 303.990904 231.390625 
L 303.990904 231.340848 
L 302.030915 231.340848 
z
" clip-path="url(#p4defa43e70)" style="fill: #ff7f0e; opacity: 0.3"/>
   </g>
   <g id="patch_113">
    <path d="M 303.990904 231.390625 
L 305.950894 231.390625 
L 305.950894 231.390625 
L 303.990904 231.390625 
z
" clip-path="url(#p4defa43e70)" style="fill: #ff7f0e; opacity: 0.3"/>
   </g>
   <g id="patch_114">
    <path d="M 305.950894 231.390625 
L 307.910884 231.390625 
L 307.910884 231.340848 
L 305.950894 231.340848 
z
" clip-path="url(#p4defa43e70)" style="fill: #ff7f0e; opacity: 0.3"/>
   </g>
   <g id="patch_115">
    <path d="M 307.910884 231.390625 
L 309.870873 231.390625 
L 309.870873 231.29107 
L 307.910884 231.29107 
z
" clip-path="url(#p4defa43e70)" style="fill: #ff7f0e; opacity: 0.3"/>
   </g>
   <g id="patch_116">
    <path d="M 309.870873 231.390625 
L 311.830863 231.390625 
L 311.830863 231.241293 
L 309.870873 231.241293 
z
" clip-path="url(#p4defa43e70)" style="fill: #ff7f0e; opacity: 0.3"/>
   </g>
   <g id="patch_117">
    <path d="M 311.830863 231.390625 
L 313.790853 231.390625 
L 313.790853 231.29107 
L 311.830863 231.29107 
z
" clip-path="url(#p4defa43e70)" style="fill: #ff7f0e; opacity: 0.3"/>
   </g>
   <g id="patch_118">
    <path d="M 313.790853 231.390625 
L 315.750842 231.390625 
L 315.750842 231.390625 
L 313.790853 231.390625 
z
" clip-path="url(#p4defa43e70)" style="fill: #ff7f0e; opacity: 0.3"/>
   </g>
   <g id="patch_119">
    <path d="M 315.750842 231.390625 
L 317.710832 231.390625 
L 317.710832 231.390625 
L 315.750842 231.390625 
z
" clip-path="url(#p4defa43e70)" style="fill: #ff7f0e; opacity: 0.3"/>
   </g>
   <g id="patch_120">
    <path d="M 317.710832 231.390625 
L 319.670821 231.390625 
L 319.670821 231.390625 
L 317.710832 231.390625 
z
" clip-path="url(#p4defa43e70)" style="fill: #ff7f0e; opacity: 0.3"/>
   </g>
   <g id="patch_121">
    <path d="M 319.670821 231.390625 
L 321.630811 231.390625 
L 321.630811 231.390625 
L 319.670821 231.390625 
z
" clip-path="url(#p4defa43e70)" style="fill: #ff7f0e; opacity: 0.3"/>
   </g>
   <g id="patch_122">
    <path d="M 321.630811 231.390625 
L 323.590801 231.390625 
L 323.590801 231.340848 
L 321.630811 231.340848 
z
" clip-path="url(#p4defa43e70)" style="fill: #ff7f0e; opacity: 0.3"/>
   </g>
   <g id="patch_123">
    <path d="M 323.590801 231.390625 
L 325.55079 231.390625 
L 325.55079 231.29107 
L 323.590801 231.29107 
z
" clip-path="url(#p4defa43e70)" style="fill: #ff7f0e; opacity: 0.3"/>
   </g>
   <g id="patch_124">
    <path d="M 325.55079 231.390625 
L 327.51078 231.390625 
L 327.51078 231.191515 
L 325.55079 231.191515 
z
" clip-path="url(#p4defa43e70)" style="fill: #ff7f0e; opacity: 0.3"/>
   </g>
   <g id="patch_125">
    <path d="M 327.51078 231.390625 
L 329.47077 231.390625 
L 329.47077 231.141738 
L 327.51078 231.141738 
z
" clip-path="url(#p4defa43e70)" style="fill: #ff7f0e; opacity: 0.3"/>
   </g>
   <g id="patch_126">
    <path d="M 329.47077 231.390625 
L 331.430759 231.390625 
L 331.430759 231.29107 
L 329.47077 231.29107 
z
" clip-path="url(#p4defa43e70)" style="fill: #ff7f0e; opacity: 0.3"/>
   </g>
   <g id="patch_127">
    <path d="M 331.430759 231.390625 
L 333.390749 231.390625 
L 333.390749 231.09196 
L 331.430759 231.09196 
z
" clip-path="url(#p4defa43e70)" style="fill: #ff7f0e; opacity: 0.3"/>
   </g>
   <g id="patch_128">
    <path d="M 333.390749 231.390625 
L 335.350739 231.390625 
L 335.350739 231.241293 
L 333.390749 231.241293 
z
" clip-path="url(#p4defa43e70)" style="fill: #ff7f0e; opacity: 0.3"/>
   </g>
   <g id="patch_129">
    <path d="M 335.350739 231.390625 
L 337.310728 231.390625 
L 337.310728 231.191515 
L 335.350739 231.191515 
z
" clip-path="url(#p4defa43e70)" style="fill: #ff7f0e; opacity: 0.3"/>
   </g>
   <g id="patch_130">
    <path d="M 337.310728 231.390625 
L 339.270718 231.390625 
L 339.270718 231.09196 
L 337.310728 231.09196 
z
" clip-path="url(#p4defa43e70)" style="fill: #ff7f0e; opacity: 0.3"/>
   </g>
   <g id="patch_131">
    <path d="M 339.270718 231.390625 
L 341.230707 231.390625 
L 341.230707 231.042183 
L 339.270718 231.042183 
z
" clip-path="url(#p4defa43e70)" style="fill: #ff7f0e; opacity: 0.3"/>
   </g>
   <g id="patch_132">
    <path d="M 341.230707 231.390625 
L 343.190697 231.390625 
L 343.190697 231.042183 
L 341.230707 231.042183 
z
" clip-path="url(#p4defa43e70)" style="fill: #ff7f0e; opacity: 0.3"/>
   </g>
   <g id="patch_133">
    <path d="M 343.190697 231.390625 
L 345.150687 231.390625 
L 345.150687 230.892851 
L 343.190697 230.892851 
z
" clip-path="url(#p4defa43e70)" style="fill: #ff7f0e; opacity: 0.3"/>
   </g>
   <g id="patch_134">
    <path d="M 345.150687 231.390625 
L 347.110676 231.390625 
L 347.110676 231.09196 
L 345.150687 231.09196 
z
" clip-path="url(#p4defa43e70)" style="fill: #ff7f0e; opacity: 0.3"/>
   </g>
   <g id="patch_135">
    <path d="M 347.110676 231.390625 
L 349.070666 231.390625 
L 349.070666 230.693741 
L 347.110676 230.693741 
z
" clip-path="url(#p4defa43e70)" style="fill: #ff7f0e; opacity: 0.3"/>
   </g>
   <g id="patch_136">
    <path d="M 349.070666 231.390625 
L 351.030656 231.390625 
L 351.030656 230.693741 
L 349.070666 230.693741 
z
" clip-path="url(#p4defa43e70)" style="fill: #ff7f0e; opacity: 0.3"/>
   </g>
   <g id="patch_137">
    <path d="M 351.030656 231.390625 
L 352.990645 231.390625 
L 352.990645 231.042183 
L 351.030656 231.042183 
z
" clip-path="url(#p4defa43e70)" style="fill: #ff7f0e; opacity: 0.3"/>
   </g>
   <g id="patch_138">
    <path d="M 352.990645 231.390625 
L 354.950635 231.390625 
L 354.950635 230.843073 
L 352.990645 230.843073 
z
" clip-path="url(#p4defa43e70)" style="fill: #ff7f0e; opacity: 0.3"/>
   </g>
   <g id="patch_139">
    <path d="M 354.950635 231.390625 
L 356.910625 231.390625 
L 356.910625 230.295521 
L 354.950635 230.295521 
z
" clip-path="url(#p4defa43e70)" style="fill: #ff7f0e; opacity: 0.3"/>
   </g>
   <g id="patch_140">
    <path d="M 356.910625 231.390625 
L 358.870614 231.390625 
L 358.870614 230.793296 
L 356.910625 230.793296 
z
" clip-path="url(#p4defa43e70)" style="fill: #ff7f0e; opacity: 0.3"/>
   </g>
   <g id="patch_141">
    <path d="M 358.870614 231.390625 
L 360.830604 231.390625 
L 360.830604 230.693741 
L 358.870614 230.693741 
z
" clip-path="url(#p4defa43e70)" style="fill: #ff7f0e; opacity: 0.3"/>
   </g>
   <g id="patch_142">
    <path d="M 360.830604 231.390625 
L 362.790593 231.390625 
L 362.790593 230.295521 
L 360.830604 230.295521 
z
" clip-path="url(#p4defa43e70)" style="fill: #ff7f0e; opacity: 0.3"/>
   </g>
   <g id="patch_143">
    <path d="M 362.790593 231.390625 
L 364.750583 231.390625 
L 364.750583 229.499082 
L 362.790593 229.499082 
z
" clip-path="url(#p4defa43e70)" style="fill: #ff7f0e; opacity: 0.3"/>
   </g>
   <g id="patch_144">
    <path d="M 364.750583 231.390625 
L 366.710573 231.390625 
L 366.710573 230.046634 
L 364.750583 230.046634 
z
" clip-path="url(#p4defa43e70)" style="fill: #ff7f0e; opacity: 0.3"/>
   </g>
   <g id="patch_145">
    <path d="M 366.710573 231.390625 
L 368.670562 231.390625 
L 368.670562 229.051085 
L 366.710573 229.051085 
z
" clip-path="url(#p4defa43e70)" style="fill: #ff7f0e; opacity: 0.3"/>
   </g>
   <g id="patch_146">
    <path d="M 368.670562 231.390625 
L 370.630552 231.390625 
L 370.630552 229.15064 
L 368.670562 229.15064 
z
" clip-path="url(#p4defa43e70)" style="fill: #ff7f0e; opacity: 0.3"/>
   </g>
   <g id="patch_147">
    <path d="M 370.630552 231.390625 
L 372.590542 231.390625 
L 372.590542 229.250195 
L 370.630552 229.250195 
z
" clip-path="url(#p4defa43e70)" style="fill: #ff7f0e; opacity: 0.3"/>
   </g>
   <g id="patch_148">
    <path d="M 372.590542 231.390625 
L 374.550531 231.390625 
L 374.550531 228.652866 
L 372.590542 228.652866 
z
" clip-path="url(#p4defa43e70)" style="fill: #ff7f0e; opacity: 0.3"/>
   </g>
   <g id="patch_149">
    <path d="M 374.550531 231.390625 
L 376.510521 231.390625 
L 376.510521 168.571494 
L 374.550531 168.571494 
z
" clip-path="url(#p4defa43e70)" style="fill: #ff7f0e; opacity: 0.3"/>
   </g>
   <g id="patch_150">
    <path d="M 376.510521 231.390625 
L 378.470511 231.390625 
L 378.470511 228.304424 
L 376.510521 228.304424 
z
" clip-path="url(#p4defa43e70)" style="fill: #ff7f0e; opacity: 0.3"/>
   </g>
   <g id="patch_151">
    <path d="M 378.470511 231.390625 
L 380.4305 231.390625 
L 380.4305 227.707094 
L 378.470511 227.707094 
z
" clip-path="url(#p4defa43e70)" style="fill: #ff7f0e; opacity: 0.3"/>
   </g>
   <g id="patch_152">
    <path d="M 380.4305 231.390625 
L 382.39049 231.390625 
L 382.39049 227.20932 
L 380.4305 227.20932 
z
" clip-path="url(#p4defa43e70)" style="fill: #ff7f0e; opacity: 0.3"/>
   </g>
   <g id="patch_153">
    <path d="M 382.39049 231.390625 
L 384.350479 231.390625 
L 384.350479 226.313326 
L 382.39049 226.313326 
z
" clip-path="url(#p4defa43e70)" style="fill: #ff7f0e; opacity: 0.3"/>
   </g>
   <g id="patch_154">
    <path d="M 384.350479 231.390625 
L 386.310469 231.390625 
L 386.310469 225.268 
L 384.350479 225.268 
z
" clip-path="url(#p4defa43e70)" style="fill: #ff7f0e; opacity: 0.3"/>
   </g>
   <g id="patch_155">
    <path d="M 386.310469 231.390625 
L 388.270459 231.390625 
L 388.270459 225.118667 
L 386.310469 225.118667 
z
" clip-path="url(#p4defa43e70)" style="fill: #ff7f0e; opacity: 0.3"/>
   </g>
   <g id="patch_156">
    <path d="M 388.270459 231.390625 
L 390.230448 231.390625 
L 390.230448 174.445232 
L 388.270459 174.445232 
z
" clip-path="url(#p4defa43e70)" style="fill: #ff7f0e; opacity: 0.3"/>
   </g>
   <g id="patch_157">
    <path d="M 390.230448 231.390625 
L 392.190438 231.390625 
L 392.190438 222.92846 
L 390.230448 222.92846 
z
" clip-path="url(#p4defa43e70)" style="fill: #ff7f0e; opacity: 0.3"/>
   </g>
   <g id="patch_158">
    <path d="M 392.190438 231.390625 
L 394.150428 231.390625 
L 394.150428 222.181798 
L 392.190438 222.181798 
z
" clip-path="url(#p4defa43e70)" style="fill: #ff7f0e; opacity: 0.3"/>
   </g>
   <g id="patch_159">
    <path d="M 394.150428 231.390625 
L 396.110417 231.390625 
L 396.110417 221.634246 
L 394.150428 221.634246 
z
" clip-path="url(#p4defa43e70)" style="fill: #ff7f0e; opacity: 0.3"/>
   </g>
   <g id="patch_160">
    <path d="M 396.110417 231.390625 
L 398.070407 231.390625 
L 398.070407 220.091146 
L 396.110417 220.091146 
z
" clip-path="url(#p4defa43e70)" style="fill: #ff7f0e; opacity: 0.3"/>
   </g>
   <g id="patch_161">
    <path d="M 398.070407 231.390625 
L 400.030397 231.390625 
L 400.030397 218.6476 
L 398.070407 218.6476 
z
" clip-path="url(#p4defa43e70)" style="fill: #ff7f0e; opacity: 0.3"/>
   </g>
   <g id="patch_162">
    <path d="M 400.030397 231.390625 
L 401.990386 231.390625 
L 401.990386 216.805835 
L 400.030397 216.805835 
z
" clip-path="url(#p4defa43e70)" style="fill: #ff7f0e; opacity: 0.3"/>
   </g>
   <g id="patch_163">
    <path d="M 401.990386 231.390625 
L 403.950376 231.390625 
L 403.950376 214.36674 
L 401.990386 214.36674 
z
" clip-path="url(#p4defa43e70)" style="fill: #ff7f0e; opacity: 0.3"/>
   </g>
   <g id="patch_164">
    <path d="M 403.950376 231.390625 
L 405.910365 231.390625 
L 405.910365 213.271636 
L 403.950376 213.271636 
z
" clip-path="url(#p4defa43e70)" style="fill: #ff7f0e; opacity: 0.3"/>
   </g>
   <g id="patch_165">
    <path d="M 405.910365 231.390625 
L 407.870355 231.390625 
L 407.870355 210.036103 
L 405.910365 210.036103 
z
" clip-path="url(#p4defa43e70)" style="fill: #ff7f0e; opacity: 0.3"/>
   </g>
   <g id="patch_166">
    <path d="M 407.870355 231.390625 
L 409.830345 231.390625 
L 409.830345 209.438773 
L 407.870355 209.438773 
z
" clip-path="url(#p4defa43e70)" style="fill: #ff7f0e; opacity: 0.3"/>
   </g>
   <g id="patch_167">
    <path d="M 409.830345 231.390625 
L 411.790334 231.390625 
L 411.790334 205.904575 
L 409.830345 205.904575 
z
" clip-path="url(#p4defa43e70)" style="fill: #ff7f0e; opacity: 0.3"/>
   </g>
   <g id="patch_168">
    <path d="M 411.790334 231.390625 
L 413.750324 231.390625 
L 413.750324 202.669041 
L 411.790334 202.669041 
z
" clip-path="url(#p4defa43e70)" style="fill: #ff7f0e; opacity: 0.3"/>
   </g>
   <g id="patch_169">
    <path d="M 413.750324 231.390625 
L 415.710314 231.390625 
L 415.710314 197.691297 
L 413.750324 197.691297 
z
" clip-path="url(#p4defa43e70)" style="fill: #ff7f0e; opacity: 0.3"/>
   </g>
   <g id="patch_170">
    <path d="M 415.710314 231.390625 
L 417.670303 231.390625 
L 417.670303 193.211327 
L 415.710314 193.211327 
z
" clip-path="url(#p4defa43e70)" style="fill: #ff7f0e; opacity: 0.3"/>
   </g>
   <g id="patch_171">
    <path d="M 417.670303 231.390625 
L 419.630293 231.390625 
L 419.630293 192.912663 
L 417.670303 192.912663 
z
" clip-path="url(#p4defa43e70)" style="fill: #ff7f0e; opacity: 0.3"/>
   </g>
   <g id="patch_172">
    <path d="M 419.630293 231.390625 
L 421.590283 231.390625 
L 421.590283 183.454949 
L 419.630293 183.454949 
z
" clip-path="url(#p4defa43e70)" style="fill: #ff7f0e; opacity: 0.3"/>
   </g>
   <g id="patch_173">
    <path d="M 421.590283 231.390625 
L 423.550272 231.390625 
L 423.550272 180.11986 
L 421.590283 180.11986 
z
" clip-path="url(#p4defa43e70)" style="fill: #ff7f0e; opacity: 0.3"/>
   </g>
   <g id="patch_174">
    <path d="M 423.550272 231.390625 
L 425.510262 231.390625 
L 425.510262 175.63989 
L 423.550272 175.63989 
z
" clip-path="url(#p4defa43e70)" style="fill: #ff7f0e; opacity: 0.3"/>
   </g>
   <g id="patch_175">
    <path d="M 425.510262 231.390625 
L 427.470251 231.390625 
L 427.470251 166.032844 
L 425.510262 166.032844 
z
" clip-path="url(#p4defa43e70)" style="fill: #ff7f0e; opacity: 0.3"/>
   </g>
   <g id="patch_176">
    <path d="M 427.470251 231.390625 
L 429.430241 231.390625 
L 429.430241 161.0551 
L 427.470251 161.0551 
z
" clip-path="url(#p4defa43e70)" style="fill: #ff7f0e; opacity: 0.3"/>
   </g>
   <g id="patch_177">
    <path d="M 429.430241 231.390625 
L 431.390231 231.390625 
L 431.390231 152.244493 
L 429.430241 152.244493 
z
" clip-path="url(#p4defa43e70)" style="fill: #ff7f0e; opacity: 0.3"/>
   </g>
   <g id="patch_178">
    <path d="M 431.390231 231.390625 
L 433.35022 231.390625 
L 433.35022 145.176096 
L 431.390231 145.176096 
z
" clip-path="url(#p4defa43e70)" style="fill: #ff7f0e; opacity: 0.3"/>
   </g>
   <g id="patch_179">
    <path d="M 433.35022 231.390625 
L 435.31021 231.390625 
L 435.31021 140.795681 
L 433.35022 140.795681 
z
" clip-path="url(#p4defa43e70)" style="fill: #ff7f0e; opacity: 0.3"/>
   </g>
   <g id="patch_180">
    <path d="M 435.31021 231.390625 
L 437.2702 231.390625 
L 437.2702 134.573501 
L 435.31021 134.573501 
z
" clip-path="url(#p4defa43e70)" style="fill: #ff7f0e; opacity: 0.3"/>
   </g>
   <g id="patch_181">
    <path d="M 437.2702 231.390625 
L 439.230189 231.390625 
L 439.230189 132.134406 
L 437.2702 132.134406 
z
" clip-path="url(#p4defa43e70)" style="fill: #ff7f0e; opacity: 0.3"/>
   </g>
   <g id="patch_182">
    <path d="M 439.230189 231.390625 
L 441.190179 231.390625 
L 441.190179 128.152211 
L 439.230189 128.152211 
z
" clip-path="url(#p4defa43e70)" style="fill: #ff7f0e; opacity: 0.3"/>
   </g>
   <g id="patch_183">
    <path d="M 441.190179 231.390625 
L 443.150169 231.390625 
L 443.150169 127.20644 
L 441.190179 127.20644 
z
" clip-path="url(#p4defa43e70)" style="fill: #ff7f0e; opacity: 0.3"/>
   </g>
   <g id="patch_184">
    <path d="M 443.150169 231.390625 
L 445.110158 231.390625 
L 445.110158 139.153026 
L 443.150169 139.153026 
z
" clip-path="url(#p4defa43e70)" style="fill: #ff7f0e; opacity: 0.3"/>
   </g>
   <g id="patch_185">
    <path d="M 445.110158 231.390625 
L 447.070148 231.390625 
L 447.070148 149.755621 
L 445.110158 149.755621 
z
" clip-path="url(#p4defa43e70)" style="fill: #ff7f0e; opacity: 0.3"/>
   </g>
   <g id="patch_186">
    <path d="M 447.070148 231.390625 
L 449.030137 231.390625 
L 449.030137 157.520902 
L 447.070148 157.520902 
z
" clip-path="url(#p4defa43e70)" style="fill: #ff7f0e; opacity: 0.3"/>
   </g>
   <g id="patch_187">
    <path d="M 449.030137 231.390625 
L 450.990127 231.390625 
L 450.990127 174.943006 
L 449.030137 174.943006 
z
" clip-path="url(#p4defa43e70)" style="fill: #ff7f0e; opacity: 0.3"/>
   </g>
   <g id="patch_188">
    <path d="M 450.990127 231.390625 
L 452.950117 231.390625 
L 452.950117 190.871787 
L 450.990127 190.871787 
z
" clip-path="url(#p4defa43e70)" style="fill: #ff7f0e; opacity: 0.3"/>
   </g>
   <g id="patch_189">
    <path d="M 452.950117 231.390625 
L 454.910106 231.390625 
L 454.910106 200.727721 
L 452.950117 200.727721 
z
" clip-path="url(#p4defa43e70)" style="fill: #ff7f0e; opacity: 0.3"/>
   </g>
   <g id="patch_190">
    <path d="M 454.910106 231.390625 
L 456.870096 231.390625 
L 456.870096 210.334767 
L 454.910106 210.334767 
z
" clip-path="url(#p4defa43e70)" style="fill: #ff7f0e; opacity: 0.3"/>
   </g>
   <g id="patch_191">
    <path d="M 456.870096 231.390625 
L 458.830086 231.390625 
L 458.830086 216.059173 
L 456.870096 216.059173 
z
" clip-path="url(#p4defa43e70)" style="fill: #ff7f0e; opacity: 0.3"/>
   </g>
   <g id="patch_192">
    <path d="M 458.830086 231.390625 
L 460.790075 231.390625 
L 460.790075 221.883134 
L 458.830086 221.883134 
z
" clip-path="url(#p4defa43e70)" style="fill: #ff7f0e; opacity: 0.3"/>
   </g>
   <g id="patch_193">
    <path d="M 460.790075 231.390625 
L 462.750065 231.390625 
L 462.750065 226.163994 
L 460.790075 226.163994 
z
" clip-path="url(#p4defa43e70)" style="fill: #ff7f0e; opacity: 0.3"/>
   </g>
   <g id="patch_194">
    <path d="M 462.750065 231.390625 
L 464.710055 231.390625 
L 464.710055 227.955982 
L 462.750065 227.955982 
z
" clip-path="url(#p4defa43e70)" style="fill: #ff7f0e; opacity: 0.3"/>
   </g>
   <g id="patch_195">
    <path d="M 464.710055 231.390625 
L 466.670044 231.390625 
L 466.670044 229.399527 
L 464.710055 229.399527 
z
" clip-path="url(#p4defa43e70)" style="fill: #ff7f0e; opacity: 0.3"/>
   </g>
   <g id="patch_196">
    <path d="M 466.670044 231.390625 
L 468.630034 231.390625 
L 468.630034 229.648415 
L 466.670044 229.648415 
z
" clip-path="url(#p4defa43e70)" style="fill: #ff7f0e; opacity: 0.3"/>
   </g>
   <g id="patch_197">
    <path d="M 468.630034 231.390625 
L 470.590023 231.390625 
L 470.590023 230.096412 
L 468.630034 230.096412 
z
" clip-path="url(#p4defa43e70)" style="fill: #ff7f0e; opacity: 0.3"/>
   </g>
   <g id="patch_198">
    <path d="M 470.590023 231.390625 
L 472.550013 231.390625 
L 472.550013 230.793296 
L 470.590023 230.793296 
z
" clip-path="url(#p4defa43e70)" style="fill: #ff7f0e; opacity: 0.3"/>
   </g>
   <g id="patch_199">
    <path d="M 472.550013 231.390625 
L 474.510003 231.390625 
L 474.510003 230.892851 
L 472.550013 230.892851 
z
" clip-path="url(#p4defa43e70)" style="fill: #ff7f0e; opacity: 0.3"/>
   </g>
   <g id="patch_200">
    <path d="M 474.510003 231.390625 
L 476.469992 231.390625 
L 476.469992 231.042183 
L 474.510003 231.042183 
z
" clip-path="url(#p4defa43e70)" style="fill: #ff7f0e; opacity: 0.3"/>
   </g>
   <g id="patch_201">
    <path d="M 476.469992 231.390625 
L 478.429982 231.390625 
L 478.429982 230.942628 
L 476.469992 230.942628 
z
" clip-path="url(#p4defa43e70)" style="fill: #ff7f0e; opacity: 0.3"/>
   </g>
   <g id="patch_202">
    <path d="M 478.429982 231.390625 
L 480.389972 231.390625 
L 480.389972 231.241293 
L 478.429982 231.241293 
z
" clip-path="url(#p4defa43e70)" style="fill: #ff7f0e; opacity: 0.3"/>
   </g>
   <g id="matplotlib.axis_1">
    <g id="xtick_1">
     <g id="line2d_1">
      <defs>
       <path id="m577343d574" d="M 0 0 
L 0 3.5 
" style="stroke: #000000; stroke-width: 0.8"/>
      </defs>
      <g>
       <use xlink:href="#m577343d574" x="147.927848" y="231.390625" style="stroke: #000000; stroke-width: 0.8"/>
      </g>
     </g>
     <g id="text_1">
      <!-- $10^{-10}$ -->
      <g transform="translate(128.397848 249.028437) scale(0.14 -0.14)">
       <defs>
        <path id="DejaVuSans-31" d="M 794 531 
L 1825 531 
L 1825 4091 
L 703 3866 
L 703 4441 
L 1819 4666 
L 2450 4666 
L 2450 531 
L 3481 531 
L 3481 0 
L 794 0 
L 794 531 
z
" transform="scale(0.015625)"/>
        <path id="DejaVuSans-30" d="M 2034 4250 
Q 1547 4250 1301 3770 
Q 1056 3291 1056 2328 
Q 1056 1369 1301 889 
Q 1547 409 2034 409 
Q 2525 409 2770 889 
Q 3016 1369 3016 2328 
Q 3016 3291 2770 3770 
Q 2525 4250 2034 4250 
z
M 2034 4750 
Q 2819 4750 3233 4129 
Q 3647 3509 3647 2328 
Q 3647 1150 3233 529 
Q 2819 -91 2034 -91 
Q 1250 -91 836 529 
Q 422 1150 422 2328 
Q 422 3509 836 4129 
Q 1250 4750 2034 4750 
z
" transform="scale(0.015625)"/>
        <path id="DejaVuSans-2212" d="M 678 2272 
L 4684 2272 
L 4684 1741 
L 678 1741 
L 678 2272 
z
" transform="scale(0.015625)"/>
       </defs>
       <use xlink:href="#DejaVuSans-31" transform="translate(0 0.765625)"/>
       <use xlink:href="#DejaVuSans-30" transform="translate(63.623047 0.765625)"/>
       <use xlink:href="#DejaVuSans-2212" transform="translate(128.203125 39.046875) scale(0.7)"/>
       <use xlink:href="#DejaVuSans-31" transform="translate(186.855469 39.046875) scale(0.7)"/>
       <use xlink:href="#DejaVuSans-30" transform="translate(231.391602 39.046875) scale(0.7)"/>
      </g>
     </g>
    </g>
    <g id="xtick_2">
     <g id="line2d_2">
      <g>
       <use xlink:href="#m577343d574" x="223.405933" y="231.390625" style="stroke: #000000; stroke-width: 0.8"/>
      </g>
     </g>
     <g id="text_2">
      <!-- $10^{-8}$ -->
      <g transform="translate(206.955933 249.028437) scale(0.14 -0.14)">
       <defs>
        <path id="DejaVuSans-38" d="M 2034 2216 
Q 1584 2216 1326 1975 
Q 1069 1734 1069 1313 
Q 1069 891 1326 650 
Q 1584 409 2034 409 
Q 2484 409 2743 651 
Q 3003 894 3003 1313 
Q 3003 1734 2745 1975 
Q 2488 2216 2034 2216 
z
M 1403 2484 
Q 997 2584 770 2862 
Q 544 3141 544 3541 
Q 544 4100 942 4425 
Q 1341 4750 2034 4750 
Q 2731 4750 3128 4425 
Q 3525 4100 3525 3541 
Q 3525 3141 3298 2862 
Q 3072 2584 2669 2484 
Q 3125 2378 3379 2068 
Q 3634 1759 3634 1313 
Q 3634 634 3220 271 
Q 2806 -91 2034 -91 
Q 1263 -91 848 271 
Q 434 634 434 1313 
Q 434 1759 690 2068 
Q 947 2378 1403 2484 
z
M 1172 3481 
Q 1172 3119 1398 2916 
Q 1625 2713 2034 2713 
Q 2441 2713 2670 2916 
Q 2900 3119 2900 3481 
Q 2900 3844 2670 4047 
Q 2441 4250 2034 4250 
Q 1625 4250 1398 4047 
Q 1172 3844 1172 3481 
z
" transform="scale(0.015625)"/>
       </defs>
       <use xlink:href="#DejaVuSans-31" transform="translate(0 0.765625)"/>
       <use xlink:href="#DejaVuSans-30" transform="translate(63.623047 0.765625)"/>
       <use xlink:href="#DejaVuSans-2212" transform="translate(128.203125 39.046875) scale(0.7)"/>
       <use xlink:href="#DejaVuSans-38" transform="translate(186.855469 39.046875) scale(0.7)"/>
      </g>
     </g>
    </g>
    <g id="xtick_3">
     <g id="line2d_3">
      <g>
       <use xlink:href="#m577343d574" x="298.884018" y="231.390625" style="stroke: #000000; stroke-width: 0.8"/>
      </g>
     </g>
     <g id="text_3">
      <!-- $10^{-6}$ -->
      <g transform="translate(282.434018 249.028437) scale(0.14 -0.14)">
       <defs>
        <path id="DejaVuSans-36" d="M 2113 2584 
Q 1688 2584 1439 2293 
Q 1191 2003 1191 1497 
Q 1191 994 1439 701 
Q 1688 409 2113 409 
Q 2538 409 2786 701 
Q 3034 994 3034 1497 
Q 3034 2003 2786 2293 
Q 2538 2584 2113 2584 
z
M 3366 4563 
L 3366 3988 
Q 3128 4100 2886 4159 
Q 2644 4219 2406 4219 
Q 1781 4219 1451 3797 
Q 1122 3375 1075 2522 
Q 1259 2794 1537 2939 
Q 1816 3084 2150 3084 
Q 2853 3084 3261 2657 
Q 3669 2231 3669 1497 
Q 3669 778 3244 343 
Q 2819 -91 2113 -91 
Q 1303 -91 875 529 
Q 447 1150 447 2328 
Q 447 3434 972 4092 
Q 1497 4750 2381 4750 
Q 2619 4750 2861 4703 
Q 3103 4656 3366 4563 
z
" transform="scale(0.015625)"/>
       </defs>
       <use xlink:href="#DejaVuSans-31" transform="translate(0 0.765625)"/>
       <use xlink:href="#DejaVuSans-30" transform="translate(63.623047 0.765625)"/>
       <use xlink:href="#DejaVuSans-2212" transform="translate(128.203125 39.046875) scale(0.7)"/>
       <use xlink:href="#DejaVuSans-36" transform="translate(186.855469 39.046875) scale(0.7)"/>
      </g>
     </g>
    </g>
    <g id="xtick_4">
     <g id="line2d_4">
      <g>
       <use xlink:href="#m577343d574" x="374.362103" y="231.390625" style="stroke: #000000; stroke-width: 0.8"/>
      </g>
     </g>
     <g id="text_4">
      <!-- $10^{-4}$ -->
      <g transform="translate(357.912103 249.028437) scale(0.14 -0.14)">
       <defs>
        <path id="DejaVuSans-34" d="M 2419 4116 
L 825 1625 
L 2419 1625 
L 2419 4116 
z
M 2253 4666 
L 3047 4666 
L 3047 1625 
L 3713 1625 
L 3713 1100 
L 3047 1100 
L 3047 0 
L 2419 0 
L 2419 1100 
L 313 1100 
L 313 1709 
L 2253 4666 
z
" transform="scale(0.015625)"/>
       </defs>
       <use xlink:href="#DejaVuSans-31" transform="translate(0 0.684375)"/>
       <use xlink:href="#DejaVuSans-30" transform="translate(63.623047 0.684375)"/>
       <use xlink:href="#DejaVuSans-2212" transform="translate(128.203125 38.965625) scale(0.7)"/>
       <use xlink:href="#DejaVuSans-34" transform="translate(186.855469 38.965625) scale(0.7)"/>
      </g>
     </g>
    </g>
    <g id="xtick_5">
     <g id="line2d_5">
      <g>
       <use xlink:href="#m577343d574" x="449.840187" y="231.390625" style="stroke: #000000; stroke-width: 0.8"/>
      </g>
     </g>
     <g id="text_5">
      <!-- $10^{-2}$ -->
      <g transform="translate(433.390187 249.028437) scale(0.14 -0.14)">
       <defs>
        <path id="DejaVuSans-32" d="M 1228 531 
L 3431 531 
L 3431 0 
L 469 0 
L 469 531 
Q 828 903 1448 1529 
Q 2069 2156 2228 2338 
Q 2531 2678 2651 2914 
Q 2772 3150 2772 3378 
Q 2772 3750 2511 3984 
Q 2250 4219 1831 4219 
Q 1534 4219 1204 4116 
Q 875 4013 500 3803 
L 500 4441 
Q 881 4594 1212 4672 
Q 1544 4750 1819 4750 
Q 2544 4750 2975 4387 
Q 3406 4025 3406 3419 
Q 3406 3131 3298 2873 
Q 3191 2616 2906 2266 
Q 2828 2175 2409 1742 
Q 1991 1309 1228 531 
z
" transform="scale(0.015625)"/>
       </defs>
       <use xlink:href="#DejaVuSans-31" transform="translate(0 0.765625)"/>
       <use xlink:href="#DejaVuSans-30" transform="translate(63.623047 0.765625)"/>
       <use xlink:href="#DejaVuSans-2212" transform="translate(128.203125 39.046875) scale(0.7)"/>
       <use xlink:href="#DejaVuSans-32" transform="translate(186.855469 39.046875) scale(0.7)"/>
      </g>
     </g>
    </g>
    <g id="text_6">
     <!-- Absolute error to optimal control action $|\hat{u}_0 - u_{0}^{*}|$ -->
     <g transform="translate(117.949687 268.82) scale(0.14 -0.14)">
      <defs>
       <path id="DejaVuSans-41" d="M 2188 4044 
L 1331 1722 
L 3047 1722 
L 2188 4044 
z
M 1831 4666 
L 2547 4666 
L 4325 0 
L 3669 0 
L 3244 1197 
L 1141 1197 
L 716 0 
L 50 0 
L 1831 4666 
z
" transform="scale(0.015625)"/>
       <path id="DejaVuSans-62" d="M 3116 1747 
Q 3116 2381 2855 2742 
Q 2594 3103 2138 3103 
Q 1681 3103 1420 2742 
Q 1159 2381 1159 1747 
Q 1159 1113 1420 752 
Q 1681 391 2138 391 
Q 2594 391 2855 752 
Q 3116 1113 3116 1747 
z
M 1159 2969 
Q 1341 3281 1617 3432 
Q 1894 3584 2278 3584 
Q 2916 3584 3314 3078 
Q 3713 2572 3713 1747 
Q 3713 922 3314 415 
Q 2916 -91 2278 -91 
Q 1894 -91 1617 61 
Q 1341 213 1159 525 
L 1159 0 
L 581 0 
L 581 4863 
L 1159 4863 
L 1159 2969 
z
" transform="scale(0.015625)"/>
       <path id="DejaVuSans-73" d="M 2834 3397 
L 2834 2853 
Q 2591 2978 2328 3040 
Q 2066 3103 1784 3103 
Q 1356 3103 1142 2972 
Q 928 2841 928 2578 
Q 928 2378 1081 2264 
Q 1234 2150 1697 2047 
L 1894 2003 
Q 2506 1872 2764 1633 
Q 3022 1394 3022 966 
Q 3022 478 2636 193 
Q 2250 -91 1575 -91 
Q 1294 -91 989 -36 
Q 684 19 347 128 
L 347 722 
Q 666 556 975 473 
Q 1284 391 1588 391 
Q 1994 391 2212 530 
Q 2431 669 2431 922 
Q 2431 1156 2273 1281 
Q 2116 1406 1581 1522 
L 1381 1569 
Q 847 1681 609 1914 
Q 372 2147 372 2553 
Q 372 3047 722 3315 
Q 1072 3584 1716 3584 
Q 2034 3584 2315 3537 
Q 2597 3491 2834 3397 
z
" transform="scale(0.015625)"/>
       <path id="DejaVuSans-6f" d="M 1959 3097 
Q 1497 3097 1228 2736 
Q 959 2375 959 1747 
Q 959 1119 1226 758 
Q 1494 397 1959 397 
Q 2419 397 2687 759 
Q 2956 1122 2956 1747 
Q 2956 2369 2687 2733 
Q 2419 3097 1959 3097 
z
M 1959 3584 
Q 2709 3584 3137 3096 
Q 3566 2609 3566 1747 
Q 3566 888 3137 398 
Q 2709 -91 1959 -91 
Q 1206 -91 779 398 
Q 353 888 353 1747 
Q 353 2609 779 3096 
Q 1206 3584 1959 3584 
z
" transform="scale(0.015625)"/>
       <path id="DejaVuSans-6c" d="M 603 4863 
L 1178 4863 
L 1178 0 
L 603 0 
L 603 4863 
z
" transform="scale(0.015625)"/>
       <path id="DejaVuSans-75" d="M 544 1381 
L 544 3500 
L 1119 3500 
L 1119 1403 
Q 1119 906 1312 657 
Q 1506 409 1894 409 
Q 2359 409 2629 706 
Q 2900 1003 2900 1516 
L 2900 3500 
L 3475 3500 
L 3475 0 
L 2900 0 
L 2900 538 
Q 2691 219 2414 64 
Q 2138 -91 1772 -91 
Q 1169 -91 856 284 
Q 544 659 544 1381 
z
M 1991 3584 
L 1991 3584 
z
" transform="scale(0.015625)"/>
       <path id="DejaVuSans-74" d="M 1172 4494 
L 1172 3500 
L 2356 3500 
L 2356 3053 
L 1172 3053 
L 1172 1153 
Q 1172 725 1289 603 
Q 1406 481 1766 481 
L 2356 481 
L 2356 0 
L 1766 0 
Q 1100 0 847 248 
Q 594 497 594 1153 
L 594 3053 
L 172 3053 
L 172 3500 
L 594 3500 
L 594 4494 
L 1172 4494 
z
" transform="scale(0.015625)"/>
       <path id="DejaVuSans-65" d="M 3597 1894 
L 3597 1613 
L 953 1613 
Q 991 1019 1311 708 
Q 1631 397 2203 397 
Q 2534 397 2845 478 
Q 3156 559 3463 722 
L 3463 178 
Q 3153 47 2828 -22 
Q 2503 -91 2169 -91 
Q 1331 -91 842 396 
Q 353 884 353 1716 
Q 353 2575 817 3079 
Q 1281 3584 2069 3584 
Q 2775 3584 3186 3129 
Q 3597 2675 3597 1894 
z
M 3022 2063 
Q 3016 2534 2758 2815 
Q 2500 3097 2075 3097 
Q 1594 3097 1305 2825 
Q 1016 2553 972 2059 
L 3022 2063 
z
" transform="scale(0.015625)"/>
       <path id="DejaVuSans-20" transform="scale(0.015625)"/>
       <path id="DejaVuSans-72" d="M 2631 2963 
Q 2534 3019 2420 3045 
Q 2306 3072 2169 3072 
Q 1681 3072 1420 2755 
Q 1159 2438 1159 1844 
L 1159 0 
L 581 0 
L 581 3500 
L 1159 3500 
L 1159 2956 
Q 1341 3275 1631 3429 
Q 1922 3584 2338 3584 
Q 2397 3584 2469 3576 
Q 2541 3569 2628 3553 
L 2631 2963 
z
" transform="scale(0.015625)"/>
       <path id="DejaVuSans-70" d="M 1159 525 
L 1159 -1331 
L 581 -1331 
L 581 3500 
L 1159 3500 
L 1159 2969 
Q 1341 3281 1617 3432 
Q 1894 3584 2278 3584 
Q 2916 3584 3314 3078 
Q 3713 2572 3713 1747 
Q 3713 922 3314 415 
Q 2916 -91 2278 -91 
Q 1894 -91 1617 61 
Q 1341 213 1159 525 
z
M 3116 1747 
Q 3116 2381 2855 2742 
Q 2594 3103 2138 3103 
Q 1681 3103 1420 2742 
Q 1159 2381 1159 1747 
Q 1159 1113 1420 752 
Q 1681 391 2138 391 
Q 2594 391 2855 752 
Q 3116 1113 3116 1747 
z
" transform="scale(0.015625)"/>
       <path id="DejaVuSans-69" d="M 603 3500 
L 1178 3500 
L 1178 0 
L 603 0 
L 603 3500 
z
M 603 4863 
L 1178 4863 
L 1178 4134 
L 603 4134 
L 603 4863 
z
" transform="scale(0.015625)"/>
       <path id="DejaVuSans-6d" d="M 3328 2828 
Q 3544 3216 3844 3400 
Q 4144 3584 4550 3584 
Q 5097 3584 5394 3201 
Q 5691 2819 5691 2113 
L 5691 0 
L 5113 0 
L 5113 2094 
Q 5113 2597 4934 2840 
Q 4756 3084 4391 3084 
Q 3944 3084 3684 2787 
Q 3425 2491 3425 1978 
L 3425 0 
L 2847 0 
L 2847 2094 
Q 2847 2600 2669 2842 
Q 2491 3084 2119 3084 
Q 1678 3084 1418 2786 
Q 1159 2488 1159 1978 
L 1159 0 
L 581 0 
L 581 3500 
L 1159 3500 
L 1159 2956 
Q 1356 3278 1631 3431 
Q 1906 3584 2284 3584 
Q 2666 3584 2933 3390 
Q 3200 3197 3328 2828 
z
" transform="scale(0.015625)"/>
       <path id="DejaVuSans-61" d="M 2194 1759 
Q 1497 1759 1228 1600 
Q 959 1441 959 1056 
Q 959 750 1161 570 
Q 1363 391 1709 391 
Q 2188 391 2477 730 
Q 2766 1069 2766 1631 
L 2766 1759 
L 2194 1759 
z
M 3341 1997 
L 3341 0 
L 2766 0 
L 2766 531 
Q 2569 213 2275 61 
Q 1981 -91 1556 -91 
Q 1019 -91 701 211 
Q 384 513 384 1019 
Q 384 1609 779 1909 
Q 1175 2209 1959 2209 
L 2766 2209 
L 2766 2266 
Q 2766 2663 2505 2880 
Q 2244 3097 1772 3097 
Q 1472 3097 1187 3025 
Q 903 2953 641 2809 
L 641 3341 
Q 956 3463 1253 3523 
Q 1550 3584 1831 3584 
Q 2591 3584 2966 3190 
Q 3341 2797 3341 1997 
z
" transform="scale(0.015625)"/>
       <path id="DejaVuSans-63" d="M 3122 3366 
L 3122 2828 
Q 2878 2963 2633 3030 
Q 2388 3097 2138 3097 
Q 1578 3097 1268 2742 
Q 959 2388 959 1747 
Q 959 1106 1268 751 
Q 1578 397 2138 397 
Q 2388 397 2633 464 
Q 2878 531 3122 666 
L 3122 134 
Q 2881 22 2623 -34 
Q 2366 -91 2075 -91 
Q 1284 -91 818 406 
Q 353 903 353 1747 
Q 353 2603 823 3093 
Q 1294 3584 2113 3584 
Q 2378 3584 2631 3529 
Q 2884 3475 3122 3366 
z
" transform="scale(0.015625)"/>
       <path id="DejaVuSans-6e" d="M 3513 2113 
L 3513 0 
L 2938 0 
L 2938 2094 
Q 2938 2591 2744 2837 
Q 2550 3084 2163 3084 
Q 1697 3084 1428 2787 
Q 1159 2491 1159 1978 
L 1159 0 
L 581 0 
L 581 3500 
L 1159 3500 
L 1159 2956 
Q 1366 3272 1645 3428 
Q 1925 3584 2291 3584 
Q 2894 3584 3203 3211 
Q 3513 2838 3513 2113 
z
" transform="scale(0.015625)"/>
       <path id="DejaVuSans-7c" d="M 1344 4891 
L 1344 -1509 
L 813 -1509 
L 813 4891 
L 1344 4891 
z
" transform="scale(0.015625)"/>
       <path id="DejaVuSans-302" d="M -1831 5119 
L -1369 5119 
L -603 3944 
L -1038 3944 
L -1600 4709 
L -2163 3944 
L -2597 3944 
L -1831 5119 
z
M -1600 3584 
L -1600 3584 
z
" transform="scale(0.015625)"/>
       <path id="DejaVuSans-Oblique-75" d="M 428 1388 
L 838 3500 
L 1416 3500 
L 1006 1409 
Q 975 1256 961 1147 
Q 947 1038 947 966 
Q 947 700 1109 554 
Q 1272 409 1569 409 
Q 2031 409 2368 721 
Q 2706 1034 2809 1563 
L 3194 3500 
L 3769 3500 
L 3091 0 
L 2516 0 
L 2631 550 
Q 2388 244 2052 76 
Q 1716 -91 1338 -91 
Q 878 -91 622 161 
Q 366 413 366 863 
Q 366 956 381 1097 
Q 397 1238 428 1388 
z
" transform="scale(0.015625)"/>
       <path id="DejaVuSans-2a" d="M 3009 3897 
L 1888 3291 
L 3009 2681 
L 2828 2375 
L 1778 3009 
L 1778 1831 
L 1422 1831 
L 1422 3009 
L 372 2375 
L 191 2681 
L 1313 3291 
L 191 3897 
L 372 4206 
L 1422 3572 
L 1422 4750 
L 1778 4750 
L 1778 3572 
L 2828 4206 
L 3009 3897 
z
" transform="scale(0.015625)"/>
      </defs>
      <use xlink:href="#DejaVuSans-41" transform="translate(0 0.828125)"/>
      <use xlink:href="#DejaVuSans-62" transform="translate(68.408203 0.828125)"/>
      <use xlink:href="#DejaVuSans-73" transform="translate(131.884766 0.828125)"/>
      <use xlink:href="#DejaVuSans-6f" transform="translate(183.984375 0.828125)"/>
      <use xlink:href="#DejaVuSans-6c" transform="translate(245.166016 0.828125)"/>
      <use xlink:href="#DejaVuSans-75" transform="translate(272.949219 0.828125)"/>
      <use xlink:href="#DejaVuSans-74" transform="translate(336.328125 0.828125)"/>
      <use xlink:href="#DejaVuSans-65" transform="translate(375.537109 0.828125)"/>
      <use xlink:href="#DejaVuSans-20" transform="translate(437.060547 0.828125)"/>
      <use xlink:href="#DejaVuSans-65" transform="translate(468.847656 0.828125)"/>
      <use xlink:href="#DejaVuSans-72" transform="translate(530.371094 0.828125)"/>
      <use xlink:href="#DejaVuSans-72" transform="translate(571.484375 0.828125)"/>
      <use xlink:href="#DejaVuSans-6f" transform="translate(612.597656 0.828125)"/>
      <use xlink:href="#DejaVuSans-72" transform="translate(673.779297 0.828125)"/>
      <use xlink:href="#DejaVuSans-20" transform="translate(714.892578 0.828125)"/>
      <use xlink:href="#DejaVuSans-74" transform="translate(746.679688 0.828125)"/>
      <use xlink:href="#DejaVuSans-6f" transform="translate(785.888672 0.828125)"/>
      <use xlink:href="#DejaVuSans-20" transform="translate(847.070312 0.828125)"/>
      <use xlink:href="#DejaVuSans-6f" transform="translate(878.857422 0.828125)"/>
      <use xlink:href="#DejaVuSans-70" transform="translate(940.039062 0.828125)"/>
      <use xlink:href="#DejaVuSans-74" transform="translate(1003.515625 0.828125)"/>
      <use xlink:href="#DejaVuSans-69" transform="translate(1042.724609 0.828125)"/>
      <use xlink:href="#DejaVuSans-6d" transform="translate(1070.507812 0.828125)"/>
      <use xlink:href="#DejaVuSans-61" transform="translate(1167.919922 0.828125)"/>
      <use xlink:href="#DejaVuSans-6c" transform="translate(1229.199219 0.828125)"/>
      <use xlink:href="#DejaVuSans-20" transform="translate(1256.982422 0.828125)"/>
      <use xlink:href="#DejaVuSans-63" transform="translate(1288.769531 0.828125)"/>
      <use xlink:href="#DejaVuSans-6f" transform="translate(1343.75 0.828125)"/>
      <use xlink:href="#DejaVuSans-6e" transform="translate(1404.931641 0.828125)"/>
      <use xlink:href="#DejaVuSans-74" transform="translate(1468.310547 0.828125)"/>
      <use xlink:href="#DejaVuSans-72" transform="translate(1507.519531 0.828125)"/>
      <use xlink:href="#DejaVuSans-6f" transform="translate(1548.632812 0.828125)"/>
      <use xlink:href="#DejaVuSans-6c" transform="translate(1609.814453 0.828125)"/>
      <use xlink:href="#DejaVuSans-20" transform="translate(1637.597656 0.828125)"/>
      <use xlink:href="#DejaVuSans-61" transform="translate(1669.384766 0.828125)"/>
      <use xlink:href="#DejaVuSans-63" transform="translate(1730.664062 0.828125)"/>
      <use xlink:href="#DejaVuSans-74" transform="translate(1785.644531 0.828125)"/>
      <use xlink:href="#DejaVuSans-69" transform="translate(1824.853516 0.828125)"/>
      <use xlink:href="#DejaVuSans-6f" transform="translate(1852.636719 0.828125)"/>
      <use xlink:href="#DejaVuSans-6e" transform="translate(1913.818359 0.828125)"/>
      <use xlink:href="#DejaVuSans-20" transform="translate(1977.197266 0.828125)"/>
      <use xlink:href="#DejaVuSans-7c" transform="translate(2008.984375 0.828125)"/>
      <use xlink:href="#DejaVuSans-302" transform="translate(2107.098633 12.015625)"/>
      <use xlink:href="#DejaVuSans-Oblique-75" transform="translate(2042.675781 0.828125)"/>
      <use xlink:href="#DejaVuSans-30" transform="translate(2107.011719 -15.578125) scale(0.7)"/>
      <use xlink:href="#DejaVuSans-2212" transform="translate(2173.764648 0.828125)"/>
      <use xlink:href="#DejaVuSans-Oblique-75" transform="translate(2277.036133 0.828125)"/>
      <use xlink:href="#DejaVuSans-2a" transform="translate(2344.881185 39.109375) scale(0.7)"/>
      <use xlink:href="#DejaVuSans-30" transform="translate(2340.415039 -26.515625) scale(0.7)"/>
      <use xlink:href="#DejaVuSans-7c" transform="translate(2387.685547 0.828125)"/>
     </g>
    </g>
   </g>
   <g id="matplotlib.axis_2">
    <g id="ytick_1">
     <g id="line2d_6">
      <defs>
       <path id="m8e31bfdb82" d="M 0 0 
L -3.5 0 
" style="stroke: #000000; stroke-width: 0.8"/>
      </defs>
      <g>
       <use xlink:href="#m8e31bfdb82" x="75.299375" y="231.390625" style="stroke: #000000; stroke-width: 0.8"/>
      </g>
     </g>
     <g id="text_7">
      <!-- 0 -->
      <g transform="translate(59.391875 236.709531) scale(0.14 -0.14)">
       <use xlink:href="#DejaVuSans-30"/>
      </g>
     </g>
    </g>
    <g id="ytick_2">
     <g id="line2d_7">
      <g>
       <use xlink:href="#m8e31bfdb82" x="75.299375" y="181.613183" style="stroke: #000000; stroke-width: 0.8"/>
      </g>
     </g>
     <g id="text_8">
      <!-- 1000 -->
      <g transform="translate(32.669375 186.93209) scale(0.14 -0.14)">
       <use xlink:href="#DejaVuSans-31"/>
       <use xlink:href="#DejaVuSans-30" x="63.623047"/>
       <use xlink:href="#DejaVuSans-30" x="127.246094"/>
       <use xlink:href="#DejaVuSans-30" x="190.869141"/>
      </g>
     </g>
    </g>
    <g id="ytick_3">
     <g id="line2d_8">
      <g>
       <use xlink:href="#m8e31bfdb82" x="75.299375" y="131.835742" style="stroke: #000000; stroke-width: 0.8"/>
      </g>
     </g>
     <g id="text_9">
      <!-- 2000 -->
      <g transform="translate(32.669375 137.154648) scale(0.14 -0.14)">
       <use xlink:href="#DejaVuSans-32"/>
       <use xlink:href="#DejaVuSans-30" x="63.623047"/>
       <use xlink:href="#DejaVuSans-30" x="127.246094"/>
       <use xlink:href="#DejaVuSans-30" x="190.869141"/>
      </g>
     </g>
    </g>
    <g id="ytick_4">
     <g id="line2d_9">
      <g>
       <use xlink:href="#m8e31bfdb82" x="75.299375" y="82.0583" style="stroke: #000000; stroke-width: 0.8"/>
      </g>
     </g>
     <g id="text_10">
      <!-- 3000 -->
      <g transform="translate(32.669375 87.377206) scale(0.14 -0.14)">
       <defs>
        <path id="DejaVuSans-33" d="M 2597 2516 
Q 3050 2419 3304 2112 
Q 3559 1806 3559 1356 
Q 3559 666 3084 287 
Q 2609 -91 1734 -91 
Q 1441 -91 1130 -33 
Q 819 25 488 141 
L 488 750 
Q 750 597 1062 519 
Q 1375 441 1716 441 
Q 2309 441 2620 675 
Q 2931 909 2931 1356 
Q 2931 1769 2642 2001 
Q 2353 2234 1838 2234 
L 1294 2234 
L 1294 2753 
L 1863 2753 
Q 2328 2753 2575 2939 
Q 2822 3125 2822 3475 
Q 2822 3834 2567 4026 
Q 2313 4219 1838 4219 
Q 1578 4219 1281 4162 
Q 984 4106 628 3988 
L 628 4550 
Q 988 4650 1302 4700 
Q 1616 4750 1894 4750 
Q 2613 4750 3031 4423 
Q 3450 4097 3450 3541 
Q 3450 3153 3228 2886 
Q 3006 2619 2597 2516 
z
" transform="scale(0.015625)"/>
       </defs>
       <use xlink:href="#DejaVuSans-33"/>
       <use xlink:href="#DejaVuSans-30" x="63.623047"/>
       <use xlink:href="#DejaVuSans-30" x="127.246094"/>
       <use xlink:href="#DejaVuSans-30" x="190.869141"/>
      </g>
     </g>
    </g>
    <g id="text_11">
     <!-- Frequency -->
     <g transform="translate(25.757813 169.735781) rotate(-90) scale(0.14 -0.14)">
      <defs>
       <path id="DejaVuSans-46" d="M 628 4666 
L 3309 4666 
L 3309 4134 
L 1259 4134 
L 1259 2759 
L 3109 2759 
L 3109 2228 
L 1259 2228 
L 1259 0 
L 628 0 
L 628 4666 
z
" transform="scale(0.015625)"/>
       <path id="DejaVuSans-71" d="M 947 1747 
Q 947 1113 1208 752 
Q 1469 391 1925 391 
Q 2381 391 2643 752 
Q 2906 1113 2906 1747 
Q 2906 2381 2643 2742 
Q 2381 3103 1925 3103 
Q 1469 3103 1208 2742 
Q 947 2381 947 1747 
z
M 2906 525 
Q 2725 213 2448 61 
Q 2172 -91 1784 -91 
Q 1150 -91 751 415 
Q 353 922 353 1747 
Q 353 2572 751 3078 
Q 1150 3584 1784 3584 
Q 2172 3584 2448 3432 
Q 2725 3281 2906 2969 
L 2906 3500 
L 3481 3500 
L 3481 -1331 
L 2906 -1331 
L 2906 525 
z
" transform="scale(0.015625)"/>
       <path id="DejaVuSans-79" d="M 2059 -325 
Q 1816 -950 1584 -1140 
Q 1353 -1331 966 -1331 
L 506 -1331 
L 506 -850 
L 844 -850 
Q 1081 -850 1212 -737 
Q 1344 -625 1503 -206 
L 1606 56 
L 191 3500 
L 800 3500 
L 1894 763 
L 2988 3500 
L 3597 3500 
L 2059 -325 
z
" transform="scale(0.015625)"/>
      </defs>
      <use xlink:href="#DejaVuSans-46"/>
      <use xlink:href="#DejaVuSans-72" x="50.269531"/>
      <use xlink:href="#DejaVuSans-65" x="89.132812"/>
      <use xlink:href="#DejaVuSans-71" x="150.65625"/>
      <use xlink:href="#DejaVuSans-75" x="214.132812"/>
      <use xlink:href="#DejaVuSans-65" x="277.511719"/>
      <use xlink:href="#DejaVuSans-6e" x="339.035156"/>
      <use xlink:href="#DejaVuSans-63" x="402.414062"/>
      <use xlink:href="#DejaVuSans-79" x="457.394531"/>
     </g>
    </g>
   </g>
   <g id="line2d_10">
    <path d="M 94.589403 231.29107 
L 98.400816 231.390625 
L 102.212228 231.340848 
L 106.02364 231.390625 
L 109.835052 231.340848 
L 113.646464 231.390625 
L 117.457876 231.340848 
L 121.269288 231.241293 
L 125.0807 231.191515 
L 128.892113 231.340848 
L 132.703525 231.042183 
L 136.514937 231.141738 
L 140.326349 231.191515 
L 144.137761 231.191515 
L 147.949173 230.843073 
L 151.760585 230.793296 
L 155.571998 230.892851 
L 159.38341 230.544408 
L 163.194822 230.096412 
L 167.006234 229.847524 
L 170.817646 229.54886 
L 174.629058 229.449305 
L 178.44047 228.254646 
L 182.251883 228.204869 
L 186.063295 227.109765 
L 189.874707 225.268 
L 193.686119 223.376457 
L 197.497531 221.385359 
L 201.308943 218.548045 
L 205.120355 216.258283 
L 208.931767 211.628981 
L 212.74318 209.438773 
L 216.554592 200.030837 
L 220.366004 193.659324 
L 224.177416 182.65851 
L 227.988828 174.295899 
L 231.80024 158.466673 
L 235.611652 133.627729 
L 239.423065 116.205625 
L 243.234477 96.991532 
L 247.045889 70.261046 
L 250.857301 54.382042 
L 254.668713 45.073661 
L 258.480125 46.118987 
L 262.291537 76.582781 
L 266.102949 117.898058 
L 269.914362 156.57513 
L 273.725774 191.02112 
L 277.537186 212.773862 
L 281.348598 222.231576 
L 285.16001 227.308875 
L 288.971422 229.698192 
L 292.782834 231.042183 
L 296.594247 230.892851 
L 300.405659 230.892851 
L 304.217071 231.09196 
L 308.028483 230.942628 
L 311.839895 230.892851 
L 315.651307 230.892851 
L 319.462719 230.594186 
L 323.274131 230.793296 
L 327.085544 230.843073 
L 330.896956 230.743518 
L 334.708368 230.693741 
L 338.51978 230.942628 
L 342.331192 230.693741 
L 346.142604 230.494631 
L 349.954016 230.594186 
L 353.765429 230.643963 
L 357.576841 230.693741 
L 361.388253 230.395076 
L 365.199665 230.146189 
L 369.011077 230.295521 
L 372.822489 229.947079 
L 376.633901 230.245744 
L 380.445314 229.996857 
L 384.256726 230.594186 
L 388.068138 230.594186 
L 391.87955 230.494631 
L 395.690962 230.195966 
L 399.502374 230.594186 
L 403.313786 230.793296 
L 407.125198 231.042183 
L 410.936611 230.743518 
L 414.748023 230.743518 
L 418.559435 230.942628 
L 422.370847 231.042183 
L 426.182259 231.191515 
L 429.993671 231.042183 
L 433.805083 230.843073 
L 437.616496 231.09196 
L 441.427908 230.892851 
L 445.23932 231.141738 
L 449.050732 231.141738 
L 452.862144 230.992405 
L 456.673556 230.743518 
L 460.484968 230.992405 
L 464.29638 231.29107 
L 468.107793 231.340848 
L 471.919205 231.340848 
" clip-path="url(#p4defa43e70)" style="fill: none; stroke: #1f77b4; stroke-linecap: square"/>
   </g>
   <g id="line2d_11">
    <path d="M 284.391008 231.340848 
L 286.350998 231.390625 
L 288.310987 231.390625 
L 290.270977 231.390625 
L 292.230967 231.390625 
L 294.190956 231.340848 
L 296.150946 231.390625 
L 298.110936 231.340848 
L 300.070925 231.29107 
L 302.030915 231.340848 
L 303.990904 231.390625 
L 305.950894 231.340848 
L 307.910884 231.29107 
L 309.870873 231.241293 
L 311.830863 231.29107 
L 313.790853 231.390625 
L 315.750842 231.390625 
L 317.710832 231.390625 
L 319.670821 231.390625 
L 321.630811 231.340848 
L 323.590801 231.29107 
L 325.55079 231.191515 
L 327.51078 231.141738 
L 329.47077 231.29107 
L 331.430759 231.09196 
L 333.390749 231.241293 
L 335.350739 231.191515 
L 337.310728 231.09196 
L 339.270718 231.042183 
L 341.230707 231.042183 
L 343.190697 230.892851 
L 345.150687 231.09196 
L 347.110676 230.693741 
L 349.070666 230.693741 
L 351.030656 231.042183 
L 352.990645 230.843073 
L 354.950635 230.295521 
L 356.910625 230.793296 
L 358.870614 230.693741 
L 360.830604 230.295521 
L 362.790593 229.499082 
L 364.750583 230.046634 
L 366.710573 229.051085 
L 368.670562 229.15064 
L 370.630552 229.250195 
L 372.590542 228.652866 
L 374.550531 168.571494 
L 376.510521 228.304424 
L 378.470511 227.707094 
L 380.4305 227.20932 
L 382.39049 226.313326 
L 384.350479 225.268 
L 386.310469 225.118667 
L 388.270459 174.445232 
L 390.230448 222.92846 
L 392.190438 222.181798 
L 394.150428 221.634246 
L 396.110417 220.091146 
L 398.070407 218.6476 
L 400.030397 216.805835 
L 401.990386 214.36674 
L 403.950376 213.271636 
L 405.910365 210.036103 
L 407.870355 209.438773 
L 409.830345 205.904575 
L 411.790334 202.669041 
L 413.750324 197.691297 
L 415.710314 193.211327 
L 417.670303 192.912663 
L 419.630293 183.454949 
L 421.590283 180.11986 
L 423.550272 175.63989 
L 425.510262 166.032844 
L 427.470251 161.0551 
L 429.430241 152.244493 
L 431.390231 145.176096 
L 433.35022 140.795681 
L 435.31021 134.573501 
L 437.2702 132.134406 
L 439.230189 128.152211 
L 441.190179 127.20644 
L 443.150169 139.153026 
L 445.110158 149.755621 
L 447.070148 157.520902 
L 449.030137 174.943006 
L 450.990127 190.871787 
L 452.950117 200.727721 
L 454.910106 210.334767 
L 456.870096 216.059173 
L 458.830086 221.883134 
L 460.790075 226.163994 
L 462.750065 227.955982 
L 464.710055 229.399527 
L 466.670044 229.648415 
L 468.630034 230.096412 
L 470.590023 230.793296 
L 472.550013 230.892851 
L 474.510003 231.042183 
L 476.469992 230.942628 
L 478.429982 231.241293 
" clip-path="url(#p4defa43e70)" style="fill: none; stroke: #ff7f0e; stroke-linecap: square"/>
   </g>
   <g id="patch_203">
    <path d="M 75.299375 231.390625 
L 75.299375 35.757812 
" style="fill: none; stroke: #000000; stroke-width: 0.8; stroke-linejoin: miter; stroke-linecap: square"/>
   </g>
   <g id="patch_204">
    <path d="M 499.68 231.390625 
L 499.68 35.757812 
" style="fill: none; stroke: #000000; stroke-width: 0.8; stroke-linejoin: miter; stroke-linecap: square"/>
   </g>
   <g id="patch_205">
    <path d="M 75.299375 231.390625 
L 499.68 231.390625 
" style="fill: none; stroke: #000000; stroke-width: 0.8; stroke-linejoin: miter; stroke-linecap: square"/>
   </g>
   <g id="patch_206">
    <path d="M 75.299375 35.757812 
L 499.68 35.757812 
" style="fill: none; stroke: #000000; stroke-width: 0.8; stroke-linejoin: miter; stroke-linecap: square"/>
   </g>
   <g id="text_12">
    <!-- Distribution of absolute error to optimal control action -->
    <g transform="translate(97.990937 25.757812) scale(0.14 -0.14)">
     <defs>
      <path id="DejaVuSans-44" d="M 1259 4147 
L 1259 519 
L 2022 519 
Q 2988 519 3436 956 
Q 3884 1394 3884 2338 
Q 3884 3275 3436 3711 
Q 2988 4147 2022 4147 
L 1259 4147 
z
M 628 4666 
L 1925 4666 
Q 3281 4666 3915 4102 
Q 4550 3538 4550 2338 
Q 4550 1131 3912 565 
Q 3275 0 1925 0 
L 628 0 
L 628 4666 
z
" transform="scale(0.015625)"/>
      <path id="DejaVuSans-66" d="M 2375 4863 
L 2375 4384 
L 1825 4384 
Q 1516 4384 1395 4259 
Q 1275 4134 1275 3809 
L 1275 3500 
L 2222 3500 
L 2222 3053 
L 1275 3053 
L 1275 0 
L 697 0 
L 697 3053 
L 147 3053 
L 147 3500 
L 697 3500 
L 697 3744 
Q 697 4328 969 4595 
Q 1241 4863 1831 4863 
L 2375 4863 
z
" transform="scale(0.015625)"/>
     </defs>
     <use xlink:href="#DejaVuSans-44"/>
     <use xlink:href="#DejaVuSans-69" x="77.001953"/>
     <use xlink:href="#DejaVuSans-73" x="104.785156"/>
     <use xlink:href="#DejaVuSans-74" x="156.884766"/>
     <use xlink:href="#DejaVuSans-72" x="196.09375"/>
     <use xlink:href="#DejaVuSans-69" x="237.207031"/>
     <use xlink:href="#DejaVuSans-62" x="264.990234"/>
     <use xlink:href="#DejaVuSans-75" x="328.466797"/>
     <use xlink:href="#DejaVuSans-74" x="391.845703"/>
     <use xlink:href="#DejaVuSans-69" x="431.054688"/>
     <use xlink:href="#DejaVuSans-6f" x="458.837891"/>
     <use xlink:href="#DejaVuSans-6e" x="520.019531"/>
     <use xlink:href="#DejaVuSans-20" x="583.398438"/>
     <use xlink:href="#DejaVuSans-6f" x="615.185547"/>
     <use xlink:href="#DejaVuSans-66" x="676.367188"/>
     <use xlink:href="#DejaVuSans-20" x="711.572266"/>
     <use xlink:href="#DejaVuSans-61" x="743.359375"/>
     <use xlink:href="#DejaVuSans-62" x="804.638672"/>
     <use xlink:href="#DejaVuSans-73" x="868.115234"/>
     <use xlink:href="#DejaVuSans-6f" x="920.214844"/>
     <use xlink:href="#DejaVuSans-6c" x="981.396484"/>
     <use xlink:href="#DejaVuSans-75" x="1009.179688"/>
     <use xlink:href="#DejaVuSans-74" x="1072.558594"/>
     <use xlink:href="#DejaVuSans-65" x="1111.767578"/>
     <use xlink:href="#DejaVuSans-20" x="1173.291016"/>
     <use xlink:href="#DejaVuSans-65" x="1205.078125"/>
     <use xlink:href="#DejaVuSans-72" x="1266.601562"/>
     <use xlink:href="#DejaVuSans-72" x="1305.964844"/>
     <use xlink:href="#DejaVuSans-6f" x="1344.828125"/>
     <use xlink:href="#DejaVuSans-72" x="1406.009766"/>
     <use xlink:href="#DejaVuSans-20" x="1447.123047"/>
     <use xlink:href="#DejaVuSans-74" x="1478.910156"/>
     <use xlink:href="#DejaVuSans-6f" x="1518.119141"/>
     <use xlink:href="#DejaVuSans-20" x="1579.300781"/>
     <use xlink:href="#DejaVuSans-6f" x="1611.087891"/>
     <use xlink:href="#DejaVuSans-70" x="1672.269531"/>
     <use xlink:href="#DejaVuSans-74" x="1735.746094"/>
     <use xlink:href="#DejaVuSans-69" x="1774.955078"/>
     <use xlink:href="#DejaVuSans-6d" x="1802.738281"/>
     <use xlink:href="#DejaVuSans-61" x="1900.150391"/>
     <use xlink:href="#DejaVuSans-6c" x="1961.429688"/>
     <use xlink:href="#DejaVuSans-20" x="1989.212891"/>
     <use xlink:href="#DejaVuSans-63" x="2021"/>
     <use xlink:href="#DejaVuSans-6f" x="2075.980469"/>
     <use xlink:href="#DejaVuSans-6e" x="2137.162109"/>
     <use xlink:href="#DejaVuSans-74" x="2200.541016"/>
     <use xlink:href="#DejaVuSans-72" x="2239.75"/>
     <use xlink:href="#DejaVuSans-6f" x="2278.613281"/>
     <use xlink:href="#DejaVuSans-6c" x="2339.794922"/>
     <use xlink:href="#DejaVuSans-20" x="2367.578125"/>
     <use xlink:href="#DejaVuSans-61" x="2399.365234"/>
     <use xlink:href="#DejaVuSans-63" x="2460.644531"/>
     <use xlink:href="#DejaVuSans-74" x="2515.625"/>
     <use xlink:href="#DejaVuSans-69" x="2554.833984"/>
     <use xlink:href="#DejaVuSans-6f" x="2582.617188"/>
     <use xlink:href="#DejaVuSans-6e" x="2643.798828"/>
    </g>
   </g>
   <g id="legend_1">
    <g id="patch_207">
     <path d="M 269.161875 80.585312 
L 491.28 80.585312 
Q 493.68 80.585312 493.68 78.185312 
L 493.68 44.157812 
Q 493.68 41.757812 491.28 41.757812 
L 269.161875 41.757812 
Q 266.761875 41.757812 266.761875 44.157812 
L 266.761875 78.185312 
Q 266.761875 80.585312 269.161875 80.585312 
L 269.161875 80.585312 
z
" style="fill: none; opacity: 0"/>
    </g>
    <g id="line2d_12">
     <path d="M 271.561875 51.475937 
L 283.561875 51.475937 
L 295.561875 51.475937 
" style="fill: none; stroke: #1f77b4; stroke-linecap: square"/>
    </g>
    <g id="text_13">
     <!-- learning-based iterative solver -->
     <g transform="translate(305.161875 55.675937) scale(0.12 -0.12)">
      <defs>
       <path id="DejaVuSans-67" d="M 2906 1791 
Q 2906 2416 2648 2759 
Q 2391 3103 1925 3103 
Q 1463 3103 1205 2759 
Q 947 2416 947 1791 
Q 947 1169 1205 825 
Q 1463 481 1925 481 
Q 2391 481 2648 825 
Q 2906 1169 2906 1791 
z
M 3481 434 
Q 3481 -459 3084 -895 
Q 2688 -1331 1869 -1331 
Q 1566 -1331 1297 -1286 
Q 1028 -1241 775 -1147 
L 775 -588 
Q 1028 -725 1275 -790 
Q 1522 -856 1778 -856 
Q 2344 -856 2625 -561 
Q 2906 -266 2906 331 
L 2906 616 
Q 2728 306 2450 153 
Q 2172 0 1784 0 
Q 1141 0 747 490 
Q 353 981 353 1791 
Q 353 2603 747 3093 
Q 1141 3584 1784 3584 
Q 2172 3584 2450 3431 
Q 2728 3278 2906 2969 
L 2906 3500 
L 3481 3500 
L 3481 434 
z
" transform="scale(0.015625)"/>
       <path id="DejaVuSans-2d" d="M 313 2009 
L 1997 2009 
L 1997 1497 
L 313 1497 
L 313 2009 
z
" transform="scale(0.015625)"/>
       <path id="DejaVuSans-64" d="M 2906 2969 
L 2906 4863 
L 3481 4863 
L 3481 0 
L 2906 0 
L 2906 525 
Q 2725 213 2448 61 
Q 2172 -91 1784 -91 
Q 1150 -91 751 415 
Q 353 922 353 1747 
Q 353 2572 751 3078 
Q 1150 3584 1784 3584 
Q 2172 3584 2448 3432 
Q 2725 3281 2906 2969 
z
M 947 1747 
Q 947 1113 1208 752 
Q 1469 391 1925 391 
Q 2381 391 2643 752 
Q 2906 1113 2906 1747 
Q 2906 2381 2643 2742 
Q 2381 3103 1925 3103 
Q 1469 3103 1208 2742 
Q 947 2381 947 1747 
z
" transform="scale(0.015625)"/>
       <path id="DejaVuSans-76" d="M 191 3500 
L 800 3500 
L 1894 563 
L 2988 3500 
L 3597 3500 
L 2284 0 
L 1503 0 
L 191 3500 
z
" transform="scale(0.015625)"/>
      </defs>
      <use xlink:href="#DejaVuSans-6c"/>
      <use xlink:href="#DejaVuSans-65" x="27.783203"/>
      <use xlink:href="#DejaVuSans-61" x="89.306641"/>
      <use xlink:href="#DejaVuSans-72" x="150.585938"/>
      <use xlink:href="#DejaVuSans-6e" x="189.949219"/>
      <use xlink:href="#DejaVuSans-69" x="253.328125"/>
      <use xlink:href="#DejaVuSans-6e" x="281.111328"/>
      <use xlink:href="#DejaVuSans-67" x="344.490234"/>
      <use xlink:href="#DejaVuSans-2d" x="407.966797"/>
      <use xlink:href="#DejaVuSans-62" x="444.050781"/>
      <use xlink:href="#DejaVuSans-61" x="507.527344"/>
      <use xlink:href="#DejaVuSans-73" x="568.806641"/>
      <use xlink:href="#DejaVuSans-65" x="620.90625"/>
      <use xlink:href="#DejaVuSans-64" x="682.429688"/>
      <use xlink:href="#DejaVuSans-20" x="745.90625"/>
      <use xlink:href="#DejaVuSans-69" x="777.693359"/>
      <use xlink:href="#DejaVuSans-74" x="805.476562"/>
      <use xlink:href="#DejaVuSans-65" x="844.685547"/>
      <use xlink:href="#DejaVuSans-72" x="906.208984"/>
      <use xlink:href="#DejaVuSans-61" x="947.322266"/>
      <use xlink:href="#DejaVuSans-74" x="1008.601562"/>
      <use xlink:href="#DejaVuSans-69" x="1047.810547"/>
      <use xlink:href="#DejaVuSans-76" x="1075.59375"/>
      <use xlink:href="#DejaVuSans-65" x="1134.773438"/>
      <use xlink:href="#DejaVuSans-20" x="1196.296875"/>
      <use xlink:href="#DejaVuSans-73" x="1228.083984"/>
      <use xlink:href="#DejaVuSans-6f" x="1280.183594"/>
      <use xlink:href="#DejaVuSans-6c" x="1341.365234"/>
      <use xlink:href="#DejaVuSans-76" x="1369.148438"/>
      <use xlink:href="#DejaVuSans-65" x="1428.328125"/>
      <use xlink:href="#DejaVuSans-72" x="1489.851562"/>
     </g>
    </g>
    <g id="line2d_13">
     <path d="M 271.561875 69.089687 
L 283.561875 69.089687 
L 295.561875 69.089687 
" style="fill: none; stroke: #ff7f0e; stroke-linecap: square"/>
    </g>
    <g id="text_14">
     <!-- approximate mpc -->
     <g transform="translate(305.161875 73.289687) scale(0.12 -0.12)">
      <defs>
       <path id="DejaVuSans-78" d="M 3513 3500 
L 2247 1797 
L 3578 0 
L 2900 0 
L 1881 1375 
L 863 0 
L 184 0 
L 1544 1831 
L 300 3500 
L 978 3500 
L 1906 2253 
L 2834 3500 
L 3513 3500 
z
" transform="scale(0.015625)"/>
      </defs>
      <use xlink:href="#DejaVuSans-61"/>
      <use xlink:href="#DejaVuSans-70" x="61.279297"/>
      <use xlink:href="#DejaVuSans-70" x="124.755859"/>
      <use xlink:href="#DejaVuSans-72" x="188.232422"/>
      <use xlink:href="#DejaVuSans-6f" x="227.095703"/>
      <use xlink:href="#DejaVuSans-78" x="285.152344"/>
      <use xlink:href="#DejaVuSans-69" x="344.332031"/>
      <use xlink:href="#DejaVuSans-6d" x="372.115234"/>
      <use xlink:href="#DejaVuSans-61" x="469.527344"/>
      <use xlink:href="#DejaVuSans-74" x="530.806641"/>
      <use xlink:href="#DejaVuSans-65" x="570.015625"/>
      <use xlink:href="#DejaVuSans-20" x="631.539062"/>
      <use xlink:href="#DejaVuSans-6d" x="663.326172"/>
      <use xlink:href="#DejaVuSans-70" x="760.738281"/>
      <use xlink:href="#DejaVuSans-63" x="824.214844"/>
     </g>
    </g>
   </g>
  </g>
 </g>
 <defs>
  <clipPath id="p4defa43e70">
   <rect x="75.299375" y="35.757812" width="424.380625" height="195.632813"/>
  </clipPath>
 </defs>
</svg>
