<?xml version="1.0" encoding="utf-8" standalone="no"?>
<!DOCTYPE svg PUBLIC "-//W3C//DTD SVG 1.1//EN"
  "http://www.w3.org/Graphics/SVG/1.1/DTD/svg11.dtd">
<svg xmlns:xlink="http://www.w3.org/1999/xlink" width="514.8pt" height="288pt" viewBox="0 0 514.8 288" xmlns="http://www.w3.org/2000/svg" version="1.1">
 <metadata>
  <rdf:RDF xmlns:dc="http://purl.org/dc/elements/1.1/" xmlns:cc="http://creativecommons.org/ns#" xmlns:rdf="http://www.w3.org/1999/02/22-rdf-syntax-ns#">
   <cc:Work>
    <dc:type rdf:resource="http://purl.org/dc/dcmitype/StillImage"/>
    <dc:date>2023-11-14T17:28:30.736622</dc:date>
    <dc:format>image/svg+xml</dc:format>
    <dc:creator>
     <cc:Agent>
      <dc:title>Matplotlib v3.8.0, https://matplotlib.org/</dc:title>
     </cc:Agent>
    </dc:creator>
   </cc:Work>
  </rdf:RDF>
 </metadata>
 <defs>
  <style type="text/css">*{stroke-linejoin: round; stroke-linecap: butt}</style>
 </defs>
 <g id="figure_1">
  <g id="patch_1">
   <path d="M 0 288 
L 514.8 288 
L 514.8 0 
L 0 0 
z
" style="fill: #ffffff"/>
  </g>
  <g id="axes_1">
   <g id="patch_2">
    <path d="M 73.16 234.78125 
L 499.68 234.78125 
L 499.68 35.757812 
L 73.16 35.757812 
z
" style="fill: #ffffff"/>
   </g>
   <g id="matplotlib.axis_1">
    <g id="xtick_1">
     <g id="line2d_1">
      <defs>
       <path id="m3c76b7bb00" d="M 0 0 
L 0 3.5 
" style="stroke: #000000; stroke-width: 0.8"/>
      </defs>
      <g>
       <use xlink:href="#m3c76b7bb00" x="92.547273" y="234.78125" style="stroke: #000000; stroke-width: 0.8"/>
      </g>
     </g>
     <g id="text_1">
      <!-- $\mathdefault{10^{0}}$ -->
      <g transform="translate(80.227273 252.419063) scale(0.14 -0.14)">
       <defs>
        <path id="DejaVuSans-31" d="M 794 531 
L 1825 531 
L 1825 4091 
L 703 3866 
L 703 4441 
L 1819 4666 
L 2450 4666 
L 2450 531 
L 3481 531 
L 3481 0 
L 794 0 
L 794 531 
z
" transform="scale(0.015625)"/>
        <path id="DejaVuSans-30" d="M 2034 4250 
Q 1547 4250 1301 3770 
Q 1056 3291 1056 2328 
Q 1056 1369 1301 889 
Q 1547 409 2034 409 
Q 2525 409 2770 889 
Q 3016 1369 3016 2328 
Q 3016 3291 2770 3770 
Q 2525 4250 2034 4250 
z
M 2034 4750 
Q 2819 4750 3233 4129 
Q 3647 3509 3647 2328 
Q 3647 1150 3233 529 
Q 2819 -91 2034 -91 
Q 1250 -91 836 529 
Q 422 1150 422 2328 
Q 422 3509 836 4129 
Q 1250 4750 2034 4750 
z
" transform="scale(0.015625)"/>
       </defs>
       <use xlink:href="#DejaVuSans-31" transform="translate(0 0.765625)"/>
       <use xlink:href="#DejaVuSans-30" transform="translate(63.623047 0.765625)"/>
       <use xlink:href="#DejaVuSans-30" transform="translate(128.203125 39.046875) scale(0.7)"/>
      </g>
     </g>
    </g>
    <g id="xtick_2">
     <g id="line2d_2">
      <g>
       <use xlink:href="#m3c76b7bb00" x="221.795758" y="234.78125" style="stroke: #000000; stroke-width: 0.8"/>
      </g>
     </g>
     <g id="text_2">
      <!-- $\mathdefault{10^{1}}$ -->
      <g transform="translate(209.475758 252.419063) scale(0.14 -0.14)">
       <use xlink:href="#DejaVuSans-31" transform="translate(0 0.684375)"/>
       <use xlink:href="#DejaVuSans-30" transform="translate(63.623047 0.684375)"/>
       <use xlink:href="#DejaVuSans-31" transform="translate(128.203125 38.965625) scale(0.7)"/>
      </g>
     </g>
    </g>
    <g id="xtick_3">
     <g id="line2d_3">
      <g>
       <use xlink:href="#m3c76b7bb00" x="351.044242" y="234.78125" style="stroke: #000000; stroke-width: 0.8"/>
      </g>
     </g>
     <g id="text_3">
      <!-- $\mathdefault{10^{2}}$ -->
      <g transform="translate(338.724242 252.419063) scale(0.14 -0.14)">
       <defs>
        <path id="DejaVuSans-32" d="M 1228 531 
L 3431 531 
L 3431 0 
L 469 0 
L 469 531 
Q 828 903 1448 1529 
Q 2069 2156 2228 2338 
Q 2531 2678 2651 2914 
Q 2772 3150 2772 3378 
Q 2772 3750 2511 3984 
Q 2250 4219 1831 4219 
Q 1534 4219 1204 4116 
Q 875 4013 500 3803 
L 500 4441 
Q 881 4594 1212 4672 
Q 1544 4750 1819 4750 
Q 2544 4750 2975 4387 
Q 3406 4025 3406 3419 
Q 3406 3131 3298 2873 
Q 3191 2616 2906 2266 
Q 2828 2175 2409 1742 
Q 1991 1309 1228 531 
z
" transform="scale(0.015625)"/>
       </defs>
       <use xlink:href="#DejaVuSans-31" transform="translate(0 0.765625)"/>
       <use xlink:href="#DejaVuSans-30" transform="translate(63.623047 0.765625)"/>
       <use xlink:href="#DejaVuSans-32" transform="translate(128.203125 39.046875) scale(0.7)"/>
      </g>
     </g>
    </g>
    <g id="xtick_4">
     <g id="line2d_4">
      <g>
       <use xlink:href="#m3c76b7bb00" x="480.292727" y="234.78125" style="stroke: #000000; stroke-width: 0.8"/>
      </g>
     </g>
     <g id="text_4">
      <!-- $\mathdefault{10^{3}}$ -->
      <g transform="translate(467.972727 252.419063) scale(0.14 -0.14)">
       <defs>
        <path id="DejaVuSans-33" d="M 2597 2516 
Q 3050 2419 3304 2112 
Q 3559 1806 3559 1356 
Q 3559 666 3084 287 
Q 2609 -91 1734 -91 
Q 1441 -91 1130 -33 
Q 819 25 488 141 
L 488 750 
Q 750 597 1062 519 
Q 1375 441 1716 441 
Q 2309 441 2620 675 
Q 2931 909 2931 1356 
Q 2931 1769 2642 2001 
Q 2353 2234 1838 2234 
L 1294 2234 
L 1294 2753 
L 1863 2753 
Q 2328 2753 2575 2939 
Q 2822 3125 2822 3475 
Q 2822 3834 2567 4026 
Q 2313 4219 1838 4219 
Q 1578 4219 1281 4162 
Q 984 4106 628 3988 
L 628 4550 
Q 988 4650 1302 4700 
Q 1616 4750 1894 4750 
Q 2613 4750 3031 4423 
Q 3450 4097 3450 3541 
Q 3450 3153 3228 2886 
Q 3006 2619 2597 2516 
z
" transform="scale(0.015625)"/>
       </defs>
       <use xlink:href="#DejaVuSans-31" transform="translate(0 0.765625)"/>
       <use xlink:href="#DejaVuSans-30" transform="translate(63.623047 0.765625)"/>
       <use xlink:href="#DejaVuSans-33" transform="translate(128.203125 39.046875) scale(0.7)"/>
      </g>
     </g>
    </g>
    <g id="xtick_5">
     <g id="line2d_5">
      <defs>
       <path id="ma0c33405ad" d="M 0 0 
L 0 2 
" style="stroke: #000000; stroke-width: 0.6"/>
      </defs>
      <g>
       <use xlink:href="#ma0c33405ad" x="80.0218" y="234.78125" style="stroke: #000000; stroke-width: 0.6"/>
      </g>
     </g>
    </g>
    <g id="xtick_6">
     <g id="line2d_6">
      <g>
       <use xlink:href="#ma0c33405ad" x="86.633186" y="234.78125" style="stroke: #000000; stroke-width: 0.6"/>
      </g>
     </g>
    </g>
    <g id="xtick_7">
     <g id="line2d_7">
      <g>
       <use xlink:href="#ma0c33405ad" x="131.454944" y="234.78125" style="stroke: #000000; stroke-width: 0.6"/>
      </g>
     </g>
    </g>
    <g id="xtick_8">
     <g id="line2d_8">
      <g>
       <use xlink:href="#ma0c33405ad" x="154.214472" y="234.78125" style="stroke: #000000; stroke-width: 0.6"/>
      </g>
     </g>
    </g>
    <g id="xtick_9">
     <g id="line2d_9">
      <g>
       <use xlink:href="#ma0c33405ad" x="170.362614" y="234.78125" style="stroke: #000000; stroke-width: 0.6"/>
      </g>
     </g>
    </g>
    <g id="xtick_10">
     <g id="line2d_10">
      <g>
       <use xlink:href="#ma0c33405ad" x="182.888087" y="234.78125" style="stroke: #000000; stroke-width: 0.6"/>
      </g>
     </g>
    </g>
    <g id="xtick_11">
     <g id="line2d_11">
      <g>
       <use xlink:href="#ma0c33405ad" x="193.122143" y="234.78125" style="stroke: #000000; stroke-width: 0.6"/>
      </g>
     </g>
    </g>
    <g id="xtick_12">
     <g id="line2d_12">
      <g>
       <use xlink:href="#ma0c33405ad" x="201.774914" y="234.78125" style="stroke: #000000; stroke-width: 0.6"/>
      </g>
     </g>
    </g>
    <g id="xtick_13">
     <g id="line2d_13">
      <g>
       <use xlink:href="#ma0c33405ad" x="209.270285" y="234.78125" style="stroke: #000000; stroke-width: 0.6"/>
      </g>
     </g>
    </g>
    <g id="xtick_14">
     <g id="line2d_14">
      <g>
       <use xlink:href="#ma0c33405ad" x="215.881671" y="234.78125" style="stroke: #000000; stroke-width: 0.6"/>
      </g>
     </g>
    </g>
    <g id="xtick_15">
     <g id="line2d_15">
      <g>
       <use xlink:href="#ma0c33405ad" x="260.703428" y="234.78125" style="stroke: #000000; stroke-width: 0.6"/>
      </g>
     </g>
    </g>
    <g id="xtick_16">
     <g id="line2d_16">
      <g>
       <use xlink:href="#ma0c33405ad" x="283.462957" y="234.78125" style="stroke: #000000; stroke-width: 0.6"/>
      </g>
     </g>
    </g>
    <g id="xtick_17">
     <g id="line2d_17">
      <g>
       <use xlink:href="#ma0c33405ad" x="299.611099" y="234.78125" style="stroke: #000000; stroke-width: 0.6"/>
      </g>
     </g>
    </g>
    <g id="xtick_18">
     <g id="line2d_18">
      <g>
       <use xlink:href="#ma0c33405ad" x="312.136572" y="234.78125" style="stroke: #000000; stroke-width: 0.6"/>
      </g>
     </g>
    </g>
    <g id="xtick_19">
     <g id="line2d_19">
      <g>
       <use xlink:href="#ma0c33405ad" x="322.370628" y="234.78125" style="stroke: #000000; stroke-width: 0.6"/>
      </g>
     </g>
    </g>
    <g id="xtick_20">
     <g id="line2d_20">
      <g>
       <use xlink:href="#ma0c33405ad" x="331.023399" y="234.78125" style="stroke: #000000; stroke-width: 0.6"/>
      </g>
     </g>
    </g>
    <g id="xtick_21">
     <g id="line2d_21">
      <g>
       <use xlink:href="#ma0c33405ad" x="338.51877" y="234.78125" style="stroke: #000000; stroke-width: 0.6"/>
      </g>
     </g>
    </g>
    <g id="xtick_22">
     <g id="line2d_22">
      <g>
       <use xlink:href="#ma0c33405ad" x="345.130156" y="234.78125" style="stroke: #000000; stroke-width: 0.6"/>
      </g>
     </g>
    </g>
    <g id="xtick_23">
     <g id="line2d_23">
      <g>
       <use xlink:href="#ma0c33405ad" x="389.951913" y="234.78125" style="stroke: #000000; stroke-width: 0.6"/>
      </g>
     </g>
    </g>
    <g id="xtick_24">
     <g id="line2d_24">
      <g>
       <use xlink:href="#ma0c33405ad" x="412.711442" y="234.78125" style="stroke: #000000; stroke-width: 0.6"/>
      </g>
     </g>
    </g>
    <g id="xtick_25">
     <g id="line2d_25">
      <g>
       <use xlink:href="#ma0c33405ad" x="428.859584" y="234.78125" style="stroke: #000000; stroke-width: 0.6"/>
      </g>
     </g>
    </g>
    <g id="xtick_26">
     <g id="line2d_26">
      <g>
       <use xlink:href="#ma0c33405ad" x="441.385056" y="234.78125" style="stroke: #000000; stroke-width: 0.6"/>
      </g>
     </g>
    </g>
    <g id="xtick_27">
     <g id="line2d_27">
      <g>
       <use xlink:href="#ma0c33405ad" x="451.619113" y="234.78125" style="stroke: #000000; stroke-width: 0.6"/>
      </g>
     </g>
    </g>
    <g id="xtick_28">
     <g id="line2d_28">
      <g>
       <use xlink:href="#ma0c33405ad" x="460.271884" y="234.78125" style="stroke: #000000; stroke-width: 0.6"/>
      </g>
     </g>
    </g>
    <g id="xtick_29">
     <g id="line2d_29">
      <g>
       <use xlink:href="#ma0c33405ad" x="467.767255" y="234.78125" style="stroke: #000000; stroke-width: 0.6"/>
      </g>
     </g>
    </g>
    <g id="xtick_30">
     <g id="line2d_30">
      <g>
       <use xlink:href="#ma0c33405ad" x="474.378641" y="234.78125" style="stroke: #000000; stroke-width: 0.6"/>
      </g>
     </g>
    </g>
    <g id="text_5">
     <!-- Iteration -->
     <g transform="translate(256.727969 269.968437) scale(0.14 -0.14)">
      <defs>
       <path id="DejaVuSans-49" d="M 628 4666 
L 1259 4666 
L 1259 0 
L 628 0 
L 628 4666 
z
" transform="scale(0.015625)"/>
       <path id="DejaVuSans-74" d="M 1172 4494 
L 1172 3500 
L 2356 3500 
L 2356 3053 
L 1172 3053 
L 1172 1153 
Q 1172 725 1289 603 
Q 1406 481 1766 481 
L 2356 481 
L 2356 0 
L 1766 0 
Q 1100 0 847 248 
Q 594 497 594 1153 
L 594 3053 
L 172 3053 
L 172 3500 
L 594 3500 
L 594 4494 
L 1172 4494 
z
" transform="scale(0.015625)"/>
       <path id="DejaVuSans-65" d="M 3597 1894 
L 3597 1613 
L 953 1613 
Q 991 1019 1311 708 
Q 1631 397 2203 397 
Q 2534 397 2845 478 
Q 3156 559 3463 722 
L 3463 178 
Q 3153 47 2828 -22 
Q 2503 -91 2169 -91 
Q 1331 -91 842 396 
Q 353 884 353 1716 
Q 353 2575 817 3079 
Q 1281 3584 2069 3584 
Q 2775 3584 3186 3129 
Q 3597 2675 3597 1894 
z
M 3022 2063 
Q 3016 2534 2758 2815 
Q 2500 3097 2075 3097 
Q 1594 3097 1305 2825 
Q 1016 2553 972 2059 
L 3022 2063 
z
" transform="scale(0.015625)"/>
       <path id="DejaVuSans-72" d="M 2631 2963 
Q 2534 3019 2420 3045 
Q 2306 3072 2169 3072 
Q 1681 3072 1420 2755 
Q 1159 2438 1159 1844 
L 1159 0 
L 581 0 
L 581 3500 
L 1159 3500 
L 1159 2956 
Q 1341 3275 1631 3429 
Q 1922 3584 2338 3584 
Q 2397 3584 2469 3576 
Q 2541 3569 2628 3553 
L 2631 2963 
z
" transform="scale(0.015625)"/>
       <path id="DejaVuSans-61" d="M 2194 1759 
Q 1497 1759 1228 1600 
Q 959 1441 959 1056 
Q 959 750 1161 570 
Q 1363 391 1709 391 
Q 2188 391 2477 730 
Q 2766 1069 2766 1631 
L 2766 1759 
L 2194 1759 
z
M 3341 1997 
L 3341 0 
L 2766 0 
L 2766 531 
Q 2569 213 2275 61 
Q 1981 -91 1556 -91 
Q 1019 -91 701 211 
Q 384 513 384 1019 
Q 384 1609 779 1909 
Q 1175 2209 1959 2209 
L 2766 2209 
L 2766 2266 
Q 2766 2663 2505 2880 
Q 2244 3097 1772 3097 
Q 1472 3097 1187 3025 
Q 903 2953 641 2809 
L 641 3341 
Q 956 3463 1253 3523 
Q 1550 3584 1831 3584 
Q 2591 3584 2966 3190 
Q 3341 2797 3341 1997 
z
" transform="scale(0.015625)"/>
       <path id="DejaVuSans-69" d="M 603 3500 
L 1178 3500 
L 1178 0 
L 603 0 
L 603 3500 
z
M 603 4863 
L 1178 4863 
L 1178 4134 
L 603 4134 
L 603 4863 
z
" transform="scale(0.015625)"/>
       <path id="DejaVuSans-6f" d="M 1959 3097 
Q 1497 3097 1228 2736 
Q 959 2375 959 1747 
Q 959 1119 1226 758 
Q 1494 397 1959 397 
Q 2419 397 2687 759 
Q 2956 1122 2956 1747 
Q 2956 2369 2687 2733 
Q 2419 3097 1959 3097 
z
M 1959 3584 
Q 2709 3584 3137 3096 
Q 3566 2609 3566 1747 
Q 3566 888 3137 398 
Q 2709 -91 1959 -91 
Q 1206 -91 779 398 
Q 353 888 353 1747 
Q 353 2609 779 3096 
Q 1206 3584 1959 3584 
z
" transform="scale(0.015625)"/>
       <path id="DejaVuSans-6e" d="M 3513 2113 
L 3513 0 
L 2938 0 
L 2938 2094 
Q 2938 2591 2744 2837 
Q 2550 3084 2163 3084 
Q 1697 3084 1428 2787 
Q 1159 2491 1159 1978 
L 1159 0 
L 581 0 
L 581 3500 
L 1159 3500 
L 1159 2956 
Q 1366 3272 1645 3428 
Q 1925 3584 2291 3584 
Q 2894 3584 3203 3211 
Q 3513 2838 3513 2113 
z
" transform="scale(0.015625)"/>
      </defs>
      <use xlink:href="#DejaVuSans-49"/>
      <use xlink:href="#DejaVuSans-74" x="29.492188"/>
      <use xlink:href="#DejaVuSans-65" x="68.701172"/>
      <use xlink:href="#DejaVuSans-72" x="130.224609"/>
      <use xlink:href="#DejaVuSans-61" x="171.337891"/>
      <use xlink:href="#DejaVuSans-74" x="232.617188"/>
      <use xlink:href="#DejaVuSans-69" x="271.826172"/>
      <use xlink:href="#DejaVuSans-6f" x="299.609375"/>
      <use xlink:href="#DejaVuSans-6e" x="360.791016"/>
     </g>
    </g>
   </g>
   <g id="matplotlib.axis_2">
    <g id="ytick_1">
     <g id="line2d_31">
      <defs>
       <path id="m4f793993cd" d="M 0 0 
L -3.5 0 
" style="stroke: #000000; stroke-width: 0.8"/>
      </defs>
      <g>
       <use xlink:href="#m4f793993cd" x="73.16" y="234.78125" style="stroke: #000000; stroke-width: 0.8"/>
      </g>
     </g>
     <g id="text_6">
      <!-- $\mathdefault{10^{-8}}$ -->
      <g transform="translate(33.26 240.100156) scale(0.14 -0.14)">
       <defs>
        <path id="DejaVuSans-2212" d="M 678 2272 
L 4684 2272 
L 4684 1741 
L 678 1741 
L 678 2272 
z
" transform="scale(0.015625)"/>
        <path id="DejaVuSans-38" d="M 2034 2216 
Q 1584 2216 1326 1975 
Q 1069 1734 1069 1313 
Q 1069 891 1326 650 
Q 1584 409 2034 409 
Q 2484 409 2743 651 
Q 3003 894 3003 1313 
Q 3003 1734 2745 1975 
Q 2488 2216 2034 2216 
z
M 1403 2484 
Q 997 2584 770 2862 
Q 544 3141 544 3541 
Q 544 4100 942 4425 
Q 1341 4750 2034 4750 
Q 2731 4750 3128 4425 
Q 3525 4100 3525 3541 
Q 3525 3141 3298 2862 
Q 3072 2584 2669 2484 
Q 3125 2378 3379 2068 
Q 3634 1759 3634 1313 
Q 3634 634 3220 271 
Q 2806 -91 2034 -91 
Q 1263 -91 848 271 
Q 434 634 434 1313 
Q 434 1759 690 2068 
Q 947 2378 1403 2484 
z
M 1172 3481 
Q 1172 3119 1398 2916 
Q 1625 2713 2034 2713 
Q 2441 2713 2670 2916 
Q 2900 3119 2900 3481 
Q 2900 3844 2670 4047 
Q 2441 4250 2034 4250 
Q 1625 4250 1398 4047 
Q 1172 3844 1172 3481 
z
" transform="scale(0.015625)"/>
       </defs>
       <use xlink:href="#DejaVuSans-31" transform="translate(0 0.765625)"/>
       <use xlink:href="#DejaVuSans-30" transform="translate(63.623047 0.765625)"/>
       <use xlink:href="#DejaVuSans-2212" transform="translate(128.203125 39.046875) scale(0.7)"/>
       <use xlink:href="#DejaVuSans-38" transform="translate(186.855469 39.046875) scale(0.7)"/>
      </g>
     </g>
    </g>
    <g id="ytick_2">
     <g id="line2d_32">
      <g>
       <use xlink:href="#m4f793993cd" x="73.16" y="194.976562" style="stroke: #000000; stroke-width: 0.8"/>
      </g>
     </g>
     <g id="text_7">
      <!-- $\mathdefault{10^{-6}}$ -->
      <g transform="translate(33.26 200.295469) scale(0.14 -0.14)">
       <defs>
        <path id="DejaVuSans-36" d="M 2113 2584 
Q 1688 2584 1439 2293 
Q 1191 2003 1191 1497 
Q 1191 994 1439 701 
Q 1688 409 2113 409 
Q 2538 409 2786 701 
Q 3034 994 3034 1497 
Q 3034 2003 2786 2293 
Q 2538 2584 2113 2584 
z
M 3366 4563 
L 3366 3988 
Q 3128 4100 2886 4159 
Q 2644 4219 2406 4219 
Q 1781 4219 1451 3797 
Q 1122 3375 1075 2522 
Q 1259 2794 1537 2939 
Q 1816 3084 2150 3084 
Q 2853 3084 3261 2657 
Q 3669 2231 3669 1497 
Q 3669 778 3244 343 
Q 2819 -91 2113 -91 
Q 1303 -91 875 529 
Q 447 1150 447 2328 
Q 447 3434 972 4092 
Q 1497 4750 2381 4750 
Q 2619 4750 2861 4703 
Q 3103 4656 3366 4563 
z
" transform="scale(0.015625)"/>
       </defs>
       <use xlink:href="#DejaVuSans-31" transform="translate(0 0.765625)"/>
       <use xlink:href="#DejaVuSans-30" transform="translate(63.623047 0.765625)"/>
       <use xlink:href="#DejaVuSans-2212" transform="translate(128.203125 39.046875) scale(0.7)"/>
       <use xlink:href="#DejaVuSans-36" transform="translate(186.855469 39.046875) scale(0.7)"/>
      </g>
     </g>
    </g>
    <g id="ytick_3">
     <g id="line2d_33">
      <g>
       <use xlink:href="#m4f793993cd" x="73.16" y="155.171875" style="stroke: #000000; stroke-width: 0.8"/>
      </g>
     </g>
     <g id="text_8">
      <!-- $\mathdefault{10^{-4}}$ -->
      <g transform="translate(33.26 160.490781) scale(0.14 -0.14)">
       <defs>
        <path id="DejaVuSans-34" d="M 2419 4116 
L 825 1625 
L 2419 1625 
L 2419 4116 
z
M 2253 4666 
L 3047 4666 
L 3047 1625 
L 3713 1625 
L 3713 1100 
L 3047 1100 
L 3047 0 
L 2419 0 
L 2419 1100 
L 313 1100 
L 313 1709 
L 2253 4666 
z
" transform="scale(0.015625)"/>
       </defs>
       <use xlink:href="#DejaVuSans-31" transform="translate(0 0.684375)"/>
       <use xlink:href="#DejaVuSans-30" transform="translate(63.623047 0.684375)"/>
       <use xlink:href="#DejaVuSans-2212" transform="translate(128.203125 38.965625) scale(0.7)"/>
       <use xlink:href="#DejaVuSans-34" transform="translate(186.855469 38.965625) scale(0.7)"/>
      </g>
     </g>
    </g>
    <g id="ytick_4">
     <g id="line2d_34">
      <g>
       <use xlink:href="#m4f793993cd" x="73.16" y="115.367187" style="stroke: #000000; stroke-width: 0.8"/>
      </g>
     </g>
     <g id="text_9">
      <!-- $\mathdefault{10^{-2}}$ -->
      <g transform="translate(33.26 120.686094) scale(0.14 -0.14)">
       <use xlink:href="#DejaVuSans-31" transform="translate(0 0.765625)"/>
       <use xlink:href="#DejaVuSans-30" transform="translate(63.623047 0.765625)"/>
       <use xlink:href="#DejaVuSans-2212" transform="translate(128.203125 39.046875) scale(0.7)"/>
       <use xlink:href="#DejaVuSans-32" transform="translate(186.855469 39.046875) scale(0.7)"/>
      </g>
     </g>
    </g>
    <g id="ytick_5">
     <g id="line2d_35">
      <g>
       <use xlink:href="#m4f793993cd" x="73.16" y="75.5625" style="stroke: #000000; stroke-width: 0.8"/>
      </g>
     </g>
     <g id="text_10">
      <!-- $\mathdefault{10^{0}}$ -->
      <g transform="translate(41.52 80.881406) scale(0.14 -0.14)">
       <use xlink:href="#DejaVuSans-31" transform="translate(0 0.765625)"/>
       <use xlink:href="#DejaVuSans-30" transform="translate(63.623047 0.765625)"/>
       <use xlink:href="#DejaVuSans-30" transform="translate(128.203125 39.046875) scale(0.7)"/>
      </g>
     </g>
    </g>
    <g id="ytick_6">
     <g id="line2d_36">
      <g>
       <use xlink:href="#m4f793993cd" x="73.16" y="35.757812" style="stroke: #000000; stroke-width: 0.8"/>
      </g>
     </g>
     <g id="text_11">
      <!-- $\mathdefault{10^{2}}$ -->
      <g transform="translate(41.52 41.076719) scale(0.14 -0.14)">
       <use xlink:href="#DejaVuSans-31" transform="translate(0 0.765625)"/>
       <use xlink:href="#DejaVuSans-30" transform="translate(63.623047 0.765625)"/>
       <use xlink:href="#DejaVuSans-32" transform="translate(128.203125 39.046875) scale(0.7)"/>
      </g>
     </g>
    </g>
    <g id="text_12">
     <!-- $||F_{FB}||_{2}$ -->
     <g transform="translate(25.9 158.509531) rotate(-90) scale(0.14 -0.14)">
      <defs>
       <path id="DejaVuSans-7c" d="M 1344 4891 
L 1344 -1509 
L 813 -1509 
L 813 4891 
L 1344 4891 
z
" transform="scale(0.015625)"/>
       <path id="DejaVuSans-Oblique-46" d="M 1081 4666 
L 3756 4666 
L 3653 4134 
L 1606 4134 
L 1338 2759 
L 3188 2759 
L 3084 2228 
L 1234 2228 
L 800 0 
L 172 0 
L 1081 4666 
z
" transform="scale(0.015625)"/>
       <path id="DejaVuSans-Oblique-42" d="M 1081 4666 
L 2694 4666 
Q 3350 4666 3675 4422 
Q 4000 4178 4000 3688 
Q 4000 3238 3720 2911 
Q 3441 2584 2988 2516 
Q 3375 2428 3569 2181 
Q 3763 1934 3763 1522 
Q 3763 819 3242 409 
Q 2722 0 1819 0 
L 172 0 
L 1081 4666 
z
M 1234 2228 
L 903 519 
L 1919 519 
Q 2491 519 2800 781 
Q 3109 1044 3109 1522 
Q 3109 1891 2904 2059 
Q 2700 2228 2247 2228 
L 1234 2228 
z
M 1606 4147 
L 1331 2741 
L 2272 2741 
Q 2775 2741 3058 2959 
Q 3341 3178 3341 3566 
Q 3341 3869 3150 4008 
Q 2959 4147 2541 4147 
L 1606 4147 
z
" transform="scale(0.015625)"/>
      </defs>
      <use xlink:href="#DejaVuSans-7c" transform="translate(0 0.578125)"/>
      <use xlink:href="#DejaVuSans-7c" transform="translate(33.691406 0.578125)"/>
      <use xlink:href="#DejaVuSans-Oblique-46" transform="translate(67.382812 0.578125)"/>
      <use xlink:href="#DejaVuSans-Oblique-46" transform="translate(124.902344 -15.828125) scale(0.7)"/>
      <use xlink:href="#DejaVuSans-Oblique-42" transform="translate(165.166016 -15.828125) scale(0.7)"/>
      <use xlink:href="#DejaVuSans-7c" transform="translate(215.922852 0.578125)"/>
      <use xlink:href="#DejaVuSans-7c" transform="translate(249.614258 0.578125)"/>
      <use xlink:href="#DejaVuSans-32" transform="translate(284.262695 -15.828125) scale(0.7)"/>
     </g>
    </g>
   </g>
   <g id="line2d_37">
    <path d="M -1 53.593842 
L 92.547273 53.598171 
L 131.454944 59.321607 
L 154.214472 59.358921 
L 170.362614 66.680462 
L 182.888087 68.057838 
L 193.122143 68.025843 
L 201.774914 72.400472 
L 209.270285 74.484266 
L 215.881671 72.952436 
L 221.795758 73.244096 
L 227.145699 72.471414 
L 232.029814 76.137042 
L 236.522763 85.317026 
L 240.682585 84.907504 
L 244.555286 86.916733 
L 248.177956 88.943225 
L 251.580931 80.605612 
L 254.789342 89.275189 
L 257.824238 79.912434 
L 260.703428 90.495342 
L 263.442113 86.403139 
L 266.05337 88.739325 
L 268.548532 81.059424 
L 270.937484 90.139042 
L 273.228901 94.79582 
L 275.430434 95.067102 
L 277.548871 94.882086 
L 279.590256 96.418043 
L 285.303512 98.08314 
L 290.488602 99.253725 
L 293.697013 100.234779 
L 295.234969 100.528406 
L 296.731909 101.216056 
L 298.189962 101.521436 
L 303.670596 103.51399 
L 308.663387 105.041537 
L 315.407316 107.368337 
L 318.497926 108.449138 
L 323.298449 110.36128 
L 331.819609 114.30293 
L 334.14264 115.558475 
L 335.63958 116.369832 
L 341.921746 120.112367 
L 343.227197 121.126144 
L 344.502977 122.003094 
L 346.363874 123.292531 
L 347.571058 124.179221 
L 348.165052 124.64415 
L 353.782927 126.593966 
L 355.364212 127.41927 
L 357.405597 128.188728 
L 358.399108 129.647431 
L 360.808573 130.55787 
L 361.278299 130.6792 
L 361.744126 131.08606 
L 364.460716 132.425637 
L 364.900969 133.550537 
L 365.337795 134.261887 
L 365.771248 134.42604 
L 366.62824 135.148089 
L 367.889685 135.838336 
L 369.123402 136.339143 
L 369.528689 136.665052 
L 369.93107 136.844708 
L 370.72728 137.780259 
L 373.050311 138.777694 
L 373.803771 140.306587 
L 376.005304 141.511347 
L 376.72037 142.450338 
L 378.812484 143.490718 
L 379.492879 145.19432 
L 380.829416 145.901402 
L 381.485937 146.920888 
L 383.410648 148.09414 
L 384.037827 149.494288 
L 384.348808 149.630999 
L 385.575784 150.552637 
L 386.478729 151.115619 
L 387.072723 151.702126 
L 388.530776 152.774112 
L 389.387769 153.725819 
L 389.951913 154.140111 
L 390.510444 155.441995 
L 391.337957 156.015173 
L 391.882931 156.953978 
L 392.422665 157.708782 
L 393.749722 158.649 
L 394.271883 159.971509 
L 394.789231 160.532003 
L 395.80984 161.407934 
L 396.313268 162.947603 
L 397.306779 163.706228 
L 398.283011 164.699992 
L 398.524439 164.794369 
L 399.004201 165.328021 
L 399.716244 166.02201 
L 400.185969 166.719385 
L 401.572013 168.450094 
L 402.026525 169.092772 
L 402.924654 169.971007 
L 403.368387 171.30108 
L 403.588945 171.419589 
L 404.027478 172.004332 
L 404.245466 172.202272 
L 404.462611 172.562152 
L 404.678919 172.66867 
L 405.109051 173.745132 
L 405.74813 174.49129 
L 407.417604 176.483332 
L 407.827327 176.888685 
L 409.038854 178.149135 
L 409.634951 179.27181 
L 410.028861 179.758168 
L 410.420025 180.171216 
L 410.808483 181.969954 
L 411.001708 182.096442 
L 411.386175 183.116675 
L 411.577425 183.255672 
L 412.147297 184.138939 
L 412.711442 184.811616 
L 413.269973 185.322843 
L 413.639263 186.733912 
L 413.823001 186.856881 
L 414.551997 187.950853 
L 414.732776 188.06642 
L 415.092597 188.583754 
L 415.628041 189.245933 
L 415.982186 190.288306 
L 417.031411 191.674024 
L 417.37684 192.968551 
L 417.54876 193.145175 
L 418.231223 194.449319 
L 418.40055 194.572456 
L 418.73768 195.235043 
L 418.905488 195.352025 
L 419.239608 195.930642 
L 419.405925 196.071273 
L 419.737087 196.587813 
L 420.230196 197.225068 
L 420.881008 198.151127 
L 424.483454 203.362502 
L 425.535489 205.012433 
L 428.859584 210.194569 
L 432.130329 214.227671 
L 434.081808 215.916495 
L 435.843941 217.064347 
L 438.031175 218.20204 
L 440.707399 219.325498 
L 444.016721 220.458817 
L 448.046315 221.595882 
L 453.096353 222.78135 
L 459.382807 224.019916 
L 467.273939 225.337705 
L 479.44437 227.330582 
L 480.292727 227.485985 
L 480.292727 227.485985 
" clip-path="url(#p1cb019fe7e)" style="fill: none; stroke: #1f77b4; stroke-linecap: square"/>
   </g>
   <g id="line2d_38">
    <path d="M -1 55.14666 
L 92.547273 55.151636 
L 131.454944 61.856199 
L 154.214472 62.786693 
L 170.362614 68.44615 
L 182.888087 72.19301 
L 193.122143 73.375736 
L 201.774914 78.852824 
L 209.270285 81.716005 
L 232.029814 86.589721 
L 236.522763 88.297943 
L 240.682585 88.533357 
L 244.555286 90.116615 
L 248.177956 90.5793 
L 251.580931 91.470191 
L 254.789342 92.628488 
L 257.824238 93.188533 
L 260.703428 93.840205 
L 263.442113 94.747428 
L 266.05337 95.860941 
L 268.548532 96.227809 
L 270.937484 97.129341 
L 273.228901 97.50648 
L 275.430434 98.273851 
L 277.548871 98.563088 
L 279.590256 98.962022 
L 281.559998 99.973564 
L 283.462957 100.59061 
L 285.303512 100.996377 
L 287.085627 101.255605 
L 288.812899 101.167578 
L 290.488602 101.886821 
L 292.115728 102.188408 
L 296.731909 103.726655 
L 299.611099 105.163 
L 300.997143 105.569421 
L 302.349784 106.316545 
L 309.845155 108.683116 
L 311.002555 109.143471 
L 315.407316 111.289669 
L 318.497926 112.519407 
L 321.427212 114.31013 
L 324.211183 116.128718 
L 326.863577 117.392799 
L 327.72057 117.797632 
L 328.564674 118.7429 
L 329.396273 119.493053 
L 334.14264 122.102837 
L 337.097633 124.092426 
L 339.904813 126.419779 
L 342.578266 128.216646 
L 345.130156 130.195068 
L 347.571058 132.788678 
L 348.165052 132.921906 
L 348.752826 133.762367 
L 349.334509 134.292833 
L 350.480098 135.637763 
L 351.044242 136.11101 
L 353.245776 139.087754 
L 355.881561 140.552345 
L 356.902169 141.293624 
L 359.37534 143.97834 
L 360.808573 146.264329 
L 361.744126 147.527209 
L 362.20612 148.201912 
L 364.900969 151.075559 
L 365.771248 152.730932 
L 369.123402 157.007313 
L 369.528689 157.660914 
L 370.330587 159.993388 
L 371.512355 162.216116 
L 371.900812 162.793554 
L 372.669754 164.601464 
L 373.428305 166.045896 
L 374.176742 167.019882 
L 376.363976 170.814745 
L 377.426441 173.308743 
L 378.123741 174.31806 
L 378.812484 174.477724 
L 379.153713 174.847842 
L 381.485937 178.639543 
L 382.134868 180.27206 
L 384.348808 184.884721 
L 384.965648 185.954504 
L 385.878382 187.808377 
L 386.478729 188.60234 
L 386.776512 189.015324 
L 387.072723 189.899708 
L 387.660497 190.845946 
L 388.24218 193.478434 
L 391.337957 199.774778 
L 397.060045 213.753981 
L 397.306779 214.030993 
L 397.552433 214.858964 
L 397.797017 215.142363 
L 398.283011 216.192571 
L 399.004201 217.503168 
L 399.951598 218.78174 
L 401.113791 219.986335 
L 402.477386 221.094307 
L 404.245466 222.234554 
L 404.678919 222.494935 
L 404.894397 222.772641 
L 411.194271 225.023252 
L 414.912975 226.15494 
L 422.002082 228.00889 
L 428.29544 229.217787 
L 436.826581 230.827914 
L 446.325275 232.865897 
L 453.55013 234.62951 
L 458.644758 236.072066 
L 462.008874 237.198811 
L 464.368665 237.981987 
L 470.439076 240.094262 
L 476.219196 242.3389 
L 480.292727 244.094049 
L 480.292727 244.094049 
" clip-path="url(#p1cb019fe7e)" style="fill: none; stroke: #ff7f0e; stroke-linecap: square"/>
   </g>
   <g id="line2d_39">
    <path d="M -1 55.959132 
L 92.547273 55.964281 
L 131.454944 63.282527 
L 154.214472 67.202221 
L 170.362614 71.337061 
L 182.888087 75.412198 
L 193.122143 78.303154 
L 201.774914 81.912393 
L 209.270285 84.12192 
L 215.881671 86.51563 
L 236.522763 93.472246 
L 240.682585 94.414295 
L 254.789342 99.553198 
L 257.824238 101.222133 
L 260.703428 102.024813 
L 263.442113 103.026291 
L 268.548532 105.667349 
L 270.937484 107.393136 
L 275.430434 110.285588 
L 283.462957 115.690758 
L 285.303512 117.020227 
L 287.085627 118.927716 
L 288.812899 119.661921 
L 290.488602 121.463072 
L 292.115728 122.741356 
L 293.697013 123.807814 
L 296.731909 126.510949 
L 298.189962 127.900306 
L 299.611099 129.497854 
L 300.997143 130.646502 
L 302.349784 132.537904 
L 304.961041 135.014587 
L 306.222485 135.836836 
L 308.663387 138.861988 
L 309.845155 140.889007 
L 311.002555 142.648111 
L 312.136572 143.860239 
L 313.248131 145.399476 
L 314.338105 147.636036 
L 315.407316 148.61875 
L 316.456541 149.87495 
L 317.486513 151.491904 
L 318.497926 152.710903 
L 319.491437 154.731579 
L 320.467669 155.970771 
L 321.427212 157.852514 
L 322.370628 159.093406 
L 323.298449 160.753586 
L 325.109312 163.620929 
L 326.863577 167.521794 
L 327.72057 168.921488 
L 328.564674 169.617448 
L 329.396273 172.075667 
L 331.023399 174.303734 
L 331.819609 176.252758 
L 332.604684 177.341661 
L 333.378929 179.906737 
L 334.14264 181.604827 
L 334.8961 182.682753 
L 335.63958 184.618654 
L 337.097633 186.696334 
L 337.812699 188.763041 
L 338.51877 189.633511 
L 341.921746 197.578116 
L 342.578266 198.525653 
L 343.868712 201.777581 
L 344.502977 202.908641 
L 345.750404 206.180137 
L 346.363874 207.247398 
L 347.571058 210.984153 
L 348.165052 212.270551 
L 350.480098 218.945534 
L 351.044242 220.228584 
L 351.602773 220.878511 
L 352.155802 222.716031 
L 352.703434 223.031785 
L 356.394184 226.712487 
L 356.902169 227.49238 
L 360.334883 229.500738 
L 363.569715 230.692969 
L 367.472345 231.856632 
L 372.2866 233.042481 
L 379.492879 234.541733 
L 387.367379 236.299722 
L 393.486809 237.863869 
L 400.185969 239.780966 
L 406.589073 241.83806 
L 412.524023 243.978017 
L 417.891029 246.118565 
L 423.411325 248.55835 
L 427.582191 250.623053 
L 432.52609 253.197471 
L 441.832325 258.887013 
L 446.427986 262.041666 
L 450.865653 265.362218 
L 453.640447 267.660923 
L 462.39626 275.714599 
L 466.418036 279.851315 
L 470.30511 284.146563 
L 474.316237 288.940246 
L 474.36415 289 
L 474.36415 289 
" clip-path="url(#p1cb019fe7e)" style="fill: none; stroke: #2ca02c; stroke-linecap: square"/>
   </g>
   <g id="line2d_40">
    <path d="M -1 56.607544 
L 92.547273 56.612946 
L 131.454944 64.37561 
L 170.362614 73.640219 
L 193.122143 80.748287 
L 201.774914 84.102501 
L 215.881671 89.085371 
L 221.795758 91.95844 
L 227.145699 93.805594 
L 232.029814 95.805951 
L 236.522763 98.038684 
L 240.682585 100.303302 
L 244.555286 101.948893 
L 254.789342 108.812378 
L 257.824238 111.446425 
L 268.548532 118.319733 
L 270.937484 120.469731 
L 273.228901 121.868567 
L 275.430434 124.706591 
L 277.548871 125.943964 
L 279.590256 129.295115 
L 281.559998 131.487687 
L 283.462957 134.034964 
L 285.303512 134.846191 
L 287.085627 136.872347 
L 288.812899 137.851241 
L 290.488602 139.690677 
L 293.697013 142.526659 
L 296.731909 147.128731 
L 298.189962 148.724596 
L 299.611099 149.821344 
L 300.997143 152.36836 
L 302.349784 154.132391 
L 306.222485 162.975868 
L 307.456203 163.867434 
L 308.663387 166.589092 
L 309.845155 167.4724 
L 311.002555 169.743096 
L 312.136572 171.293418 
L 313.248131 173.512538 
L 314.338105 176.831978 
L 315.407316 178.898301 
L 316.456541 180.342609 
L 317.486513 182.602003 
L 318.497926 183.945575 
L 319.491437 187.354553 
L 320.467669 188.89989 
L 324.211183 196.457438 
L 325.109312 198.923417 
L 325.993298 200.090902 
L 326.863577 202.763398 
L 327.72057 204.02234 
L 329.396273 208.415603 
L 331.023399 211.150951 
L 331.819609 213.932297 
L 332.604684 214.932553 
L 333.378929 217.240181 
L 334.14264 218.870574 
L 334.8961 219.769235 
L 335.63958 221.853719 
L 336.373341 222.849263 
L 337.097633 223.39702 
L 337.812699 224.648586 
L 338.51877 225.133596 
L 339.904813 226.462333 
L 341.257455 227.504114 
L 343.227197 228.700134 
L 348.752826 231.155701 
L 352.155802 232.270471 
L 356.902169 233.510411 
L 367.472345 235.898236 
L 376.005304 237.825743 
L 382.776383 239.642296 
L 389.387769 241.643847 
L 396.313268 243.974272 
L 402.252408 246.192147 
L 407.827327 248.510623 
L 412.524023 250.683456 
L 417.54876 253.267955 
L 422.475772 256.056353 
L 427.149851 258.95646 
L 431.731757 262.062417 
L 436.091218 265.281966 
L 440.365478 268.713595 
L 444.549792 272.363628 
L 448.542622 276.140579 
L 452.454839 280.144263 
L 456.28451 284.38225 
L 460.030801 288.865967 
L 460.138402 289 
L 460.138402 289 
" clip-path="url(#p1cb019fe7e)" style="fill: none; stroke: #d62728; stroke-linecap: square"/>
   </g>
   <g id="line2d_41">
    <path d="M -1 58.651852 
L 92.547273 58.657902 
L 131.454944 68.182502 
L 154.214472 75.646097 
L 170.362614 81.625025 
L 182.888087 87.096688 
L 193.122143 92.116125 
L 201.774914 96.781694 
L 209.270285 102.678292 
L 221.795758 113.91234 
L 227.145699 118.254217 
L 232.029814 123.681395 
L 236.522763 129.452801 
L 240.682585 134.19958 
L 244.555286 139.942482 
L 248.177956 145.638215 
L 251.580931 151.215946 
L 257.824238 162.507468 
L 260.703428 168.577608 
L 270.937484 191.631544 
L 273.228901 196.430414 
L 275.430434 202.701821 
L 277.548871 207.960047 
L 285.303512 229.445937 
L 287.085627 233.394709 
L 288.812899 235.405711 
L 290.488602 236.690055 
L 293.697013 238.546152 
L 296.731909 239.753218 
L 312.136572 245.037534 
L 324.211183 249.910497 
L 334.14264 254.519963 
L 337.812699 256.477729 
L 339.904813 257.632304 
L 346.970711 261.971727 
L 355.881561 268.420341 
L 361.744126 273.143629 
L 366.62824 277.591045 
L 370.330587 281.244149 
L 371.512355 282.438825 
L 374.547251 285.702395 
L 377.369079 289 
L 377.369079 289 
" clip-path="url(#p1cb019fe7e)" style="fill: none; stroke: #9467bd; stroke-linecap: square"/>
   </g>
   <g id="patch_3">
    <path d="M 73.16 234.78125 
L 73.16 35.757812 
" style="fill: none; stroke: #000000; stroke-width: 0.8; stroke-linejoin: miter; stroke-linecap: square"/>
   </g>
   <g id="patch_4">
    <path d="M 499.68 234.78125 
L 499.68 35.757812 
" style="fill: none; stroke: #000000; stroke-width: 0.8; stroke-linejoin: miter; stroke-linecap: square"/>
   </g>
   <g id="patch_5">
    <path d="M 73.16 234.78125 
L 499.68 234.78125 
" style="fill: none; stroke: #000000; stroke-width: 0.8; stroke-linejoin: miter; stroke-linecap: square"/>
   </g>
   <g id="patch_6">
    <path d="M 73.16 35.757812 
L 499.68 35.757812 
" style="fill: none; stroke: #000000; stroke-width: 0.8; stroke-linejoin: miter; stroke-linecap: square"/>
   </g>
   <g id="text_13">
    <!-- 2-Norm of $F_{FB}$ over iterations -->
    <g transform="translate(185.34 25.757812) scale(0.14 -0.14)">
     <defs>
      <path id="DejaVuSans-2d" d="M 313 2009 
L 1997 2009 
L 1997 1497 
L 313 1497 
L 313 2009 
z
" transform="scale(0.015625)"/>
      <path id="DejaVuSans-4e" d="M 628 4666 
L 1478 4666 
L 3547 763 
L 3547 4666 
L 4159 4666 
L 4159 0 
L 3309 0 
L 1241 3903 
L 1241 0 
L 628 0 
L 628 4666 
z
" transform="scale(0.015625)"/>
      <path id="DejaVuSans-6d" d="M 3328 2828 
Q 3544 3216 3844 3400 
Q 4144 3584 4550 3584 
Q 5097 3584 5394 3201 
Q 5691 2819 5691 2113 
L 5691 0 
L 5113 0 
L 5113 2094 
Q 5113 2597 4934 2840 
Q 4756 3084 4391 3084 
Q 3944 3084 3684 2787 
Q 3425 2491 3425 1978 
L 3425 0 
L 2847 0 
L 2847 2094 
Q 2847 2600 2669 2842 
Q 2491 3084 2119 3084 
Q 1678 3084 1418 2786 
Q 1159 2488 1159 1978 
L 1159 0 
L 581 0 
L 581 3500 
L 1159 3500 
L 1159 2956 
Q 1356 3278 1631 3431 
Q 1906 3584 2284 3584 
Q 2666 3584 2933 3390 
Q 3200 3197 3328 2828 
z
" transform="scale(0.015625)"/>
      <path id="DejaVuSans-20" transform="scale(0.015625)"/>
      <path id="DejaVuSans-66" d="M 2375 4863 
L 2375 4384 
L 1825 4384 
Q 1516 4384 1395 4259 
Q 1275 4134 1275 3809 
L 1275 3500 
L 2222 3500 
L 2222 3053 
L 1275 3053 
L 1275 0 
L 697 0 
L 697 3053 
L 147 3053 
L 147 3500 
L 697 3500 
L 697 3744 
Q 697 4328 969 4595 
Q 1241 4863 1831 4863 
L 2375 4863 
z
" transform="scale(0.015625)"/>
      <path id="DejaVuSans-76" d="M 191 3500 
L 800 3500 
L 1894 563 
L 2988 3500 
L 3597 3500 
L 2284 0 
L 1503 0 
L 191 3500 
z
" transform="scale(0.015625)"/>
      <path id="DejaVuSans-73" d="M 2834 3397 
L 2834 2853 
Q 2591 2978 2328 3040 
Q 2066 3103 1784 3103 
Q 1356 3103 1142 2972 
Q 928 2841 928 2578 
Q 928 2378 1081 2264 
Q 1234 2150 1697 2047 
L 1894 2003 
Q 2506 1872 2764 1633 
Q 3022 1394 3022 966 
Q 3022 478 2636 193 
Q 2250 -91 1575 -91 
Q 1294 -91 989 -36 
Q 684 19 347 128 
L 347 722 
Q 666 556 975 473 
Q 1284 391 1588 391 
Q 1994 391 2212 530 
Q 2431 669 2431 922 
Q 2431 1156 2273 1281 
Q 2116 1406 1581 1522 
L 1381 1569 
Q 847 1681 609 1914 
Q 372 2147 372 2553 
Q 372 3047 722 3315 
Q 1072 3584 1716 3584 
Q 2034 3584 2315 3537 
Q 2597 3491 2834 3397 
z
" transform="scale(0.015625)"/>
     </defs>
     <use xlink:href="#DejaVuSans-32" transform="translate(0 0.015625)"/>
     <use xlink:href="#DejaVuSans-2d" transform="translate(63.623047 0.015625)"/>
     <use xlink:href="#DejaVuSans-4e" transform="translate(99.707031 0.015625)"/>
     <use xlink:href="#DejaVuSans-6f" transform="translate(174.511719 0.015625)"/>
     <use xlink:href="#DejaVuSans-72" transform="translate(235.693359 0.015625)"/>
     <use xlink:href="#DejaVuSans-6d" transform="translate(276.806641 0.015625)"/>
     <use xlink:href="#DejaVuSans-20" transform="translate(374.21875 0.015625)"/>
     <use xlink:href="#DejaVuSans-6f" transform="translate(406.005859 0.015625)"/>
     <use xlink:href="#DejaVuSans-66" transform="translate(467.1875 0.015625)"/>
     <use xlink:href="#DejaVuSans-20" transform="translate(502.392578 0.015625)"/>
     <use xlink:href="#DejaVuSans-Oblique-46" transform="translate(534.179688 0.015625)"/>
     <use xlink:href="#DejaVuSans-Oblique-46" transform="translate(591.699219 -16.390625) scale(0.7)"/>
     <use xlink:href="#DejaVuSans-Oblique-42" transform="translate(631.962891 -16.390625) scale(0.7)"/>
     <use xlink:href="#DejaVuSans-20" transform="translate(682.719727 0.015625)"/>
     <use xlink:href="#DejaVuSans-6f" transform="translate(714.506836 0.015625)"/>
     <use xlink:href="#DejaVuSans-76" transform="translate(775.688477 0.015625)"/>
     <use xlink:href="#DejaVuSans-65" transform="translate(834.868164 0.015625)"/>
     <use xlink:href="#DejaVuSans-72" transform="translate(896.391602 0.015625)"/>
     <use xlink:href="#DejaVuSans-20" transform="translate(937.504883 0.015625)"/>
     <use xlink:href="#DejaVuSans-69" transform="translate(969.291992 0.015625)"/>
     <use xlink:href="#DejaVuSans-74" transform="translate(997.075195 0.015625)"/>
     <use xlink:href="#DejaVuSans-65" transform="translate(1036.28418 0.015625)"/>
     <use xlink:href="#DejaVuSans-72" transform="translate(1097.807617 0.015625)"/>
     <use xlink:href="#DejaVuSans-61" transform="translate(1138.920898 0.015625)"/>
     <use xlink:href="#DejaVuSans-74" transform="translate(1200.200195 0.015625)"/>
     <use xlink:href="#DejaVuSans-69" transform="translate(1239.40918 0.015625)"/>
     <use xlink:href="#DejaVuSans-6f" transform="translate(1267.192383 0.015625)"/>
     <use xlink:href="#DejaVuSans-6e" transform="translate(1328.374023 0.015625)"/>
     <use xlink:href="#DejaVuSans-73" transform="translate(1391.75293 0.015625)"/>
    </g>
   </g>
   <g id="legend_1">
    <g id="patch_7">
     <path d="M 391.41 133.426562 
L 491.28 133.426562 
Q 493.68 133.426562 493.68 131.026562 
L 493.68 44.157812 
Q 493.68 41.757812 491.28 41.757812 
L 391.41 41.757812 
Q 389.01 41.757812 389.01 44.157812 
L 389.01 131.026562 
Q 389.01 133.426562 391.41 133.426562 
z
" style="fill: #ffffff; opacity: 0.8; stroke: #cccccc; stroke-linejoin: miter"/>
    </g>
    <g id="line2d_42">
     <path d="M 393.81 51.475937 
L 405.81 51.475937 
L 417.81 51.475937 
" style="fill: none; stroke: #1f77b4; stroke-linecap: square"/>
    </g>
    <g id="text_14">
     <!-- max -->
     <g transform="translate(427.41 55.675937) scale(0.12 -0.12)">
      <defs>
       <path id="DejaVuSans-78" d="M 3513 3500 
L 2247 1797 
L 3578 0 
L 2900 0 
L 1881 1375 
L 863 0 
L 184 0 
L 1544 1831 
L 300 3500 
L 978 3500 
L 1906 2253 
L 2834 3500 
L 3513 3500 
z
" transform="scale(0.015625)"/>
      </defs>
      <use xlink:href="#DejaVuSans-6d"/>
      <use xlink:href="#DejaVuSans-61" x="97.412109"/>
      <use xlink:href="#DejaVuSans-78" x="158.691406"/>
     </g>
    </g>
    <g id="line2d_43">
     <path d="M 393.81 69.089687 
L 405.81 69.089687 
L 417.81 69.089687 
" style="fill: none; stroke: #ff7f0e; stroke-linecap: square"/>
    </g>
    <g id="text_15">
     <!-- 99th perc. -->
     <g transform="translate(427.41 73.289687) scale(0.12 -0.12)">
      <defs>
       <path id="DejaVuSans-39" d="M 703 97 
L 703 672 
Q 941 559 1184 500 
Q 1428 441 1663 441 
Q 2288 441 2617 861 
Q 2947 1281 2994 2138 
Q 2813 1869 2534 1725 
Q 2256 1581 1919 1581 
Q 1219 1581 811 2004 
Q 403 2428 403 3163 
Q 403 3881 828 4315 
Q 1253 4750 1959 4750 
Q 2769 4750 3195 4129 
Q 3622 3509 3622 2328 
Q 3622 1225 3098 567 
Q 2575 -91 1691 -91 
Q 1453 -91 1209 -44 
Q 966 3 703 97 
z
M 1959 2075 
Q 2384 2075 2632 2365 
Q 2881 2656 2881 3163 
Q 2881 3666 2632 3958 
Q 2384 4250 1959 4250 
Q 1534 4250 1286 3958 
Q 1038 3666 1038 3163 
Q 1038 2656 1286 2365 
Q 1534 2075 1959 2075 
z
" transform="scale(0.015625)"/>
       <path id="DejaVuSans-68" d="M 3513 2113 
L 3513 0 
L 2938 0 
L 2938 2094 
Q 2938 2591 2744 2837 
Q 2550 3084 2163 3084 
Q 1697 3084 1428 2787 
Q 1159 2491 1159 1978 
L 1159 0 
L 581 0 
L 581 4863 
L 1159 4863 
L 1159 2956 
Q 1366 3272 1645 3428 
Q 1925 3584 2291 3584 
Q 2894 3584 3203 3211 
Q 3513 2838 3513 2113 
z
" transform="scale(0.015625)"/>
       <path id="DejaVuSans-70" d="M 1159 525 
L 1159 -1331 
L 581 -1331 
L 581 3500 
L 1159 3500 
L 1159 2969 
Q 1341 3281 1617 3432 
Q 1894 3584 2278 3584 
Q 2916 3584 3314 3078 
Q 3713 2572 3713 1747 
Q 3713 922 3314 415 
Q 2916 -91 2278 -91 
Q 1894 -91 1617 61 
Q 1341 213 1159 525 
z
M 3116 1747 
Q 3116 2381 2855 2742 
Q 2594 3103 2138 3103 
Q 1681 3103 1420 2742 
Q 1159 2381 1159 1747 
Q 1159 1113 1420 752 
Q 1681 391 2138 391 
Q 2594 391 2855 752 
Q 3116 1113 3116 1747 
z
" transform="scale(0.015625)"/>
       <path id="DejaVuSans-63" d="M 3122 3366 
L 3122 2828 
Q 2878 2963 2633 3030 
Q 2388 3097 2138 3097 
Q 1578 3097 1268 2742 
Q 959 2388 959 1747 
Q 959 1106 1268 751 
Q 1578 397 2138 397 
Q 2388 397 2633 464 
Q 2878 531 3122 666 
L 3122 134 
Q 2881 22 2623 -34 
Q 2366 -91 2075 -91 
Q 1284 -91 818 406 
Q 353 903 353 1747 
Q 353 2603 823 3093 
Q 1294 3584 2113 3584 
Q 2378 3584 2631 3529 
Q 2884 3475 3122 3366 
z
" transform="scale(0.015625)"/>
       <path id="DejaVuSans-2e" d="M 684 794 
L 1344 794 
L 1344 0 
L 684 0 
L 684 794 
z
" transform="scale(0.015625)"/>
      </defs>
      <use xlink:href="#DejaVuSans-39"/>
      <use xlink:href="#DejaVuSans-39" x="63.623047"/>
      <use xlink:href="#DejaVuSans-74" x="127.246094"/>
      <use xlink:href="#DejaVuSans-68" x="166.455078"/>
      <use xlink:href="#DejaVuSans-20" x="229.833984"/>
      <use xlink:href="#DejaVuSans-70" x="261.621094"/>
      <use xlink:href="#DejaVuSans-65" x="325.097656"/>
      <use xlink:href="#DejaVuSans-72" x="386.621094"/>
      <use xlink:href="#DejaVuSans-63" x="425.484375"/>
      <use xlink:href="#DejaVuSans-2e" x="480.464844"/>
     </g>
    </g>
    <g id="line2d_44">
     <path d="M 393.81 86.703437 
L 405.81 86.703437 
L 417.81 86.703437 
" style="fill: none; stroke: #2ca02c; stroke-linecap: square"/>
    </g>
    <g id="text_16">
     <!-- 95th perc. -->
     <g transform="translate(427.41 90.903437) scale(0.12 -0.12)">
      <defs>
       <path id="DejaVuSans-35" d="M 691 4666 
L 3169 4666 
L 3169 4134 
L 1269 4134 
L 1269 2991 
Q 1406 3038 1543 3061 
Q 1681 3084 1819 3084 
Q 2600 3084 3056 2656 
Q 3513 2228 3513 1497 
Q 3513 744 3044 326 
Q 2575 -91 1722 -91 
Q 1428 -91 1123 -41 
Q 819 9 494 109 
L 494 744 
Q 775 591 1075 516 
Q 1375 441 1709 441 
Q 2250 441 2565 725 
Q 2881 1009 2881 1497 
Q 2881 1984 2565 2268 
Q 2250 2553 1709 2553 
Q 1456 2553 1204 2497 
Q 953 2441 691 2322 
L 691 4666 
z
" transform="scale(0.015625)"/>
      </defs>
      <use xlink:href="#DejaVuSans-39"/>
      <use xlink:href="#DejaVuSans-35" x="63.623047"/>
      <use xlink:href="#DejaVuSans-74" x="127.246094"/>
      <use xlink:href="#DejaVuSans-68" x="166.455078"/>
      <use xlink:href="#DejaVuSans-20" x="229.833984"/>
      <use xlink:href="#DejaVuSans-70" x="261.621094"/>
      <use xlink:href="#DejaVuSans-65" x="325.097656"/>
      <use xlink:href="#DejaVuSans-72" x="386.621094"/>
      <use xlink:href="#DejaVuSans-63" x="425.484375"/>
      <use xlink:href="#DejaVuSans-2e" x="480.464844"/>
     </g>
    </g>
    <g id="line2d_45">
     <path d="M 393.81 104.317187 
L 405.81 104.317187 
L 417.81 104.317187 
" style="fill: none; stroke: #d62728; stroke-linecap: square"/>
    </g>
    <g id="text_17">
     <!-- 90th perc. -->
     <g transform="translate(427.41 108.517187) scale(0.12 -0.12)">
      <use xlink:href="#DejaVuSans-39"/>
      <use xlink:href="#DejaVuSans-30" x="63.623047"/>
      <use xlink:href="#DejaVuSans-74" x="127.246094"/>
      <use xlink:href="#DejaVuSans-68" x="166.455078"/>
      <use xlink:href="#DejaVuSans-20" x="229.833984"/>
      <use xlink:href="#DejaVuSans-70" x="261.621094"/>
      <use xlink:href="#DejaVuSans-65" x="325.097656"/>
      <use xlink:href="#DejaVuSans-72" x="386.621094"/>
      <use xlink:href="#DejaVuSans-63" x="425.484375"/>
      <use xlink:href="#DejaVuSans-2e" x="480.464844"/>
     </g>
    </g>
    <g id="line2d_46">
     <path d="M 393.81 121.930937 
L 405.81 121.930937 
L 417.81 121.930937 
" style="fill: none; stroke: #9467bd; stroke-linecap: square"/>
    </g>
    <g id="text_18">
     <!-- 50th perc. -->
     <g transform="translate(427.41 126.130937) scale(0.12 -0.12)">
      <use xlink:href="#DejaVuSans-35"/>
      <use xlink:href="#DejaVuSans-30" x="63.623047"/>
      <use xlink:href="#DejaVuSans-74" x="127.246094"/>
      <use xlink:href="#DejaVuSans-68" x="166.455078"/>
      <use xlink:href="#DejaVuSans-20" x="229.833984"/>
      <use xlink:href="#DejaVuSans-70" x="261.621094"/>
      <use xlink:href="#DejaVuSans-65" x="325.097656"/>
      <use xlink:href="#DejaVuSans-72" x="386.621094"/>
      <use xlink:href="#DejaVuSans-63" x="425.484375"/>
      <use xlink:href="#DejaVuSans-2e" x="480.464844"/>
     </g>
    </g>
   </g>
  </g>
 </g>
 <defs>
  <clipPath id="p1cb019fe7e">
   <rect x="73.16" y="35.757812" width="426.52" height="199.023438"/>
  </clipPath>
 </defs>
</svg>
