<?xml version="1.0" encoding="utf-8" standalone="no"?>
<!DOCTYPE svg PUBLIC "-//W3C//DTD SVG 1.1//EN"
  "http://www.w3.org/Graphics/SVG/1.1/DTD/svg11.dtd">
<svg xmlns:xlink="http://www.w3.org/1999/xlink" width="514.8pt" height="288pt" viewBox="0 0 514.8 288" xmlns="http://www.w3.org/2000/svg" version="1.1">
 <metadata>
  <rdf:RDF xmlns:dc="http://purl.org/dc/elements/1.1/" xmlns:cc="http://creativecommons.org/ns#" xmlns:rdf="http://www.w3.org/1999/02/22-rdf-syntax-ns#">
   <cc:Work>
    <dc:type rdf:resource="http://purl.org/dc/dcmitype/StillImage"/>
    <dc:date>2023-11-14T17:28:31.204657</dc:date>
    <dc:format>image/svg+xml</dc:format>
    <dc:creator>
     <cc:Agent>
      <dc:title>Matplotlib v3.8.0, https://matplotlib.org/</dc:title>
     </cc:Agent>
    </dc:creator>
   </cc:Work>
  </rdf:RDF>
 </metadata>
 <defs>
  <style type="text/css">*{stroke-linejoin: round; stroke-linecap: butt}</style>
 </defs>
 <g id="figure_1">
  <g id="patch_1">
   <path d="M 0 288 
L 514.8 288 
L 514.8 0 
L 0 0 
z
" style="fill: #ffffff"/>
  </g>
  <g id="axes_1">
   <g id="patch_2">
    <path d="M 73.16 234.78125 
L 499.68 234.78125 
L 499.68 35.757812 
L 73.16 35.757812 
z
" style="fill: #ffffff"/>
   </g>
   <g id="matplotlib.axis_1">
    <g id="xtick_1">
     <g id="line2d_1">
      <defs>
       <path id="m3c997e873c" d="M 0 0 
L 0 3.5 
" style="stroke: #000000; stroke-width: 0.8"/>
      </defs>
      <g>
       <use xlink:href="#m3c997e873c" x="92.547273" y="234.78125" style="stroke: #000000; stroke-width: 0.8"/>
      </g>
     </g>
     <g id="text_1">
      <!-- $\mathdefault{10^{0}}$ -->
      <g transform="translate(80.227273 252.419063) scale(0.14 -0.14)">
       <defs>
        <path id="DejaVuSans-31" d="M 794 531 
L 1825 531 
L 1825 4091 
L 703 3866 
L 703 4441 
L 1819 4666 
L 2450 4666 
L 2450 531 
L 3481 531 
L 3481 0 
L 794 0 
L 794 531 
z
" transform="scale(0.015625)"/>
        <path id="DejaVuSans-30" d="M 2034 4250 
Q 1547 4250 1301 3770 
Q 1056 3291 1056 2328 
Q 1056 1369 1301 889 
Q 1547 409 2034 409 
Q 2525 409 2770 889 
Q 3016 1369 3016 2328 
Q 3016 3291 2770 3770 
Q 2525 4250 2034 4250 
z
M 2034 4750 
Q 2819 4750 3233 4129 
Q 3647 3509 3647 2328 
Q 3647 1150 3233 529 
Q 2819 -91 2034 -91 
Q 1250 -91 836 529 
Q 422 1150 422 2328 
Q 422 3509 836 4129 
Q 1250 4750 2034 4750 
z
" transform="scale(0.015625)"/>
       </defs>
       <use xlink:href="#DejaVuSans-31" transform="translate(0 0.765625)"/>
       <use xlink:href="#DejaVuSans-30" transform="translate(63.623047 0.765625)"/>
       <use xlink:href="#DejaVuSans-30" transform="translate(128.203125 39.046875) scale(0.7)"/>
      </g>
     </g>
    </g>
    <g id="xtick_2">
     <g id="line2d_2">
      <g>
       <use xlink:href="#m3c997e873c" x="221.795758" y="234.78125" style="stroke: #000000; stroke-width: 0.8"/>
      </g>
     </g>
     <g id="text_2">
      <!-- $\mathdefault{10^{1}}$ -->
      <g transform="translate(209.475758 252.419063) scale(0.14 -0.14)">
       <use xlink:href="#DejaVuSans-31" transform="translate(0 0.684375)"/>
       <use xlink:href="#DejaVuSans-30" transform="translate(63.623047 0.684375)"/>
       <use xlink:href="#DejaVuSans-31" transform="translate(128.203125 38.965625) scale(0.7)"/>
      </g>
     </g>
    </g>
    <g id="xtick_3">
     <g id="line2d_3">
      <g>
       <use xlink:href="#m3c997e873c" x="351.044242" y="234.78125" style="stroke: #000000; stroke-width: 0.8"/>
      </g>
     </g>
     <g id="text_3">
      <!-- $\mathdefault{10^{2}}$ -->
      <g transform="translate(338.724242 252.419063) scale(0.14 -0.14)">
       <defs>
        <path id="DejaVuSans-32" d="M 1228 531 
L 3431 531 
L 3431 0 
L 469 0 
L 469 531 
Q 828 903 1448 1529 
Q 2069 2156 2228 2338 
Q 2531 2678 2651 2914 
Q 2772 3150 2772 3378 
Q 2772 3750 2511 3984 
Q 2250 4219 1831 4219 
Q 1534 4219 1204 4116 
Q 875 4013 500 3803 
L 500 4441 
Q 881 4594 1212 4672 
Q 1544 4750 1819 4750 
Q 2544 4750 2975 4387 
Q 3406 4025 3406 3419 
Q 3406 3131 3298 2873 
Q 3191 2616 2906 2266 
Q 2828 2175 2409 1742 
Q 1991 1309 1228 531 
z
" transform="scale(0.015625)"/>
       </defs>
       <use xlink:href="#DejaVuSans-31" transform="translate(0 0.765625)"/>
       <use xlink:href="#DejaVuSans-30" transform="translate(63.623047 0.765625)"/>
       <use xlink:href="#DejaVuSans-32" transform="translate(128.203125 39.046875) scale(0.7)"/>
      </g>
     </g>
    </g>
    <g id="xtick_4">
     <g id="line2d_4">
      <g>
       <use xlink:href="#m3c997e873c" x="480.292727" y="234.78125" style="stroke: #000000; stroke-width: 0.8"/>
      </g>
     </g>
     <g id="text_4">
      <!-- $\mathdefault{10^{3}}$ -->
      <g transform="translate(467.972727 252.419063) scale(0.14 -0.14)">
       <defs>
        <path id="DejaVuSans-33" d="M 2597 2516 
Q 3050 2419 3304 2112 
Q 3559 1806 3559 1356 
Q 3559 666 3084 287 
Q 2609 -91 1734 -91 
Q 1441 -91 1130 -33 
Q 819 25 488 141 
L 488 750 
Q 750 597 1062 519 
Q 1375 441 1716 441 
Q 2309 441 2620 675 
Q 2931 909 2931 1356 
Q 2931 1769 2642 2001 
Q 2353 2234 1838 2234 
L 1294 2234 
L 1294 2753 
L 1863 2753 
Q 2328 2753 2575 2939 
Q 2822 3125 2822 3475 
Q 2822 3834 2567 4026 
Q 2313 4219 1838 4219 
Q 1578 4219 1281 4162 
Q 984 4106 628 3988 
L 628 4550 
Q 988 4650 1302 4700 
Q 1616 4750 1894 4750 
Q 2613 4750 3031 4423 
Q 3450 4097 3450 3541 
Q 3450 3153 3228 2886 
Q 3006 2619 2597 2516 
z
" transform="scale(0.015625)"/>
       </defs>
       <use xlink:href="#DejaVuSans-31" transform="translate(0 0.765625)"/>
       <use xlink:href="#DejaVuSans-30" transform="translate(63.623047 0.765625)"/>
       <use xlink:href="#DejaVuSans-33" transform="translate(128.203125 39.046875) scale(0.7)"/>
      </g>
     </g>
    </g>
    <g id="xtick_5">
     <g id="line2d_5">
      <defs>
       <path id="m53a9aced9e" d="M 0 0 
L 0 2 
" style="stroke: #000000; stroke-width: 0.6"/>
      </defs>
      <g>
       <use xlink:href="#m53a9aced9e" x="80.0218" y="234.78125" style="stroke: #000000; stroke-width: 0.6"/>
      </g>
     </g>
    </g>
    <g id="xtick_6">
     <g id="line2d_6">
      <g>
       <use xlink:href="#m53a9aced9e" x="86.633186" y="234.78125" style="stroke: #000000; stroke-width: 0.6"/>
      </g>
     </g>
    </g>
    <g id="xtick_7">
     <g id="line2d_7">
      <g>
       <use xlink:href="#m53a9aced9e" x="131.454944" y="234.78125" style="stroke: #000000; stroke-width: 0.6"/>
      </g>
     </g>
    </g>
    <g id="xtick_8">
     <g id="line2d_8">
      <g>
       <use xlink:href="#m53a9aced9e" x="154.214472" y="234.78125" style="stroke: #000000; stroke-width: 0.6"/>
      </g>
     </g>
    </g>
    <g id="xtick_9">
     <g id="line2d_9">
      <g>
       <use xlink:href="#m53a9aced9e" x="170.362614" y="234.78125" style="stroke: #000000; stroke-width: 0.6"/>
      </g>
     </g>
    </g>
    <g id="xtick_10">
     <g id="line2d_10">
      <g>
       <use xlink:href="#m53a9aced9e" x="182.888087" y="234.78125" style="stroke: #000000; stroke-width: 0.6"/>
      </g>
     </g>
    </g>
    <g id="xtick_11">
     <g id="line2d_11">
      <g>
       <use xlink:href="#m53a9aced9e" x="193.122143" y="234.78125" style="stroke: #000000; stroke-width: 0.6"/>
      </g>
     </g>
    </g>
    <g id="xtick_12">
     <g id="line2d_12">
      <g>
       <use xlink:href="#m53a9aced9e" x="201.774914" y="234.78125" style="stroke: #000000; stroke-width: 0.6"/>
      </g>
     </g>
    </g>
    <g id="xtick_13">
     <g id="line2d_13">
      <g>
       <use xlink:href="#m53a9aced9e" x="209.270285" y="234.78125" style="stroke: #000000; stroke-width: 0.6"/>
      </g>
     </g>
    </g>
    <g id="xtick_14">
     <g id="line2d_14">
      <g>
       <use xlink:href="#m53a9aced9e" x="215.881671" y="234.78125" style="stroke: #000000; stroke-width: 0.6"/>
      </g>
     </g>
    </g>
    <g id="xtick_15">
     <g id="line2d_15">
      <g>
       <use xlink:href="#m53a9aced9e" x="260.703428" y="234.78125" style="stroke: #000000; stroke-width: 0.6"/>
      </g>
     </g>
    </g>
    <g id="xtick_16">
     <g id="line2d_16">
      <g>
       <use xlink:href="#m53a9aced9e" x="283.462957" y="234.78125" style="stroke: #000000; stroke-width: 0.6"/>
      </g>
     </g>
    </g>
    <g id="xtick_17">
     <g id="line2d_17">
      <g>
       <use xlink:href="#m53a9aced9e" x="299.611099" y="234.78125" style="stroke: #000000; stroke-width: 0.6"/>
      </g>
     </g>
    </g>
    <g id="xtick_18">
     <g id="line2d_18">
      <g>
       <use xlink:href="#m53a9aced9e" x="312.136572" y="234.78125" style="stroke: #000000; stroke-width: 0.6"/>
      </g>
     </g>
    </g>
    <g id="xtick_19">
     <g id="line2d_19">
      <g>
       <use xlink:href="#m53a9aced9e" x="322.370628" y="234.78125" style="stroke: #000000; stroke-width: 0.6"/>
      </g>
     </g>
    </g>
    <g id="xtick_20">
     <g id="line2d_20">
      <g>
       <use xlink:href="#m53a9aced9e" x="331.023399" y="234.78125" style="stroke: #000000; stroke-width: 0.6"/>
      </g>
     </g>
    </g>
    <g id="xtick_21">
     <g id="line2d_21">
      <g>
       <use xlink:href="#m53a9aced9e" x="338.51877" y="234.78125" style="stroke: #000000; stroke-width: 0.6"/>
      </g>
     </g>
    </g>
    <g id="xtick_22">
     <g id="line2d_22">
      <g>
       <use xlink:href="#m53a9aced9e" x="345.130156" y="234.78125" style="stroke: #000000; stroke-width: 0.6"/>
      </g>
     </g>
    </g>
    <g id="xtick_23">
     <g id="line2d_23">
      <g>
       <use xlink:href="#m53a9aced9e" x="389.951913" y="234.78125" style="stroke: #000000; stroke-width: 0.6"/>
      </g>
     </g>
    </g>
    <g id="xtick_24">
     <g id="line2d_24">
      <g>
       <use xlink:href="#m53a9aced9e" x="412.711442" y="234.78125" style="stroke: #000000; stroke-width: 0.6"/>
      </g>
     </g>
    </g>
    <g id="xtick_25">
     <g id="line2d_25">
      <g>
       <use xlink:href="#m53a9aced9e" x="428.859584" y="234.78125" style="stroke: #000000; stroke-width: 0.6"/>
      </g>
     </g>
    </g>
    <g id="xtick_26">
     <g id="line2d_26">
      <g>
       <use xlink:href="#m53a9aced9e" x="441.385056" y="234.78125" style="stroke: #000000; stroke-width: 0.6"/>
      </g>
     </g>
    </g>
    <g id="xtick_27">
     <g id="line2d_27">
      <g>
       <use xlink:href="#m53a9aced9e" x="451.619113" y="234.78125" style="stroke: #000000; stroke-width: 0.6"/>
      </g>
     </g>
    </g>
    <g id="xtick_28">
     <g id="line2d_28">
      <g>
       <use xlink:href="#m53a9aced9e" x="460.271884" y="234.78125" style="stroke: #000000; stroke-width: 0.6"/>
      </g>
     </g>
    </g>
    <g id="xtick_29">
     <g id="line2d_29">
      <g>
       <use xlink:href="#m53a9aced9e" x="467.767255" y="234.78125" style="stroke: #000000; stroke-width: 0.6"/>
      </g>
     </g>
    </g>
    <g id="xtick_30">
     <g id="line2d_30">
      <g>
       <use xlink:href="#m53a9aced9e" x="474.378641" y="234.78125" style="stroke: #000000; stroke-width: 0.6"/>
      </g>
     </g>
    </g>
    <g id="text_5">
     <!-- Iteration -->
     <g transform="translate(256.727969 269.968437) scale(0.14 -0.14)">
      <defs>
       <path id="DejaVuSans-49" d="M 628 4666 
L 1259 4666 
L 1259 0 
L 628 0 
L 628 4666 
z
" transform="scale(0.015625)"/>
       <path id="DejaVuSans-74" d="M 1172 4494 
L 1172 3500 
L 2356 3500 
L 2356 3053 
L 1172 3053 
L 1172 1153 
Q 1172 725 1289 603 
Q 1406 481 1766 481 
L 2356 481 
L 2356 0 
L 1766 0 
Q 1100 0 847 248 
Q 594 497 594 1153 
L 594 3053 
L 172 3053 
L 172 3500 
L 594 3500 
L 594 4494 
L 1172 4494 
z
" transform="scale(0.015625)"/>
       <path id="DejaVuSans-65" d="M 3597 1894 
L 3597 1613 
L 953 1613 
Q 991 1019 1311 708 
Q 1631 397 2203 397 
Q 2534 397 2845 478 
Q 3156 559 3463 722 
L 3463 178 
Q 3153 47 2828 -22 
Q 2503 -91 2169 -91 
Q 1331 -91 842 396 
Q 353 884 353 1716 
Q 353 2575 817 3079 
Q 1281 3584 2069 3584 
Q 2775 3584 3186 3129 
Q 3597 2675 3597 1894 
z
M 3022 2063 
Q 3016 2534 2758 2815 
Q 2500 3097 2075 3097 
Q 1594 3097 1305 2825 
Q 1016 2553 972 2059 
L 3022 2063 
z
" transform="scale(0.015625)"/>
       <path id="DejaVuSans-72" d="M 2631 2963 
Q 2534 3019 2420 3045 
Q 2306 3072 2169 3072 
Q 1681 3072 1420 2755 
Q 1159 2438 1159 1844 
L 1159 0 
L 581 0 
L 581 3500 
L 1159 3500 
L 1159 2956 
Q 1341 3275 1631 3429 
Q 1922 3584 2338 3584 
Q 2397 3584 2469 3576 
Q 2541 3569 2628 3553 
L 2631 2963 
z
" transform="scale(0.015625)"/>
       <path id="DejaVuSans-61" d="M 2194 1759 
Q 1497 1759 1228 1600 
Q 959 1441 959 1056 
Q 959 750 1161 570 
Q 1363 391 1709 391 
Q 2188 391 2477 730 
Q 2766 1069 2766 1631 
L 2766 1759 
L 2194 1759 
z
M 3341 1997 
L 3341 0 
L 2766 0 
L 2766 531 
Q 2569 213 2275 61 
Q 1981 -91 1556 -91 
Q 1019 -91 701 211 
Q 384 513 384 1019 
Q 384 1609 779 1909 
Q 1175 2209 1959 2209 
L 2766 2209 
L 2766 2266 
Q 2766 2663 2505 2880 
Q 2244 3097 1772 3097 
Q 1472 3097 1187 3025 
Q 903 2953 641 2809 
L 641 3341 
Q 956 3463 1253 3523 
Q 1550 3584 1831 3584 
Q 2591 3584 2966 3190 
Q 3341 2797 3341 1997 
z
" transform="scale(0.015625)"/>
       <path id="DejaVuSans-69" d="M 603 3500 
L 1178 3500 
L 1178 0 
L 603 0 
L 603 3500 
z
M 603 4863 
L 1178 4863 
L 1178 4134 
L 603 4134 
L 603 4863 
z
" transform="scale(0.015625)"/>
       <path id="DejaVuSans-6f" d="M 1959 3097 
Q 1497 3097 1228 2736 
Q 959 2375 959 1747 
Q 959 1119 1226 758 
Q 1494 397 1959 397 
Q 2419 397 2687 759 
Q 2956 1122 2956 1747 
Q 2956 2369 2687 2733 
Q 2419 3097 1959 3097 
z
M 1959 3584 
Q 2709 3584 3137 3096 
Q 3566 2609 3566 1747 
Q 3566 888 3137 398 
Q 2709 -91 1959 -91 
Q 1206 -91 779 398 
Q 353 888 353 1747 
Q 353 2609 779 3096 
Q 1206 3584 1959 3584 
z
" transform="scale(0.015625)"/>
       <path id="DejaVuSans-6e" d="M 3513 2113 
L 3513 0 
L 2938 0 
L 2938 2094 
Q 2938 2591 2744 2837 
Q 2550 3084 2163 3084 
Q 1697 3084 1428 2787 
Q 1159 2491 1159 1978 
L 1159 0 
L 581 0 
L 581 3500 
L 1159 3500 
L 1159 2956 
Q 1366 3272 1645 3428 
Q 1925 3584 2291 3584 
Q 2894 3584 3203 3211 
Q 3513 2838 3513 2113 
z
" transform="scale(0.015625)"/>
      </defs>
      <use xlink:href="#DejaVuSans-49"/>
      <use xlink:href="#DejaVuSans-74" x="29.492188"/>
      <use xlink:href="#DejaVuSans-65" x="68.701172"/>
      <use xlink:href="#DejaVuSans-72" x="130.224609"/>
      <use xlink:href="#DejaVuSans-61" x="171.337891"/>
      <use xlink:href="#DejaVuSans-74" x="232.617188"/>
      <use xlink:href="#DejaVuSans-69" x="271.826172"/>
      <use xlink:href="#DejaVuSans-6f" x="299.609375"/>
      <use xlink:href="#DejaVuSans-6e" x="360.791016"/>
     </g>
    </g>
   </g>
   <g id="matplotlib.axis_2">
    <g id="ytick_1">
     <g id="line2d_31">
      <defs>
       <path id="m8403905f63" d="M 0 0 
L -3.5 0 
" style="stroke: #000000; stroke-width: 0.8"/>
      </defs>
      <g>
       <use xlink:href="#m8403905f63" x="73.16" y="234.78125" style="stroke: #000000; stroke-width: 0.8"/>
      </g>
     </g>
     <g id="text_6">
      <!-- $\mathdefault{10^{-6}}$ -->
      <g transform="translate(33.26 240.100156) scale(0.14 -0.14)">
       <defs>
        <path id="DejaVuSans-2212" d="M 678 2272 
L 4684 2272 
L 4684 1741 
L 678 1741 
L 678 2272 
z
" transform="scale(0.015625)"/>
        <path id="DejaVuSans-36" d="M 2113 2584 
Q 1688 2584 1439 2293 
Q 1191 2003 1191 1497 
Q 1191 994 1439 701 
Q 1688 409 2113 409 
Q 2538 409 2786 701 
Q 3034 994 3034 1497 
Q 3034 2003 2786 2293 
Q 2538 2584 2113 2584 
z
M 3366 4563 
L 3366 3988 
Q 3128 4100 2886 4159 
Q 2644 4219 2406 4219 
Q 1781 4219 1451 3797 
Q 1122 3375 1075 2522 
Q 1259 2794 1537 2939 
Q 1816 3084 2150 3084 
Q 2853 3084 3261 2657 
Q 3669 2231 3669 1497 
Q 3669 778 3244 343 
Q 2819 -91 2113 -91 
Q 1303 -91 875 529 
Q 447 1150 447 2328 
Q 447 3434 972 4092 
Q 1497 4750 2381 4750 
Q 2619 4750 2861 4703 
Q 3103 4656 3366 4563 
z
" transform="scale(0.015625)"/>
       </defs>
       <use xlink:href="#DejaVuSans-31" transform="translate(0 0.765625)"/>
       <use xlink:href="#DejaVuSans-30" transform="translate(63.623047 0.765625)"/>
       <use xlink:href="#DejaVuSans-2212" transform="translate(128.203125 39.046875) scale(0.7)"/>
       <use xlink:href="#DejaVuSans-36" transform="translate(186.855469 39.046875) scale(0.7)"/>
      </g>
     </g>
    </g>
    <g id="ytick_2">
     <g id="line2d_32">
      <g>
       <use xlink:href="#m8403905f63" x="73.16" y="185.025391" style="stroke: #000000; stroke-width: 0.8"/>
      </g>
     </g>
     <g id="text_7">
      <!-- $\mathdefault{10^{-4}}$ -->
      <g transform="translate(33.26 190.344297) scale(0.14 -0.14)">
       <defs>
        <path id="DejaVuSans-34" d="M 2419 4116 
L 825 1625 
L 2419 1625 
L 2419 4116 
z
M 2253 4666 
L 3047 4666 
L 3047 1625 
L 3713 1625 
L 3713 1100 
L 3047 1100 
L 3047 0 
L 2419 0 
L 2419 1100 
L 313 1100 
L 313 1709 
L 2253 4666 
z
" transform="scale(0.015625)"/>
       </defs>
       <use xlink:href="#DejaVuSans-31" transform="translate(0 0.684375)"/>
       <use xlink:href="#DejaVuSans-30" transform="translate(63.623047 0.684375)"/>
       <use xlink:href="#DejaVuSans-2212" transform="translate(128.203125 38.965625) scale(0.7)"/>
       <use xlink:href="#DejaVuSans-34" transform="translate(186.855469 38.965625) scale(0.7)"/>
      </g>
     </g>
    </g>
    <g id="ytick_3">
     <g id="line2d_33">
      <g>
       <use xlink:href="#m8403905f63" x="73.16" y="135.269531" style="stroke: #000000; stroke-width: 0.8"/>
      </g>
     </g>
     <g id="text_8">
      <!-- $\mathdefault{10^{-2}}$ -->
      <g transform="translate(33.26 140.588437) scale(0.14 -0.14)">
       <use xlink:href="#DejaVuSans-31" transform="translate(0 0.765625)"/>
       <use xlink:href="#DejaVuSans-30" transform="translate(63.623047 0.765625)"/>
       <use xlink:href="#DejaVuSans-2212" transform="translate(128.203125 39.046875) scale(0.7)"/>
       <use xlink:href="#DejaVuSans-32" transform="translate(186.855469 39.046875) scale(0.7)"/>
      </g>
     </g>
    </g>
    <g id="ytick_4">
     <g id="line2d_34">
      <g>
       <use xlink:href="#m8403905f63" x="73.16" y="85.513672" style="stroke: #000000; stroke-width: 0.8"/>
      </g>
     </g>
     <g id="text_9">
      <!-- $\mathdefault{10^{0}}$ -->
      <g transform="translate(41.52 90.832578) scale(0.14 -0.14)">
       <use xlink:href="#DejaVuSans-31" transform="translate(0 0.765625)"/>
       <use xlink:href="#DejaVuSans-30" transform="translate(63.623047 0.765625)"/>
       <use xlink:href="#DejaVuSans-30" transform="translate(128.203125 39.046875) scale(0.7)"/>
      </g>
     </g>
    </g>
    <g id="ytick_5">
     <g id="line2d_35">
      <g>
       <use xlink:href="#m8403905f63" x="73.16" y="35.757812" style="stroke: #000000; stroke-width: 0.8"/>
      </g>
     </g>
     <g id="text_10">
      <!-- $\mathdefault{10^{2}}$ -->
      <g transform="translate(41.52 41.076719) scale(0.14 -0.14)">
       <use xlink:href="#DejaVuSans-31" transform="translate(0 0.765625)"/>
       <use xlink:href="#DejaVuSans-30" transform="translate(63.623047 0.765625)"/>
       <use xlink:href="#DejaVuSans-32" transform="translate(128.203125 39.046875) scale(0.7)"/>
      </g>
     </g>
    </g>
    <g id="text_11">
     <!-- $||F_{\mathrm{KKT}}||_{2}$ -->
     <g transform="translate(25.9 161.729531) rotate(-90) scale(0.14 -0.14)">
      <defs>
       <path id="DejaVuSans-7c" d="M 1344 4891 
L 1344 -1509 
L 813 -1509 
L 813 4891 
L 1344 4891 
z
" transform="scale(0.015625)"/>
       <path id="DejaVuSans-Oblique-46" d="M 1081 4666 
L 3756 4666 
L 3653 4134 
L 1606 4134 
L 1338 2759 
L 3188 2759 
L 3084 2228 
L 1234 2228 
L 800 0 
L 172 0 
L 1081 4666 
z
" transform="scale(0.015625)"/>
       <path id="DejaVuSans-4b" d="M 628 4666 
L 1259 4666 
L 1259 2694 
L 3353 4666 
L 4166 4666 
L 1850 2491 
L 4331 0 
L 3500 0 
L 1259 2247 
L 1259 0 
L 628 0 
L 628 4666 
z
" transform="scale(0.015625)"/>
       <path id="DejaVuSans-54" d="M -19 4666 
L 3928 4666 
L 3928 4134 
L 2272 4134 
L 2272 0 
L 1638 0 
L 1638 4134 
L -19 4134 
L -19 4666 
z
" transform="scale(0.015625)"/>
      </defs>
      <use xlink:href="#DejaVuSans-7c" transform="translate(0 0.578125)"/>
      <use xlink:href="#DejaVuSans-7c" transform="translate(33.691406 0.578125)"/>
      <use xlink:href="#DejaVuSans-Oblique-46" transform="translate(67.382812 0.578125)"/>
      <use xlink:href="#DejaVuSans-4b" transform="translate(124.902344 -15.828125) scale(0.7)"/>
      <use xlink:href="#DejaVuSans-4b" transform="translate(170.805664 -15.828125) scale(0.7)"/>
      <use xlink:href="#DejaVuSans-54" transform="translate(216.708984 -15.828125) scale(0.7)"/>
      <use xlink:href="#DejaVuSans-7c" transform="translate(262.202148 0.578125)"/>
      <use xlink:href="#DejaVuSans-7c" transform="translate(295.893555 0.578125)"/>
      <use xlink:href="#DejaVuSans-32" transform="translate(330.541992 -15.828125) scale(0.7)"/>
     </g>
    </g>
   </g>
   <g id="line2d_36">
    <path d="M -1 45.086408 
L 92.547273 45.092013 
L 131.454944 46.806955 
L 170.362614 50.041616 
L 182.888087 53.492441 
L 193.122143 58.510249 
L 201.774914 61.525211 
L 209.270285 65.392273 
L 215.881671 66.785187 
L 221.795758 69.994141 
L 227.145699 69.6787 
L 232.029814 71.56244 
L 236.522763 73.154703 
L 240.682585 72.111445 
L 244.555286 72.924207 
L 248.177956 74.797483 
L 254.789342 76.447318 
L 257.824238 78.092236 
L 260.703428 78.467725 
L 263.442113 79.347063 
L 268.548532 79.271769 
L 270.937484 80.39488 
L 273.228901 80.789472 
L 275.430434 80.350505 
L 277.548871 81.898273 
L 279.590256 81.624738 
L 281.559998 81.529464 
L 283.462957 82.827254 
L 285.303512 82.655101 
L 287.085627 82.985385 
L 288.812899 83.672017 
L 290.488602 83.76234 
L 292.115728 84.519691 
L 295.234969 84.96265 
L 296.731909 86.262897 
L 298.189962 85.870301 
L 299.611099 86.91281 
L 300.997143 87.48262 
L 302.349784 87.512887 
L 303.670596 88.377488 
L 304.961041 88.774201 
L 307.456203 89.899121 
L 308.663387 90.35595 
L 309.845155 91.012332 
L 311.002555 91.384184 
L 312.136572 92.120782 
L 313.248131 92.705585 
L 314.338105 92.937953 
L 315.407316 93.688129 
L 316.456541 93.782576 
L 317.486513 94.742929 
L 318.497926 94.585484 
L 319.491437 95.64643 
L 320.467669 95.541941 
L 321.427212 96.377634 
L 322.370628 96.52509 
L 323.298449 97.198785 
L 324.211183 97.431937 
L 325.109312 98.184568 
L 325.993298 98.233044 
L 326.863577 99.276083 
L 327.72057 99.06104 
L 328.564674 100.404399 
L 329.396273 100.020382 
L 330.215732 101.372704 
L 331.023399 100.983062 
L 331.819609 102.002782 
L 332.604684 102.040934 
L 333.378929 102.780513 
L 334.14264 102.91657 
L 334.8961 103.814492 
L 335.63958 104.083986 
L 336.373341 104.988718 
L 337.097633 104.9585 
L 337.812699 106.23292 
L 338.51877 105.842939 
L 339.21607 107.422238 
L 339.904813 106.915505 
L 340.585208 108.278626 
L 341.257455 108.156994 
L 342.578266 109.56678 
L 343.227197 109.970241 
L 343.868712 110.799322 
L 344.502977 111.154537 
L 345.130156 111.89228 
L 345.750404 112.180124 
L 346.363874 112.903051 
L 346.970711 113.261189 
L 348.165052 114.565263 
L 348.752826 114.772828 
L 350.480098 115.853347 
L 351.044242 115.833912 
L 351.602773 116.555759 
L 352.155802 116.159152 
L 352.703434 116.653301 
L 353.245776 116.78016 
L 353.782927 117.022211 
L 354.314987 119.186335 
L 354.842051 118.061326 
L 355.364212 118.439066 
L 355.881561 118.331735 
L 356.394184 118.637669 
L 356.902169 119.129016 
L 357.405597 119.169103 
L 357.904551 121.770012 
L 358.399108 121.063584 
L 358.889346 121.47018 
L 359.37534 121.237129 
L 359.857162 121.893588 
L 360.334883 121.903914 
L 361.278299 122.361762 
L 361.744126 122.75971 
L 362.20612 122.97645 
L 362.664342 124.555709 
L 363.118854 123.528584 
L 363.569715 124.188077 
L 364.016983 123.865107 
L 364.460716 124.336116 
L 364.900969 127.873105 
L 365.337795 126.926686 
L 365.771248 127.322427 
L 366.20138 126.59678 
L 366.62824 127.13198 
L 367.051879 129.474685 
L 367.472345 128.099381 
L 368.303944 129.266715 
L 368.715169 128.886079 
L 369.123402 129.500455 
L 369.528689 129.436541 
L 369.93107 129.789099 
L 370.330587 133.068633 
L 370.72728 131.084636 
L 371.12119 131.492294 
L 371.512355 131.324696 
L 372.2866 132.154681 
L 372.669754 132.147291 
L 373.050311 132.419177 
L 373.428305 134.383692 
L 373.803771 133.817332 
L 374.176742 135.539036 
L 374.547251 134.644972 
L 376.005304 135.649169 
L 376.363976 138.50839 
L 376.72037 136.946933 
L 377.074516 137.250583 
L 377.776174 137.432326 
L 378.123741 138.116892 
L 378.469169 137.815646 
L 378.812484 138.244983 
L 379.153713 141.404818 
L 379.492879 140.157089 
L 379.830009 141.263679 
L 380.165126 140.943013 
L 380.498254 140.80148 
L 380.829416 141.384075 
L 381.158637 142.399405 
L 381.485937 142.15682 
L 381.811341 143.93237 
L 382.134868 143.137773 
L 382.456542 143.260238 
L 382.776383 143.735425 
L 383.094411 143.649835 
L 383.410648 144.042539 
L 383.725114 146.449486 
L 384.037827 145.357291 
L 384.348808 146.435019 
L 384.658075 145.785065 
L 384.965648 146.407077 
L 385.271545 147.46611 
L 385.575784 146.961731 
L 385.878382 147.947746 
L 386.179358 147.392926 
L 386.776512 148.356614 
L 387.072723 148.397431 
L 387.367379 149.780172 
L 387.660497 148.890277 
L 387.952092 149.501527 
L 388.24218 149.437389 
L 388.530776 149.679536 
L 388.817897 152.248688 
L 389.103556 150.874184 
L 389.387769 151.358495 
L 389.67055 151.175815 
L 389.951913 151.425494 
L 390.231873 155.10834 
L 390.510444 153.558678 
L 390.787639 153.816781 
L 391.063472 153.173811 
L 391.337957 153.956372 
L 391.611105 155.182203 
L 391.882931 154.938543 
L 392.153447 157.923443 
L 392.422665 155.752487 
L 392.690598 156.761233 
L 392.957258 156.505467 
L 393.222658 156.922753 
L 393.486809 156.959918 
L 393.749722 157.269333 
L 394.01141 159.406878 
L 394.271883 158.857082 
L 394.531153 160.213217 
L 394.789231 159.254872 
L 395.046128 160.209163 
L 395.301855 160.269215 
L 395.556422 160.197158 
L 395.80984 160.736966 
L 396.062118 163.972081 
L 396.313268 162.41481 
L 396.812222 163.525718 
L 397.060045 162.771814 
L 397.306779 164.044209 
L 397.552433 163.190859 
L 397.797017 164.301139 
L 398.04054 164.839698 
L 398.283011 164.730984 
L 398.524439 165.179241 
L 398.764833 165.200875 
L 399.004201 165.426412 
L 399.242554 167.070161 
L 399.479898 166.262821 
L 399.951598 166.864913 
L 400.185969 167.056083 
L 400.419366 169.297004 
L 400.651797 168.115777 
L 401.113791 168.764232 
L 401.343369 168.776352 
L 401.572013 172.056717 
L 401.799729 170.158574 
L 402.026525 170.894261 
L 402.252408 170.135458 
L 402.477386 171.240691 
L 402.701465 170.699786 
L 402.924654 171.326659 
L 403.146959 174.908842 
L 403.368387 173.111347 
L 403.588945 173.677578 
L 403.808639 172.861186 
L 404.027478 173.450877 
L 404.245466 176.049045 
L 404.462611 174.044309 
L 404.678919 174.834081 
L 404.894397 176.416596 
L 405.109051 176.233315 
L 405.322887 177.413868 
L 405.535911 176.279594 
L 405.74813 177.590545 
L 405.95955 177.216847 
L 406.170177 177.556737 
L 406.380016 179.159199 
L 406.589073 178.296032 
L 406.797355 179.405801 
L 407.004867 178.948533 
L 407.211615 179.798057 
L 407.417604 179.384456 
L 407.622839 180.093518 
L 407.827327 179.928416 
L 408.031073 180.589474 
L 408.234082 180.676484 
L 408.83874 181.750818 
L 409.038854 181.628967 
L 409.238257 183.487269 
L 409.436955 182.662544 
L 409.634951 184.586901 
L 409.832251 183.068436 
L 410.028861 184.226516 
L 410.224784 183.671273 
L 410.420025 184.17115 
L 410.61459 188.719284 
L 410.808483 186.43762 
L 411.001708 187.037275 
L 411.194271 186.919233 
L 411.386175 186.652073 
L 411.577425 188.931623 
L 411.768026 187.770156 
L 411.957982 188.41295 
L 412.147297 190.280827 
L 412.335976 189.563443 
L 412.524023 190.144206 
L 412.711442 189.815395 
L 412.898237 190.696747 
L 413.084413 190.118536 
L 413.269973 190.75662 
L 413.454921 193.374097 
L 413.639263 192.366834 
L 413.823001 192.657128 
L 414.006139 193.709941 
L 414.188682 192.878945 
L 414.370634 195.272639 
L 414.551997 193.531864 
L 414.732776 194.557508 
L 414.912975 193.840533 
L 415.092597 194.552868 
L 415.271647 196.377142 
L 415.450126 195.034266 
L 415.628041 195.827371 
L 415.805393 195.853851 
L 415.982186 196.521397 
L 416.158425 198.930779 
L 416.334112 196.980847 
L 416.50925 198.8609 
L 416.683844 198.265309 
L 416.857897 198.276548 
L 417.031411 198.578414 
L 417.204391 202.55395 
L 417.37684 200.43755 
L 417.54876 200.408042 
L 417.720155 201.597992 
L 417.891029 201.24774 
L 418.061384 201.433876 
L 418.231223 202.701979 
L 418.40055 202.093986 
L 418.569368 203.860599 
L 418.73768 203.48534 
L 418.905488 203.384286 
L 419.072797 203.894715 
L 419.239608 204.012554 
L 419.737087 204.933075 
L 419.901939 205.072227 
L 420.230196 205.750152 
L 420.393608 205.901868 
L 420.719011 206.651604 
L 421.203606 207.292463 
L 421.364213 208.046409 
L 421.524361 207.986824 
L 421.684054 208.507517 
L 421.843293 208.491333 
L 422.002082 208.705749 
L 422.160423 209.359534 
L 422.318319 209.228294 
L 423.101204 210.812069 
L 423.256479 210.603413 
L 423.565746 212.110483 
L 423.719743 211.465677 
L 423.873319 212.466608 
L 424.026476 212.385596 
L 424.179216 212.957204 
L 424.331541 212.998175 
L 424.483454 213.574905 
L 424.634958 213.685 
L 425.087029 214.486889 
L 425.236914 215.32332 
L 425.3864 214.998863 
L 425.684183 215.882582 
L 425.832484 215.999397 
L 426.127915 216.543216 
L 426.4218 217.370918 
L 426.568168 217.073425 
L 426.714155 218.033251 
L 426.859763 218.123228 
L 428.29544 221.054497 
L 428.437008 221.237354 
L 428.578221 221.629375 
L 428.719079 221.603706 
L 428.859584 222.128274 
L 428.999739 222.139301 
L 429.139544 222.648443 
L 429.279003 222.588646 
L 429.418115 223.125003 
L 429.556884 223.078743 
L 429.69531 223.550611 
L 429.833396 223.553641 
L 430.108553 224.018338 
L 430.518776 224.789102 
L 430.654853 224.911137 
L 431.061117 225.600549 
L 431.864929 226.743248 
L 433.179554 228.336613 
L 434.590945 229.686461 
L 436.337411 231.032782 
L 438.387569 232.324514 
L 440.820912 233.590444 
L 443.802068 234.881404 
L 447.444896 236.202634 
L 451.805908 237.538724 
L 457.138894 238.932066 
L 463.618227 240.386553 
L 480.292727 243.837954 
L 480.292727 243.837954 
" clip-path="url(#p140e858759)" style="fill: none; stroke: #1f77b4; stroke-linecap: square"/>
   </g>
   <g id="line2d_37">
    <path d="M -1 46.579188 
L 92.547273 46.585288 
L 131.454944 51.000743 
L 154.214472 52.213824 
L 170.362614 53.828721 
L 182.888087 57.120274 
L 201.774914 65.466872 
L 209.270285 67.823356 
L 215.881671 70.660188 
L 221.795758 73.538434 
L 227.145699 74.15424 
L 232.029814 76.178479 
L 236.522763 76.770547 
L 244.555286 78.998958 
L 248.177956 79.442614 
L 251.580931 80.828889 
L 254.789342 80.498826 
L 260.703428 82.266354 
L 263.442113 83.366917 
L 266.05337 83.173019 
L 268.548532 83.532328 
L 270.937484 84.892722 
L 273.228901 85.031195 
L 283.462957 86.765207 
L 285.303512 87.421879 
L 287.085627 87.518035 
L 288.812899 88.421759 
L 290.488602 88.917634 
L 292.115728 89.226212 
L 296.731909 91.321803 
L 298.189962 92.265796 
L 300.997143 92.327438 
L 302.349784 93.479948 
L 303.670596 93.469794 
L 304.961041 94.024155 
L 306.222485 94.73845 
L 307.456203 95.22511 
L 308.663387 96.19903 
L 309.845155 96.511741 
L 311.002555 97.071034 
L 312.136572 97.86895 
L 313.248131 98.863293 
L 314.338105 99.058444 
L 315.407316 99.601687 
L 316.456541 100.461555 
L 317.486513 100.811382 
L 319.491437 102.170385 
L 320.467669 102.635475 
L 321.427212 103.975668 
L 322.370628 104.235022 
L 323.298449 105.207136 
L 324.211183 105.145831 
L 325.109312 106.368379 
L 325.993298 106.317979 
L 326.863577 107.691172 
L 327.72057 108.002561 
L 328.564674 108.477335 
L 329.396273 109.435265 
L 330.215732 109.780443 
L 331.023399 109.819825 
L 331.819609 111.147241 
L 332.604684 110.899211 
L 333.378929 112.303227 
L 334.14264 111.945601 
L 334.8961 113.561495 
L 335.63958 113.115818 
L 336.373341 115.105457 
L 337.097633 114.618002 
L 337.812699 116.337186 
L 339.21607 116.714911 
L 339.904813 117.932584 
L 340.585208 117.805497 
L 341.257455 119.270692 
L 341.921746 118.977109 
L 342.578266 120.28065 
L 343.227197 120.196549 
L 343.868712 121.230701 
L 344.502977 121.659361 
L 345.130156 122.317072 
L 345.750404 123.544283 
L 346.363874 124.042074 
L 348.752826 127.589044 
L 349.334509 128.185127 
L 349.910226 129.424096 
L 350.480098 130.240996 
L 351.044242 131.262921 
L 351.602773 133.197049 
L 352.155802 132.760316 
L 352.703434 133.144755 
L 353.245776 134.19053 
L 353.782927 136.319654 
L 354.314987 135.704551 
L 355.364212 137.173443 
L 355.881561 138.448827 
L 356.394184 138.795161 
L 357.405597 140.420373 
L 357.904551 141.813543 
L 358.399108 142.079882 
L 359.37534 143.756297 
L 359.857162 145.091972 
L 360.334883 145.301705 
L 360.808573 146.219902 
L 361.278299 146.827195 
L 361.744126 148.366953 
L 362.20612 148.482748 
L 362.664342 149.246155 
L 363.118854 149.54076 
L 363.569715 151.142353 
L 364.016983 151.799969 
L 364.900969 153.537379 
L 365.337795 153.54029 
L 367.051879 158.346441 
L 367.472345 158.423223 
L 367.889685 159.55486 
L 368.303944 160.246193 
L 368.715169 161.609066 
L 369.123402 162.062111 
L 369.528689 164.700422 
L 370.330587 165.915499 
L 371.12119 167.353571 
L 371.900812 169.181381 
L 372.2866 169.496523 
L 372.669754 171.683186 
L 373.050311 171.479388 
L 373.803771 173.889643 
L 374.176742 173.33014 
L 374.547251 175.199371 
L 374.91533 175.104229 
L 375.281011 176.258506 
L 376.005304 177.199934 
L 376.363976 178.457404 
L 377.074516 180.142896 
L 378.123741 183.867135 
L 378.469169 184.193083 
L 378.812484 185.042547 
L 379.153713 186.673452 
L 379.492879 186.188477 
L 379.830009 187.392705 
L 380.165126 188.126368 
L 380.498254 188.49076 
L 380.829416 190.908782 
L 381.158637 190.645141 
L 381.485937 192.60491 
L 382.456542 194.830397 
L 382.776383 196.796318 
L 383.094411 195.985856 
L 383.410648 198.141341 
L 383.725114 198.502663 
L 384.037827 198.567744 
L 384.348808 202.094075 
L 384.658075 199.910688 
L 384.965648 202.939439 
L 385.271545 201.705175 
L 385.575784 202.188917 
L 385.878382 203.398124 
L 386.179358 203.201902 
L 386.776512 207.628675 
L 387.072723 207.128171 
L 387.367379 209.093837 
L 387.660497 209.818391 
L 387.952092 210.046525 
L 388.24218 211.563251 
L 388.530776 210.98691 
L 388.817897 212.962001 
L 389.387769 213.68688 
L 389.67055 215.134197 
L 389.951913 214.9674 
L 390.231873 216.032614 
L 390.510444 216.32614 
L 390.787639 216.89657 
L 391.063472 217.796681 
L 391.337957 217.876266 
L 391.611105 218.201443 
L 391.882931 218.979372 
L 392.153447 218.78286 
L 392.690598 221.192158 
L 392.957258 221.73422 
L 393.222658 221.533311 
L 393.486809 222.762356 
L 393.749722 223.279303 
L 394.01141 223.398663 
L 394.271883 224.797802 
L 394.531153 224.727181 
L 394.789231 226.203976 
L 395.046128 226.2441 
L 395.301855 227.465028 
L 395.556422 227.69197 
L 395.80984 228.529405 
L 397.797017 231.847881 
L 399.004201 233.252159 
L 400.419366 234.566385 
L 402.252408 235.942413 
L 402.701465 236.235223 
L 402.924654 237.810772 
L 403.146959 237.791492 
L 403.368387 237.49726 
L 403.588945 238.357151 
L 406.170177 239.651596 
L 409.238257 240.929057 
L 412.898237 242.20768 
L 414.188682 242.612114 
L 414.370634 243.007645 
L 414.551997 243.025821 
L 414.732776 242.820416 
L 414.912975 242.830446 
L 415.092597 243.20663 
L 420.719011 244.62275 
L 429.418115 246.534592 
L 436.704688 248.298684 
L 443.58659 250.195386 
L 450.101942 252.223507 
L 456.198352 254.352087 
L 462.008874 256.616079 
L 467.485891 258.987667 
L 472.797356 261.527678 
L 480.292727 265.306217 
L 480.292727 265.306217 
" clip-path="url(#p140e858759)" style="fill: none; stroke: #ff7f0e; stroke-linecap: square"/>
   </g>
   <g id="line2d_38">
    <path d="M -1 47.883473 
L 92.547273 47.889999 
L 154.214472 58.408622 
L 170.362614 59.560209 
L 182.888087 62.877668 
L 193.122143 66.549644 
L 201.774914 70.029114 
L 209.270285 73.322894 
L 215.881671 75.474353 
L 221.795758 78.197597 
L 227.145699 79.944063 
L 240.682585 86.130474 
L 244.555286 88.439568 
L 248.177956 90.411953 
L 251.580931 91.788591 
L 254.789342 93.876115 
L 257.824238 96.160493 
L 260.703428 97.370483 
L 263.442113 98.722011 
L 266.05337 100.497869 
L 268.548532 101.623644 
L 270.937484 102.574003 
L 273.228901 104.383191 
L 275.430434 105.688586 
L 279.590256 108.479371 
L 281.559998 111.125658 
L 283.462957 112.348513 
L 285.303512 114.293639 
L 287.085627 116.471676 
L 288.812899 118.830909 
L 290.488602 119.397967 
L 293.697013 123.977426 
L 295.234969 125.534696 
L 296.731909 127.609433 
L 298.189962 129.933124 
L 299.611099 130.866152 
L 300.997143 133.074271 
L 302.349784 134.113358 
L 303.670596 136.168211 
L 304.961041 139.822477 
L 306.222485 137.866736 
L 307.456203 140.113813 
L 308.663387 142.052588 
L 309.845155 145.264253 
L 311.002555 145.802433 
L 312.136572 146.997105 
L 313.248131 150.173992 
L 314.338105 150.552691 
L 315.407316 152.053898 
L 316.456541 154.387527 
L 317.486513 156.341568 
L 318.497926 157.349659 
L 319.491437 159.505742 
L 320.467669 160.826399 
L 321.427212 164.670858 
L 322.370628 165.38212 
L 323.298449 167.467897 
L 324.211183 168.763631 
L 325.109312 171.086556 
L 325.993298 174.801965 
L 326.863577 175.497653 
L 327.72057 177.153613 
L 328.564674 180.978019 
L 329.396273 181.258912 
L 330.215732 182.951151 
L 331.023399 185.497176 
L 331.819609 186.956691 
L 332.604684 188.028953 
L 333.378929 190.77679 
L 334.8961 194.328724 
L 335.63958 197.535472 
L 336.373341 199.382358 
L 337.097633 199.81459 
L 338.51877 205.63359 
L 339.21607 206.943184 
L 339.904813 208.868787 
L 341.257455 213.939505 
L 341.921746 215.207961 
L 342.578266 217.516273 
L 343.227197 218.882015 
L 343.868712 220.714022 
L 345.750404 227.086649 
L 346.970711 230.115269 
L 347.571058 232.784863 
L 348.752826 235.522955 
L 349.334509 237.42129 
L 350.480098 240.412705 
L 351.044242 241.312538 
L 351.602773 242.569241 
L 353.782927 245.6583 
L 355.364212 247.351408 
L 356.394184 248.072916 
L 357.405597 248.822928 
L 361.744126 251.238983 
L 364.900969 252.574646 
L 367.472345 253.453313 
L 369.123402 254.060531 
L 372.2866 255.01248 
L 372.669754 255.119997 
L 373.050311 255.390537 
L 373.803771 255.478832 
L 374.91533 256.054459 
L 376.72037 256.603024 
L 377.074516 257.026295 
L 377.426441 257.243759 
L 377.776174 257.20502 
L 378.123741 257.294396 
L 378.469169 257.782763 
L 381.158637 258.590919 
L 381.485937 258.81675 
L 381.811341 259.398003 
L 383.094411 259.831962 
L 383.725114 260.080022 
L 387.660497 261.22943 
L 388.24218 261.615661 
L 389.103556 262.364616 
L 390.510444 262.84249 
L 392.422665 263.468446 
L 392.690598 263.701798 
L 392.957258 263.647385 
L 393.222658 263.736871 
L 393.749722 264.023656 
L 396.563299 264.928514 
L 398.283011 265.549005 
L 398.524439 265.748976 
L 399.004201 265.815044 
L 399.716244 266.081137 
L 400.185969 266.393956 
L 405.95955 268.700922 
L 411.386175 271.102931 
L 417.891029 274.253219 
L 423.411325 277.305513 
L 429.418115 280.994578 
L 433.953799 284.07008 
L 438.387569 287.344603 
L 440.493635 289 
L 440.493635 289 
" clip-path="url(#p140e858759)" style="fill: none; stroke: #2ca02c; stroke-linecap: square"/>
   </g>
   <g id="line2d_39">
    <path d="M -1 48.531055 
L 92.547273 48.537727 
L 154.214472 62.189605 
L 170.362614 64.441316 
L 193.122143 70.946908 
L 201.774914 74.997235 
L 209.270285 78.251937 
L 215.881671 80.886703 
L 221.795758 82.858582 
L 227.145699 85.540978 
L 232.029814 87.667636 
L 236.522763 91.026587 
L 240.682585 93.871528 
L 244.555286 96.185869 
L 251.580931 102.037981 
L 254.789342 104.590066 
L 257.824238 107.676719 
L 263.442113 113.792424 
L 266.05337 116.651907 
L 268.548532 120.304654 
L 270.937484 122.56621 
L 273.228901 125.991563 
L 275.430434 127.551192 
L 279.590256 134.213197 
L 281.559998 136.098085 
L 287.085627 142.882455 
L 288.812899 146.741591 
L 290.488602 148.195 
L 292.115728 151.873391 
L 293.697013 154.604863 
L 295.234969 156.318649 
L 296.731909 159.792521 
L 298.189962 161.008639 
L 299.611099 162.704477 
L 300.997143 165.563281 
L 303.670596 169.798519 
L 304.961041 174.192174 
L 306.222485 176.701735 
L 307.456203 179.508614 
L 309.845155 186.284285 
L 311.002555 187.430435 
L 312.136572 190.696465 
L 313.248131 192.164488 
L 314.338105 194.590813 
L 316.456541 200.960479 
L 317.486513 202.058825 
L 318.497926 205.190232 
L 319.491437 210.624341 
L 320.467669 212.393679 
L 321.427212 216.361873 
L 322.370628 216.286429 
L 324.211183 222.911504 
L 325.109312 225.027934 
L 325.993298 226.775553 
L 326.863577 230.323984 
L 327.72057 231.834837 
L 328.564674 232.98333 
L 329.396273 236.946511 
L 330.215732 238.331412 
L 331.023399 239.936908 
L 331.819609 243.151811 
L 334.14264 248.93878 
L 334.8961 250.772441 
L 335.63958 251.923189 
L 336.373341 253.934758 
L 337.097633 254.597631 
L 338.51877 255.474612 
L 339.21607 256.123106 
L 341.257455 256.946915 
L 342.578266 257.742552 
L 347.571058 259.935881 
L 351.044242 260.927425 
L 358.399108 263.639303 
L 375.281011 268.972158 
L 376.363976 269.323243 
L 378.812484 270.104793 
L 389.387769 274.690354 
L 392.422665 276.191753 
L 393.486809 276.726834 
L 395.301855 277.632621 
L 399.242554 279.431013 
L 402.924654 281.67879 
L 409.832251 286.186123 
L 413.69857 289 
L 413.69857 289 
" clip-path="url(#p140e858759)" style="fill: none; stroke: #d62728; stroke-linecap: square"/>
   </g>
   <g id="line2d_40">
    <path d="M -1 50.870805 
L 92.547273 50.878137 
L 131.454944 63.430474 
L 154.214472 73.14254 
L 182.888087 88.270121 
L 193.122143 94.815598 
L 201.774914 100.831713 
L 209.270285 106.957526 
L 215.881671 113.547027 
L 221.795758 120.088145 
L 227.145699 126.202173 
L 232.029814 133.408284 
L 236.522763 140.606732 
L 240.682585 146.195824 
L 244.555286 152.761257 
L 248.177956 159.886397 
L 251.580931 166.193946 
L 254.789342 172.556957 
L 257.824238 179.739743 
L 263.442113 193.83368 
L 266.05337 201.647396 
L 268.548532 208.572339 
L 270.937484 214.622484 
L 273.228901 221.737486 
L 277.548871 236.38889 
L 279.590256 242.666175 
L 285.303512 261.518961 
L 287.085627 266.417271 
L 288.812899 270.360745 
L 290.488602 272.480505 
L 293.697013 275.33115 
L 296.731909 277.195439 
L 299.611099 278.836242 
L 302.349784 280.219826 
L 317.486513 287.118775 
L 321.118634 289 
L 321.118634 289 
" clip-path="url(#p140e858759)" style="fill: none; stroke: #9467bd; stroke-linecap: square"/>
   </g>
   <g id="patch_3">
    <path d="M 73.16 234.78125 
L 73.16 35.757812 
" style="fill: none; stroke: #000000; stroke-width: 0.8; stroke-linejoin: miter; stroke-linecap: square"/>
   </g>
   <g id="patch_4">
    <path d="M 499.68 234.78125 
L 499.68 35.757812 
" style="fill: none; stroke: #000000; stroke-width: 0.8; stroke-linejoin: miter; stroke-linecap: square"/>
   </g>
   <g id="patch_5">
    <path d="M 73.16 234.78125 
L 499.68 234.78125 
" style="fill: none; stroke: #000000; stroke-width: 0.8; stroke-linejoin: miter; stroke-linecap: square"/>
   </g>
   <g id="patch_6">
    <path d="M 73.16 35.757812 
L 499.68 35.757812 
" style="fill: none; stroke: #000000; stroke-width: 0.8; stroke-linejoin: miter; stroke-linecap: square"/>
   </g>
   <g id="text_12">
    <!-- 2-norm of KKT over iterations -->
    <g transform="translate(183.758438 25.757812) scale(0.14 -0.14)">
     <defs>
      <path id="DejaVuSans-2d" d="M 313 2009 
L 1997 2009 
L 1997 1497 
L 313 1497 
L 313 2009 
z
" transform="scale(0.015625)"/>
      <path id="DejaVuSans-6d" d="M 3328 2828 
Q 3544 3216 3844 3400 
Q 4144 3584 4550 3584 
Q 5097 3584 5394 3201 
Q 5691 2819 5691 2113 
L 5691 0 
L 5113 0 
L 5113 2094 
Q 5113 2597 4934 2840 
Q 4756 3084 4391 3084 
Q 3944 3084 3684 2787 
Q 3425 2491 3425 1978 
L 3425 0 
L 2847 0 
L 2847 2094 
Q 2847 2600 2669 2842 
Q 2491 3084 2119 3084 
Q 1678 3084 1418 2786 
Q 1159 2488 1159 1978 
L 1159 0 
L 581 0 
L 581 3500 
L 1159 3500 
L 1159 2956 
Q 1356 3278 1631 3431 
Q 1906 3584 2284 3584 
Q 2666 3584 2933 3390 
Q 3200 3197 3328 2828 
z
" transform="scale(0.015625)"/>
      <path id="DejaVuSans-20" transform="scale(0.015625)"/>
      <path id="DejaVuSans-66" d="M 2375 4863 
L 2375 4384 
L 1825 4384 
Q 1516 4384 1395 4259 
Q 1275 4134 1275 3809 
L 1275 3500 
L 2222 3500 
L 2222 3053 
L 1275 3053 
L 1275 0 
L 697 0 
L 697 3053 
L 147 3053 
L 147 3500 
L 697 3500 
L 697 3744 
Q 697 4328 969 4595 
Q 1241 4863 1831 4863 
L 2375 4863 
z
" transform="scale(0.015625)"/>
      <path id="DejaVuSans-76" d="M 191 3500 
L 800 3500 
L 1894 563 
L 2988 3500 
L 3597 3500 
L 2284 0 
L 1503 0 
L 191 3500 
z
" transform="scale(0.015625)"/>
      <path id="DejaVuSans-73" d="M 2834 3397 
L 2834 2853 
Q 2591 2978 2328 3040 
Q 2066 3103 1784 3103 
Q 1356 3103 1142 2972 
Q 928 2841 928 2578 
Q 928 2378 1081 2264 
Q 1234 2150 1697 2047 
L 1894 2003 
Q 2506 1872 2764 1633 
Q 3022 1394 3022 966 
Q 3022 478 2636 193 
Q 2250 -91 1575 -91 
Q 1294 -91 989 -36 
Q 684 19 347 128 
L 347 722 
Q 666 556 975 473 
Q 1284 391 1588 391 
Q 1994 391 2212 530 
Q 2431 669 2431 922 
Q 2431 1156 2273 1281 
Q 2116 1406 1581 1522 
L 1381 1569 
Q 847 1681 609 1914 
Q 372 2147 372 2553 
Q 372 3047 722 3315 
Q 1072 3584 1716 3584 
Q 2034 3584 2315 3537 
Q 2597 3491 2834 3397 
z
" transform="scale(0.015625)"/>
     </defs>
     <use xlink:href="#DejaVuSans-32"/>
     <use xlink:href="#DejaVuSans-2d" x="63.623047"/>
     <use xlink:href="#DejaVuSans-6e" x="99.707031"/>
     <use xlink:href="#DejaVuSans-6f" x="163.085938"/>
     <use xlink:href="#DejaVuSans-72" x="224.267578"/>
     <use xlink:href="#DejaVuSans-6d" x="263.630859"/>
     <use xlink:href="#DejaVuSans-20" x="361.042969"/>
     <use xlink:href="#DejaVuSans-6f" x="392.830078"/>
     <use xlink:href="#DejaVuSans-66" x="454.011719"/>
     <use xlink:href="#DejaVuSans-20" x="489.216797"/>
     <use xlink:href="#DejaVuSans-4b" x="521.003906"/>
     <use xlink:href="#DejaVuSans-4b" x="586.580078"/>
     <use xlink:href="#DejaVuSans-54" x="644.40625"/>
     <use xlink:href="#DejaVuSans-20" x="705.490234"/>
     <use xlink:href="#DejaVuSans-6f" x="737.277344"/>
     <use xlink:href="#DejaVuSans-76" x="798.458984"/>
     <use xlink:href="#DejaVuSans-65" x="857.638672"/>
     <use xlink:href="#DejaVuSans-72" x="919.162109"/>
     <use xlink:href="#DejaVuSans-20" x="960.275391"/>
     <use xlink:href="#DejaVuSans-69" x="992.0625"/>
     <use xlink:href="#DejaVuSans-74" x="1019.845703"/>
     <use xlink:href="#DejaVuSans-65" x="1059.054688"/>
     <use xlink:href="#DejaVuSans-72" x="1120.578125"/>
     <use xlink:href="#DejaVuSans-61" x="1161.691406"/>
     <use xlink:href="#DejaVuSans-74" x="1222.970703"/>
     <use xlink:href="#DejaVuSans-69" x="1262.179688"/>
     <use xlink:href="#DejaVuSans-6f" x="1289.962891"/>
     <use xlink:href="#DejaVuSans-6e" x="1351.144531"/>
     <use xlink:href="#DejaVuSans-73" x="1414.523438"/>
    </g>
   </g>
   <g id="legend_1">
    <g id="patch_7">
     <path d="M 391.41 133.426562 
L 491.28 133.426562 
Q 493.68 133.426562 493.68 131.026562 
L 493.68 44.157812 
Q 493.68 41.757812 491.28 41.757812 
L 391.41 41.757812 
Q 389.01 41.757812 389.01 44.157812 
L 389.01 131.026562 
Q 389.01 133.426562 391.41 133.426562 
z
" style="fill: #ffffff; opacity: 0.8; stroke: #cccccc; stroke-linejoin: miter"/>
    </g>
    <g id="line2d_41">
     <path d="M 393.81 51.475937 
L 405.81 51.475937 
L 417.81 51.475937 
" style="fill: none; stroke: #1f77b4; stroke-linecap: square"/>
    </g>
    <g id="text_13">
     <!-- max -->
     <g transform="translate(427.41 55.675937) scale(0.12 -0.12)">
      <defs>
       <path id="DejaVuSans-78" d="M 3513 3500 
L 2247 1797 
L 3578 0 
L 2900 0 
L 1881 1375 
L 863 0 
L 184 0 
L 1544 1831 
L 300 3500 
L 978 3500 
L 1906 2253 
L 2834 3500 
L 3513 3500 
z
" transform="scale(0.015625)"/>
      </defs>
      <use xlink:href="#DejaVuSans-6d"/>
      <use xlink:href="#DejaVuSans-61" x="97.412109"/>
      <use xlink:href="#DejaVuSans-78" x="158.691406"/>
     </g>
    </g>
    <g id="line2d_42">
     <path d="M 393.81 69.089687 
L 405.81 69.089687 
L 417.81 69.089687 
" style="fill: none; stroke: #ff7f0e; stroke-linecap: square"/>
    </g>
    <g id="text_14">
     <!-- 99th perc. -->
     <g transform="translate(427.41 73.289687) scale(0.12 -0.12)">
      <defs>
       <path id="DejaVuSans-39" d="M 703 97 
L 703 672 
Q 941 559 1184 500 
Q 1428 441 1663 441 
Q 2288 441 2617 861 
Q 2947 1281 2994 2138 
Q 2813 1869 2534 1725 
Q 2256 1581 1919 1581 
Q 1219 1581 811 2004 
Q 403 2428 403 3163 
Q 403 3881 828 4315 
Q 1253 4750 1959 4750 
Q 2769 4750 3195 4129 
Q 3622 3509 3622 2328 
Q 3622 1225 3098 567 
Q 2575 -91 1691 -91 
Q 1453 -91 1209 -44 
Q 966 3 703 97 
z
M 1959 2075 
Q 2384 2075 2632 2365 
Q 2881 2656 2881 3163 
Q 2881 3666 2632 3958 
Q 2384 4250 1959 4250 
Q 1534 4250 1286 3958 
Q 1038 3666 1038 3163 
Q 1038 2656 1286 2365 
Q 1534 2075 1959 2075 
z
" transform="scale(0.015625)"/>
       <path id="DejaVuSans-68" d="M 3513 2113 
L 3513 0 
L 2938 0 
L 2938 2094 
Q 2938 2591 2744 2837 
Q 2550 3084 2163 3084 
Q 1697 3084 1428 2787 
Q 1159 2491 1159 1978 
L 1159 0 
L 581 0 
L 581 4863 
L 1159 4863 
L 1159 2956 
Q 1366 3272 1645 3428 
Q 1925 3584 2291 3584 
Q 2894 3584 3203 3211 
Q 3513 2838 3513 2113 
z
" transform="scale(0.015625)"/>
       <path id="DejaVuSans-70" d="M 1159 525 
L 1159 -1331 
L 581 -1331 
L 581 3500 
L 1159 3500 
L 1159 2969 
Q 1341 3281 1617 3432 
Q 1894 3584 2278 3584 
Q 2916 3584 3314 3078 
Q 3713 2572 3713 1747 
Q 3713 922 3314 415 
Q 2916 -91 2278 -91 
Q 1894 -91 1617 61 
Q 1341 213 1159 525 
z
M 3116 1747 
Q 3116 2381 2855 2742 
Q 2594 3103 2138 3103 
Q 1681 3103 1420 2742 
Q 1159 2381 1159 1747 
Q 1159 1113 1420 752 
Q 1681 391 2138 391 
Q 2594 391 2855 752 
Q 3116 1113 3116 1747 
z
" transform="scale(0.015625)"/>
       <path id="DejaVuSans-63" d="M 3122 3366 
L 3122 2828 
Q 2878 2963 2633 3030 
Q 2388 3097 2138 3097 
Q 1578 3097 1268 2742 
Q 959 2388 959 1747 
Q 959 1106 1268 751 
Q 1578 397 2138 397 
Q 2388 397 2633 464 
Q 2878 531 3122 666 
L 3122 134 
Q 2881 22 2623 -34 
Q 2366 -91 2075 -91 
Q 1284 -91 818 406 
Q 353 903 353 1747 
Q 353 2603 823 3093 
Q 1294 3584 2113 3584 
Q 2378 3584 2631 3529 
Q 2884 3475 3122 3366 
z
" transform="scale(0.015625)"/>
       <path id="DejaVuSans-2e" d="M 684 794 
L 1344 794 
L 1344 0 
L 684 0 
L 684 794 
z
" transform="scale(0.015625)"/>
      </defs>
      <use xlink:href="#DejaVuSans-39"/>
      <use xlink:href="#DejaVuSans-39" x="63.623047"/>
      <use xlink:href="#DejaVuSans-74" x="127.246094"/>
      <use xlink:href="#DejaVuSans-68" x="166.455078"/>
      <use xlink:href="#DejaVuSans-20" x="229.833984"/>
      <use xlink:href="#DejaVuSans-70" x="261.621094"/>
      <use xlink:href="#DejaVuSans-65" x="325.097656"/>
      <use xlink:href="#DejaVuSans-72" x="386.621094"/>
      <use xlink:href="#DejaVuSans-63" x="425.484375"/>
      <use xlink:href="#DejaVuSans-2e" x="480.464844"/>
     </g>
    </g>
    <g id="line2d_43">
     <path d="M 393.81 86.703437 
L 405.81 86.703437 
L 417.81 86.703437 
" style="fill: none; stroke: #2ca02c; stroke-linecap: square"/>
    </g>
    <g id="text_15">
     <!-- 95th perc. -->
     <g transform="translate(427.41 90.903437) scale(0.12 -0.12)">
      <defs>
       <path id="DejaVuSans-35" d="M 691 4666 
L 3169 4666 
L 3169 4134 
L 1269 4134 
L 1269 2991 
Q 1406 3038 1543 3061 
Q 1681 3084 1819 3084 
Q 2600 3084 3056 2656 
Q 3513 2228 3513 1497 
Q 3513 744 3044 326 
Q 2575 -91 1722 -91 
Q 1428 -91 1123 -41 
Q 819 9 494 109 
L 494 744 
Q 775 591 1075 516 
Q 1375 441 1709 441 
Q 2250 441 2565 725 
Q 2881 1009 2881 1497 
Q 2881 1984 2565 2268 
Q 2250 2553 1709 2553 
Q 1456 2553 1204 2497 
Q 953 2441 691 2322 
L 691 4666 
z
" transform="scale(0.015625)"/>
      </defs>
      <use xlink:href="#DejaVuSans-39"/>
      <use xlink:href="#DejaVuSans-35" x="63.623047"/>
      <use xlink:href="#DejaVuSans-74" x="127.246094"/>
      <use xlink:href="#DejaVuSans-68" x="166.455078"/>
      <use xlink:href="#DejaVuSans-20" x="229.833984"/>
      <use xlink:href="#DejaVuSans-70" x="261.621094"/>
      <use xlink:href="#DejaVuSans-65" x="325.097656"/>
      <use xlink:href="#DejaVuSans-72" x="386.621094"/>
      <use xlink:href="#DejaVuSans-63" x="425.484375"/>
      <use xlink:href="#DejaVuSans-2e" x="480.464844"/>
     </g>
    </g>
    <g id="line2d_44">
     <path d="M 393.81 104.317187 
L 405.81 104.317187 
L 417.81 104.317187 
" style="fill: none; stroke: #d62728; stroke-linecap: square"/>
    </g>
    <g id="text_16">
     <!-- 90th perc. -->
     <g transform="translate(427.41 108.517187) scale(0.12 -0.12)">
      <use xlink:href="#DejaVuSans-39"/>
      <use xlink:href="#DejaVuSans-30" x="63.623047"/>
      <use xlink:href="#DejaVuSans-74" x="127.246094"/>
      <use xlink:href="#DejaVuSans-68" x="166.455078"/>
      <use xlink:href="#DejaVuSans-20" x="229.833984"/>
      <use xlink:href="#DejaVuSans-70" x="261.621094"/>
      <use xlink:href="#DejaVuSans-65" x="325.097656"/>
      <use xlink:href="#DejaVuSans-72" x="386.621094"/>
      <use xlink:href="#DejaVuSans-63" x="425.484375"/>
      <use xlink:href="#DejaVuSans-2e" x="480.464844"/>
     </g>
    </g>
    <g id="line2d_45">
     <path d="M 393.81 121.930937 
L 405.81 121.930937 
L 417.81 121.930937 
" style="fill: none; stroke: #9467bd; stroke-linecap: square"/>
    </g>
    <g id="text_17">
     <!-- 50th perc. -->
     <g transform="translate(427.41 126.130937) scale(0.12 -0.12)">
      <use xlink:href="#DejaVuSans-35"/>
      <use xlink:href="#DejaVuSans-30" x="63.623047"/>
      <use xlink:href="#DejaVuSans-74" x="127.246094"/>
      <use xlink:href="#DejaVuSans-68" x="166.455078"/>
      <use xlink:href="#DejaVuSans-20" x="229.833984"/>
      <use xlink:href="#DejaVuSans-70" x="261.621094"/>
      <use xlink:href="#DejaVuSans-65" x="325.097656"/>
      <use xlink:href="#DejaVuSans-72" x="386.621094"/>
      <use xlink:href="#DejaVuSans-63" x="425.484375"/>
      <use xlink:href="#DejaVuSans-2e" x="480.464844"/>
     </g>
    </g>
   </g>
  </g>
 </g>
 <defs>
  <clipPath id="p140e858759">
   <rect x="73.16" y="35.757812" width="426.52" height="199.023438"/>
  </clipPath>
 </defs>
</svg>
