<?xml version="1.0" encoding="utf-8" standalone="no"?>
<!DOCTYPE svg PUBLIC "-//W3C//DTD SVG 1.1//EN"
  "http://www.w3.org/Graphics/SVG/1.1/DTD/svg11.dtd">
<svg xmlns:xlink="http://www.w3.org/1999/xlink" width="514.8pt" height="288pt" viewBox="0 0 514.8 288" xmlns="http://www.w3.org/2000/svg" version="1.1">
 <metadata>
  <rdf:RDF xmlns:dc="http://purl.org/dc/elements/1.1/" xmlns:cc="http://creativecommons.org/ns#" xmlns:rdf="http://www.w3.org/1999/02/22-rdf-syntax-ns#">
   <cc:Work>
    <dc:type rdf:resource="http://purl.org/dc/dcmitype/StillImage"/>
    <dc:date>2023-11-14T17:28:30.239589</dc:date>
    <dc:format>image/svg+xml</dc:format>
    <dc:creator>
     <cc:Agent>
      <dc:title>Matplotlib v3.8.0, https://matplotlib.org/</dc:title>
     </cc:Agent>
    </dc:creator>
   </cc:Work>
  </rdf:RDF>
 </metadata>
 <defs>
  <style type="text/css">*{stroke-linejoin: round; stroke-linecap: butt}</style>
 </defs>
 <g id="figure_1">
  <g id="patch_1">
   <path d="M 0 288 
L 514.8 288 
L 514.8 0 
L 0 0 
z
" style="fill: #ffffff"/>
  </g>
  <g id="axes_1">
   <g id="patch_2">
    <path d="M 76.24 234.78125 
L 499.68 234.78125 
L 499.68 35.757812 
L 76.24 35.757812 
z
" style="fill: #ffffff"/>
   </g>
   <g id="matplotlib.axis_1">
    <g id="xtick_1">
     <g id="line2d_1">
      <defs>
       <path id="m55923e34c2" d="M 0 0 
L 0 3.5 
" style="stroke: #000000; stroke-width: 0.8"/>
      </defs>
      <g>
       <use xlink:href="#m55923e34c2" x="95.487273" y="234.78125" style="stroke: #000000; stroke-width: 0.8"/>
      </g>
     </g>
     <g id="text_1">
      <!-- $\mathdefault{10^{0}}$ -->
      <g transform="translate(83.167273 252.419063) scale(0.14 -0.14)">
       <defs>
        <path id="DejaVuSans-31" d="M 794 531 
L 1825 531 
L 1825 4091 
L 703 3866 
L 703 4441 
L 1819 4666 
L 2450 4666 
L 2450 531 
L 3481 531 
L 3481 0 
L 794 0 
L 794 531 
z
" transform="scale(0.015625)"/>
        <path id="DejaVuSans-30" d="M 2034 4250 
Q 1547 4250 1301 3770 
Q 1056 3291 1056 2328 
Q 1056 1369 1301 889 
Q 1547 409 2034 409 
Q 2525 409 2770 889 
Q 3016 1369 3016 2328 
Q 3016 3291 2770 3770 
Q 2525 4250 2034 4250 
z
M 2034 4750 
Q 2819 4750 3233 4129 
Q 3647 3509 3647 2328 
Q 3647 1150 3233 529 
Q 2819 -91 2034 -91 
Q 1250 -91 836 529 
Q 422 1150 422 2328 
Q 422 3509 836 4129 
Q 1250 4750 2034 4750 
z
" transform="scale(0.015625)"/>
       </defs>
       <use xlink:href="#DejaVuSans-31" transform="translate(0 0.765625)"/>
       <use xlink:href="#DejaVuSans-30" transform="translate(63.623047 0.765625)"/>
       <use xlink:href="#DejaVuSans-30" transform="translate(128.203125 39.046875) scale(0.7)"/>
      </g>
     </g>
    </g>
    <g id="xtick_2">
     <g id="line2d_2">
      <g>
       <use xlink:href="#m55923e34c2" x="223.802424" y="234.78125" style="stroke: #000000; stroke-width: 0.8"/>
      </g>
     </g>
     <g id="text_2">
      <!-- $\mathdefault{10^{1}}$ -->
      <g transform="translate(211.482424 252.419063) scale(0.14 -0.14)">
       <use xlink:href="#DejaVuSans-31" transform="translate(0 0.684375)"/>
       <use xlink:href="#DejaVuSans-30" transform="translate(63.623047 0.684375)"/>
       <use xlink:href="#DejaVuSans-31" transform="translate(128.203125 38.965625) scale(0.7)"/>
      </g>
     </g>
    </g>
    <g id="xtick_3">
     <g id="line2d_3">
      <g>
       <use xlink:href="#m55923e34c2" x="352.117576" y="234.78125" style="stroke: #000000; stroke-width: 0.8"/>
      </g>
     </g>
     <g id="text_3">
      <!-- $\mathdefault{10^{2}}$ -->
      <g transform="translate(339.797576 252.419063) scale(0.14 -0.14)">
       <defs>
        <path id="DejaVuSans-32" d="M 1228 531 
L 3431 531 
L 3431 0 
L 469 0 
L 469 531 
Q 828 903 1448 1529 
Q 2069 2156 2228 2338 
Q 2531 2678 2651 2914 
Q 2772 3150 2772 3378 
Q 2772 3750 2511 3984 
Q 2250 4219 1831 4219 
Q 1534 4219 1204 4116 
Q 875 4013 500 3803 
L 500 4441 
Q 881 4594 1212 4672 
Q 1544 4750 1819 4750 
Q 2544 4750 2975 4387 
Q 3406 4025 3406 3419 
Q 3406 3131 3298 2873 
Q 3191 2616 2906 2266 
Q 2828 2175 2409 1742 
Q 1991 1309 1228 531 
z
" transform="scale(0.015625)"/>
       </defs>
       <use xlink:href="#DejaVuSans-31" transform="translate(0 0.765625)"/>
       <use xlink:href="#DejaVuSans-30" transform="translate(63.623047 0.765625)"/>
       <use xlink:href="#DejaVuSans-32" transform="translate(128.203125 39.046875) scale(0.7)"/>
      </g>
     </g>
    </g>
    <g id="xtick_4">
     <g id="line2d_4">
      <g>
       <use xlink:href="#m55923e34c2" x="480.432727" y="234.78125" style="stroke: #000000; stroke-width: 0.8"/>
      </g>
     </g>
     <g id="text_4">
      <!-- $\mathdefault{10^{3}}$ -->
      <g transform="translate(468.112727 252.419063) scale(0.14 -0.14)">
       <defs>
        <path id="DejaVuSans-33" d="M 2597 2516 
Q 3050 2419 3304 2112 
Q 3559 1806 3559 1356 
Q 3559 666 3084 287 
Q 2609 -91 1734 -91 
Q 1441 -91 1130 -33 
Q 819 25 488 141 
L 488 750 
Q 750 597 1062 519 
Q 1375 441 1716 441 
Q 2309 441 2620 675 
Q 2931 909 2931 1356 
Q 2931 1769 2642 2001 
Q 2353 2234 1838 2234 
L 1294 2234 
L 1294 2753 
L 1863 2753 
Q 2328 2753 2575 2939 
Q 2822 3125 2822 3475 
Q 2822 3834 2567 4026 
Q 2313 4219 1838 4219 
Q 1578 4219 1281 4162 
Q 984 4106 628 3988 
L 628 4550 
Q 988 4650 1302 4700 
Q 1616 4750 1894 4750 
Q 2613 4750 3031 4423 
Q 3450 4097 3450 3541 
Q 3450 3153 3228 2886 
Q 3006 2619 2597 2516 
z
" transform="scale(0.015625)"/>
       </defs>
       <use xlink:href="#DejaVuSans-31" transform="translate(0 0.765625)"/>
       <use xlink:href="#DejaVuSans-30" transform="translate(63.623047 0.765625)"/>
       <use xlink:href="#DejaVuSans-33" transform="translate(128.203125 39.046875) scale(0.7)"/>
      </g>
     </g>
    </g>
    <g id="xtick_5">
     <g id="line2d_5">
      <defs>
       <path id="m442048aa41" d="M 0 0 
L 0 2 
" style="stroke: #000000; stroke-width: 0.6"/>
      </defs>
      <g>
       <use xlink:href="#m442048aa41" x="83.05225" y="234.78125" style="stroke: #000000; stroke-width: 0.6"/>
      </g>
     </g>
    </g>
    <g id="xtick_6">
     <g id="line2d_6">
      <g>
       <use xlink:href="#m442048aa41" x="89.615893" y="234.78125" style="stroke: #000000; stroke-width: 0.6"/>
      </g>
     </g>
    </g>
    <g id="xtick_7">
     <g id="line2d_7">
      <g>
       <use xlink:href="#m442048aa41" x="134.113982" y="234.78125" style="stroke: #000000; stroke-width: 0.6"/>
      </g>
     </g>
    </g>
    <g id="xtick_8">
     <g id="line2d_8">
      <g>
       <use xlink:href="#m442048aa41" x="156.709159" y="234.78125" style="stroke: #000000; stroke-width: 0.6"/>
      </g>
     </g>
    </g>
    <g id="xtick_9">
     <g id="line2d_9">
      <g>
       <use xlink:href="#m442048aa41" x="172.740692" y="234.78125" style="stroke: #000000; stroke-width: 0.6"/>
      </g>
     </g>
    </g>
    <g id="xtick_10">
     <g id="line2d_10">
      <g>
       <use xlink:href="#m442048aa41" x="185.175715" y="234.78125" style="stroke: #000000; stroke-width: 0.6"/>
      </g>
     </g>
    </g>
    <g id="xtick_11">
     <g id="line2d_11">
      <g>
       <use xlink:href="#m442048aa41" x="195.335868" y="234.78125" style="stroke: #000000; stroke-width: 0.6"/>
      </g>
     </g>
    </g>
    <g id="xtick_12">
     <g id="line2d_12">
      <g>
       <use xlink:href="#m442048aa41" x="203.926156" y="234.78125" style="stroke: #000000; stroke-width: 0.6"/>
      </g>
     </g>
    </g>
    <g id="xtick_13">
     <g id="line2d_13">
      <g>
       <use xlink:href="#m442048aa41" x="211.367401" y="234.78125" style="stroke: #000000; stroke-width: 0.6"/>
      </g>
     </g>
    </g>
    <g id="xtick_14">
     <g id="line2d_14">
      <g>
       <use xlink:href="#m442048aa41" x="217.931045" y="234.78125" style="stroke: #000000; stroke-width: 0.6"/>
      </g>
     </g>
    </g>
    <g id="xtick_15">
     <g id="line2d_15">
      <g>
       <use xlink:href="#m442048aa41" x="262.429134" y="234.78125" style="stroke: #000000; stroke-width: 0.6"/>
      </g>
     </g>
    </g>
    <g id="xtick_16">
     <g id="line2d_16">
      <g>
       <use xlink:href="#m442048aa41" x="285.02431" y="234.78125" style="stroke: #000000; stroke-width: 0.6"/>
      </g>
     </g>
    </g>
    <g id="xtick_17">
     <g id="line2d_17">
      <g>
       <use xlink:href="#m442048aa41" x="301.055843" y="234.78125" style="stroke: #000000; stroke-width: 0.6"/>
      </g>
     </g>
    </g>
    <g id="xtick_18">
     <g id="line2d_18">
      <g>
       <use xlink:href="#m442048aa41" x="313.490866" y="234.78125" style="stroke: #000000; stroke-width: 0.6"/>
      </g>
     </g>
    </g>
    <g id="xtick_19">
     <g id="line2d_19">
      <g>
       <use xlink:href="#m442048aa41" x="323.65102" y="234.78125" style="stroke: #000000; stroke-width: 0.6"/>
      </g>
     </g>
    </g>
    <g id="xtick_20">
     <g id="line2d_20">
      <g>
       <use xlink:href="#m442048aa41" x="332.241307" y="234.78125" style="stroke: #000000; stroke-width: 0.6"/>
      </g>
     </g>
    </g>
    <g id="xtick_21">
     <g id="line2d_21">
      <g>
       <use xlink:href="#m442048aa41" x="339.682553" y="234.78125" style="stroke: #000000; stroke-width: 0.6"/>
      </g>
     </g>
    </g>
    <g id="xtick_22">
     <g id="line2d_22">
      <g>
       <use xlink:href="#m442048aa41" x="346.246196" y="234.78125" style="stroke: #000000; stroke-width: 0.6"/>
      </g>
     </g>
    </g>
    <g id="xtick_23">
     <g id="line2d_23">
      <g>
       <use xlink:href="#m442048aa41" x="390.744285" y="234.78125" style="stroke: #000000; stroke-width: 0.6"/>
      </g>
     </g>
    </g>
    <g id="xtick_24">
     <g id="line2d_24">
      <g>
       <use xlink:href="#m442048aa41" x="413.339462" y="234.78125" style="stroke: #000000; stroke-width: 0.6"/>
      </g>
     </g>
    </g>
    <g id="xtick_25">
     <g id="line2d_25">
      <g>
       <use xlink:href="#m442048aa41" x="429.370995" y="234.78125" style="stroke: #000000; stroke-width: 0.6"/>
      </g>
     </g>
    </g>
    <g id="xtick_26">
     <g id="line2d_26">
      <g>
       <use xlink:href="#m442048aa41" x="441.806018" y="234.78125" style="stroke: #000000; stroke-width: 0.6"/>
      </g>
     </g>
    </g>
    <g id="xtick_27">
     <g id="line2d_27">
      <g>
       <use xlink:href="#m442048aa41" x="451.966171" y="234.78125" style="stroke: #000000; stroke-width: 0.6"/>
      </g>
     </g>
    </g>
    <g id="xtick_28">
     <g id="line2d_28">
      <g>
       <use xlink:href="#m442048aa41" x="460.556459" y="234.78125" style="stroke: #000000; stroke-width: 0.6"/>
      </g>
     </g>
    </g>
    <g id="xtick_29">
     <g id="line2d_29">
      <g>
       <use xlink:href="#m442048aa41" x="467.997704" y="234.78125" style="stroke: #000000; stroke-width: 0.6"/>
      </g>
     </g>
    </g>
    <g id="xtick_30">
     <g id="line2d_30">
      <g>
       <use xlink:href="#m442048aa41" x="474.561348" y="234.78125" style="stroke: #000000; stroke-width: 0.6"/>
      </g>
     </g>
    </g>
    <g id="text_5">
     <!-- Iteration -->
     <g transform="translate(258.267969 269.968437) scale(0.14 -0.14)">
      <defs>
       <path id="DejaVuSans-49" d="M 628 4666 
L 1259 4666 
L 1259 0 
L 628 0 
L 628 4666 
z
" transform="scale(0.015625)"/>
       <path id="DejaVuSans-74" d="M 1172 4494 
L 1172 3500 
L 2356 3500 
L 2356 3053 
L 1172 3053 
L 1172 1153 
Q 1172 725 1289 603 
Q 1406 481 1766 481 
L 2356 481 
L 2356 0 
L 1766 0 
Q 1100 0 847 248 
Q 594 497 594 1153 
L 594 3053 
L 172 3053 
L 172 3500 
L 594 3500 
L 594 4494 
L 1172 4494 
z
" transform="scale(0.015625)"/>
       <path id="DejaVuSans-65" d="M 3597 1894 
L 3597 1613 
L 953 1613 
Q 991 1019 1311 708 
Q 1631 397 2203 397 
Q 2534 397 2845 478 
Q 3156 559 3463 722 
L 3463 178 
Q 3153 47 2828 -22 
Q 2503 -91 2169 -91 
Q 1331 -91 842 396 
Q 353 884 353 1716 
Q 353 2575 817 3079 
Q 1281 3584 2069 3584 
Q 2775 3584 3186 3129 
Q 3597 2675 3597 1894 
z
M 3022 2063 
Q 3016 2534 2758 2815 
Q 2500 3097 2075 3097 
Q 1594 3097 1305 2825 
Q 1016 2553 972 2059 
L 3022 2063 
z
" transform="scale(0.015625)"/>
       <path id="DejaVuSans-72" d="M 2631 2963 
Q 2534 3019 2420 3045 
Q 2306 3072 2169 3072 
Q 1681 3072 1420 2755 
Q 1159 2438 1159 1844 
L 1159 0 
L 581 0 
L 581 3500 
L 1159 3500 
L 1159 2956 
Q 1341 3275 1631 3429 
Q 1922 3584 2338 3584 
Q 2397 3584 2469 3576 
Q 2541 3569 2628 3553 
L 2631 2963 
z
" transform="scale(0.015625)"/>
       <path id="DejaVuSans-61" d="M 2194 1759 
Q 1497 1759 1228 1600 
Q 959 1441 959 1056 
Q 959 750 1161 570 
Q 1363 391 1709 391 
Q 2188 391 2477 730 
Q 2766 1069 2766 1631 
L 2766 1759 
L 2194 1759 
z
M 3341 1997 
L 3341 0 
L 2766 0 
L 2766 531 
Q 2569 213 2275 61 
Q 1981 -91 1556 -91 
Q 1019 -91 701 211 
Q 384 513 384 1019 
Q 384 1609 779 1909 
Q 1175 2209 1959 2209 
L 2766 2209 
L 2766 2266 
Q 2766 2663 2505 2880 
Q 2244 3097 1772 3097 
Q 1472 3097 1187 3025 
Q 903 2953 641 2809 
L 641 3341 
Q 956 3463 1253 3523 
Q 1550 3584 1831 3584 
Q 2591 3584 2966 3190 
Q 3341 2797 3341 1997 
z
" transform="scale(0.015625)"/>
       <path id="DejaVuSans-69" d="M 603 3500 
L 1178 3500 
L 1178 0 
L 603 0 
L 603 3500 
z
M 603 4863 
L 1178 4863 
L 1178 4134 
L 603 4134 
L 603 4863 
z
" transform="scale(0.015625)"/>
       <path id="DejaVuSans-6f" d="M 1959 3097 
Q 1497 3097 1228 2736 
Q 959 2375 959 1747 
Q 959 1119 1226 758 
Q 1494 397 1959 397 
Q 2419 397 2687 759 
Q 2956 1122 2956 1747 
Q 2956 2369 2687 2733 
Q 2419 3097 1959 3097 
z
M 1959 3584 
Q 2709 3584 3137 3096 
Q 3566 2609 3566 1747 
Q 3566 888 3137 398 
Q 2709 -91 1959 -91 
Q 1206 -91 779 398 
Q 353 888 353 1747 
Q 353 2609 779 3096 
Q 1206 3584 1959 3584 
z
" transform="scale(0.015625)"/>
       <path id="DejaVuSans-6e" d="M 3513 2113 
L 3513 0 
L 2938 0 
L 2938 2094 
Q 2938 2591 2744 2837 
Q 2550 3084 2163 3084 
Q 1697 3084 1428 2787 
Q 1159 2491 1159 1978 
L 1159 0 
L 581 0 
L 581 3500 
L 1159 3500 
L 1159 2956 
Q 1366 3272 1645 3428 
Q 1925 3584 2291 3584 
Q 2894 3584 3203 3211 
Q 3513 2838 3513 2113 
z
" transform="scale(0.015625)"/>
      </defs>
      <use xlink:href="#DejaVuSans-49"/>
      <use xlink:href="#DejaVuSans-74" x="29.492188"/>
      <use xlink:href="#DejaVuSans-65" x="68.701172"/>
      <use xlink:href="#DejaVuSans-72" x="130.224609"/>
      <use xlink:href="#DejaVuSans-61" x="171.337891"/>
      <use xlink:href="#DejaVuSans-74" x="232.617188"/>
      <use xlink:href="#DejaVuSans-69" x="271.826172"/>
      <use xlink:href="#DejaVuSans-6f" x="299.609375"/>
      <use xlink:href="#DejaVuSans-6e" x="360.791016"/>
     </g>
    </g>
   </g>
   <g id="matplotlib.axis_2">
    <g id="ytick_1">
     <g id="line2d_31">
      <defs>
       <path id="m7a0381dd47" d="M 0 0 
L -3.5 0 
" style="stroke: #000000; stroke-width: 0.8"/>
      </defs>
      <g>
       <use xlink:href="#m7a0381dd47" x="76.24" y="209.654408" style="stroke: #000000; stroke-width: 0.8"/>
      </g>
     </g>
     <g id="text_6">
      <!-- $\mathdefault{10^{-7}}$ -->
      <g transform="translate(36.34 214.973315) scale(0.14 -0.14)">
       <defs>
        <path id="DejaVuSans-2212" d="M 678 2272 
L 4684 2272 
L 4684 1741 
L 678 1741 
L 678 2272 
z
" transform="scale(0.015625)"/>
        <path id="DejaVuSans-37" d="M 525 4666 
L 3525 4666 
L 3525 4397 
L 1831 0 
L 1172 0 
L 2766 4134 
L 525 4134 
L 525 4666 
z
" transform="scale(0.015625)"/>
       </defs>
       <use xlink:href="#DejaVuSans-31" transform="translate(0 0.684375)"/>
       <use xlink:href="#DejaVuSans-30" transform="translate(63.623047 0.684375)"/>
       <use xlink:href="#DejaVuSans-2212" transform="translate(128.203125 38.965625) scale(0.7)"/>
       <use xlink:href="#DejaVuSans-37" transform="translate(186.855469 38.965625) scale(0.7)"/>
      </g>
     </g>
    </g>
    <g id="ytick_2">
     <g id="line2d_32">
      <g>
       <use xlink:href="#m7a0381dd47" x="76.24" y="166.917321" style="stroke: #000000; stroke-width: 0.8"/>
      </g>
     </g>
     <g id="text_7">
      <!-- $\mathdefault{10^{-5}}$ -->
      <g transform="translate(36.34 172.236228) scale(0.14 -0.14)">
       <defs>
        <path id="DejaVuSans-35" d="M 691 4666 
L 3169 4666 
L 3169 4134 
L 1269 4134 
L 1269 2991 
Q 1406 3038 1543 3061 
Q 1681 3084 1819 3084 
Q 2600 3084 3056 2656 
Q 3513 2228 3513 1497 
Q 3513 744 3044 326 
Q 2575 -91 1722 -91 
Q 1428 -91 1123 -41 
Q 819 9 494 109 
L 494 744 
Q 775 591 1075 516 
Q 1375 441 1709 441 
Q 2250 441 2565 725 
Q 2881 1009 2881 1497 
Q 2881 1984 2565 2268 
Q 2250 2553 1709 2553 
Q 1456 2553 1204 2497 
Q 953 2441 691 2322 
L 691 4666 
z
" transform="scale(0.015625)"/>
       </defs>
       <use xlink:href="#DejaVuSans-31" transform="translate(0 0.684375)"/>
       <use xlink:href="#DejaVuSans-30" transform="translate(63.623047 0.684375)"/>
       <use xlink:href="#DejaVuSans-2212" transform="translate(128.203125 38.965625) scale(0.7)"/>
       <use xlink:href="#DejaVuSans-35" transform="translate(186.855469 38.965625) scale(0.7)"/>
      </g>
     </g>
    </g>
    <g id="ytick_3">
     <g id="line2d_33">
      <g>
       <use xlink:href="#m7a0381dd47" x="76.24" y="124.180234" style="stroke: #000000; stroke-width: 0.8"/>
      </g>
     </g>
     <g id="text_8">
      <!-- $\mathdefault{10^{-3}}$ -->
      <g transform="translate(36.34 129.49914) scale(0.14 -0.14)">
       <use xlink:href="#DejaVuSans-31" transform="translate(0 0.765625)"/>
       <use xlink:href="#DejaVuSans-30" transform="translate(63.623047 0.765625)"/>
       <use xlink:href="#DejaVuSans-2212" transform="translate(128.203125 39.046875) scale(0.7)"/>
       <use xlink:href="#DejaVuSans-33" transform="translate(186.855469 39.046875) scale(0.7)"/>
      </g>
     </g>
    </g>
    <g id="ytick_4">
     <g id="line2d_34">
      <g>
       <use xlink:href="#m7a0381dd47" x="76.24" y="81.443147" style="stroke: #000000; stroke-width: 0.8"/>
      </g>
     </g>
     <g id="text_9">
      <!-- $\mathdefault{10^{-1}}$ -->
      <g transform="translate(36.34 86.762053) scale(0.14 -0.14)">
       <use xlink:href="#DejaVuSans-31" transform="translate(0 0.684375)"/>
       <use xlink:href="#DejaVuSans-30" transform="translate(63.623047 0.684375)"/>
       <use xlink:href="#DejaVuSans-2212" transform="translate(128.203125 38.965625) scale(0.7)"/>
       <use xlink:href="#DejaVuSans-31" transform="translate(186.855469 38.965625) scale(0.7)"/>
      </g>
     </g>
    </g>
    <g id="ytick_5">
     <g id="line2d_35">
      <g>
       <use xlink:href="#m7a0381dd47" x="76.24" y="38.70606" style="stroke: #000000; stroke-width: 0.8"/>
      </g>
     </g>
     <g id="text_10">
      <!-- $\mathdefault{10^{1}}$ -->
      <g transform="translate(44.6 44.024966) scale(0.14 -0.14)">
       <use xlink:href="#DejaVuSans-31" transform="translate(0 0.684375)"/>
       <use xlink:href="#DejaVuSans-30" transform="translate(63.623047 0.684375)"/>
       <use xlink:href="#DejaVuSans-31" transform="translate(128.203125 38.965625) scale(0.7)"/>
      </g>
     </g>
    </g>
    <g id="text_11">
     <!-- $|\hat{u}_0 - u_{0,ipopt}|$ -->
     <g transform="translate(28 179.159531) rotate(-90) scale(0.14 -0.14)">
      <defs>
       <path id="DejaVuSans-7c" d="M 1344 4891 
L 1344 -1509 
L 813 -1509 
L 813 4891 
L 1344 4891 
z
" transform="scale(0.015625)"/>
       <path id="DejaVuSans-302" d="M -1831 5119 
L -1369 5119 
L -603 3944 
L -1038 3944 
L -1600 4709 
L -2163 3944 
L -2597 3944 
L -1831 5119 
z
M -1600 3584 
L -1600 3584 
z
" transform="scale(0.015625)"/>
       <path id="DejaVuSans-Oblique-75" d="M 428 1388 
L 838 3500 
L 1416 3500 
L 1006 1409 
Q 975 1256 961 1147 
Q 947 1038 947 966 
Q 947 700 1109 554 
Q 1272 409 1569 409 
Q 2031 409 2368 721 
Q 2706 1034 2809 1563 
L 3194 3500 
L 3769 3500 
L 3091 0 
L 2516 0 
L 2631 550 
Q 2388 244 2052 76 
Q 1716 -91 1338 -91 
Q 878 -91 622 161 
Q 366 413 366 863 
Q 366 956 381 1097 
Q 397 1238 428 1388 
z
" transform="scale(0.015625)"/>
       <path id="DejaVuSans-2c" d="M 750 794 
L 1409 794 
L 1409 256 
L 897 -744 
L 494 -744 
L 750 256 
L 750 794 
z
" transform="scale(0.015625)"/>
       <path id="DejaVuSans-Oblique-69" d="M 1172 4863 
L 1747 4863 
L 1606 4134 
L 1031 4134 
L 1172 4863 
z
M 909 3500 
L 1484 3500 
L 800 0 
L 225 0 
L 909 3500 
z
" transform="scale(0.015625)"/>
       <path id="DejaVuSans-Oblique-70" d="M 3175 2156 
Q 3175 2616 2975 2859 
Q 2775 3103 2400 3103 
Q 2144 3103 1911 2972 
Q 1678 2841 1497 2591 
Q 1319 2344 1212 1994 
Q 1106 1644 1106 1300 
Q 1106 863 1306 627 
Q 1506 391 1875 391 
Q 2147 391 2380 519 
Q 2613 647 2778 891 
Q 2956 1147 3065 1494 
Q 3175 1841 3175 2156 
z
M 1394 2969 
Q 1625 3272 1939 3428 
Q 2253 3584 2638 3584 
Q 3175 3584 3472 3232 
Q 3769 2881 3769 2247 
Q 3769 1728 3584 1258 
Q 3400 788 3053 416 
Q 2822 169 2531 39 
Q 2241 -91 1919 -91 
Q 1547 -91 1294 64 
Q 1041 219 916 525 
L 556 -1331 
L -19 -1331 
L 922 3500 
L 1497 3500 
L 1394 2969 
z
" transform="scale(0.015625)"/>
       <path id="DejaVuSans-Oblique-6f" d="M 1625 -91 
Q 1009 -91 651 289 
Q 294 669 294 1325 
Q 294 1706 417 2101 
Q 541 2497 738 2766 
Q 1047 3184 1428 3384 
Q 1809 3584 2291 3584 
Q 2888 3584 3255 3212 
Q 3622 2841 3622 2241 
Q 3622 1825 3500 1412 
Q 3378 1000 3181 728 
Q 2875 309 2494 109 
Q 2113 -91 1625 -91 
z
M 891 1344 
Q 891 869 1089 633 
Q 1288 397 1691 397 
Q 2269 397 2648 901 
Q 3028 1406 3028 2181 
Q 3028 2634 2825 2865 
Q 2622 3097 2228 3097 
Q 1903 3097 1650 2945 
Q 1397 2794 1197 2484 
Q 1050 2253 970 1956 
Q 891 1659 891 1344 
z
" transform="scale(0.015625)"/>
       <path id="DejaVuSans-Oblique-74" d="M 2706 3500 
L 2619 3053 
L 1472 3053 
L 1100 1153 
Q 1081 1047 1072 975 
Q 1063 903 1063 863 
Q 1063 663 1183 572 
Q 1303 481 1569 481 
L 2150 481 
L 2053 0 
L 1503 0 
Q 991 0 739 200 
Q 488 400 488 806 
Q 488 878 497 964 
Q 506 1050 525 1153 
L 897 3053 
L 409 3053 
L 500 3500 
L 978 3500 
L 1172 4494 
L 1747 4494 
L 1556 3500 
L 2706 3500 
z
" transform="scale(0.015625)"/>
      </defs>
      <use xlink:href="#DejaVuSans-7c" transform="translate(0 0.828125)"/>
      <use xlink:href="#DejaVuSans-302" transform="translate(98.114258 12.015625)"/>
      <use xlink:href="#DejaVuSans-Oblique-75" transform="translate(33.691406 0.828125)"/>
      <use xlink:href="#DejaVuSans-30" transform="translate(98.027344 -15.578125) scale(0.7)"/>
      <use xlink:href="#DejaVuSans-2212" transform="translate(164.780273 0.828125)"/>
      <use xlink:href="#DejaVuSans-Oblique-75" transform="translate(268.051758 0.828125)"/>
      <use xlink:href="#DejaVuSans-30" transform="translate(331.430664 -15.578125) scale(0.7)"/>
      <use xlink:href="#DejaVuSans-2c" transform="translate(375.966797 -15.578125) scale(0.7)"/>
      <use xlink:href="#DejaVuSans-Oblique-69" transform="translate(411.855469 -15.578125) scale(0.7)"/>
      <use xlink:href="#DejaVuSans-Oblique-70" transform="translate(431.303711 -15.578125) scale(0.7)"/>
      <use xlink:href="#DejaVuSans-Oblique-6f" transform="translate(475.737305 -15.578125) scale(0.7)"/>
      <use xlink:href="#DejaVuSans-Oblique-70" transform="translate(518.564453 -15.578125) scale(0.7)"/>
      <use xlink:href="#DejaVuSans-Oblique-74" transform="translate(562.998047 -15.578125) scale(0.7)"/>
      <use xlink:href="#DejaVuSans-7c" transform="translate(593.178711 0.828125)"/>
     </g>
    </g>
   </g>
   <g id="line2d_36">
    <path d="M -1 46.628549 
L 95.487273 46.629922 
L 134.113982 49.522948 
L 156.709159 54.774463 
L 172.740692 55.967145 
L 185.175715 58.559571 
L 195.335868 61.470485 
L 203.926156 64.43949 
L 211.367401 64.875469 
L 217.931045 66.294622 
L 223.802424 72.016775 
L 229.113733 75.789368 
L 233.962578 76.219503 
L 238.423083 76.347691 
L 242.552865 75.674069 
L 246.397601 76.795214 
L 249.994111 76.492178 
L 253.372513 81.796884 
L 256.557754 82.925996 
L 259.570735 81.98097 
L 262.429134 84.713507 
L 265.148042 85.204339 
L 267.740442 86.111348 
L 270.217586 86.472219 
L 274.864157 87.474212 
L 277.049792 87.698159 
L 279.152931 88.811367 
L 281.179575 89.108023 
L 283.135093 89.678657 
L 285.02431 90.497904 
L 288.62082 91.534946 
L 290.335619 91.684449 
L 291.999222 92.380408 
L 293.614598 92.59092 
L 296.711315 93.47195 
L 299.644969 94.616923 
L 301.055843 95.484043 
L 305.086025 96.804655 
L 307.619487 97.935087 
L 308.844296 98.276396 
L 310.042763 98.824273 
L 311.215997 99.155459 
L 314.594399 100.482346 
L 315.676502 100.709039 
L 316.737992 101.402035 
L 317.779641 101.423813 
L 318.802175 102.381457 
L 319.806284 102.175744 
L 320.792621 103.216244 
L 321.761803 103.054583 
L 322.714417 103.890316 
L 323.65102 103.948401 
L 324.572141 104.640737 
L 325.478284 104.770972 
L 326.369928 105.535121 
L 327.24753 105.504397 
L 328.111525 106.523902 
L 328.962329 106.262033 
L 329.800338 107.542793 
L 330.625932 107.126858 
L 331.439472 108.413315 
L 332.241307 108.142169 
L 333.031768 108.971591 
L 333.811173 109.163631 
L 336.086043 110.567722 
L 336.824154 110.791566 
L 337.552616 111.610588 
L 338.271678 111.499617 
L 338.98158 112.713521 
L 339.682553 112.287762 
L 340.374817 113.770266 
L 341.058587 113.237144 
L 341.734069 114.788432 
L 342.401461 114.328002 
L 343.060955 115.411364 
L 343.712735 115.558457 
L 346.246196 117.573725 
L 346.861966 117.906032 
L 348.073461 118.846878 
L 349.259177 119.912899 
L 349.842706 119.927382 
L 350.420189 120.250604 
L 350.991748 120.441855 
L 351.557505 120.829034 
L 352.117576 120.784227 
L 352.672073 121.416934 
L 353.221108 121.04754 
L 353.764786 121.487678 
L 354.836484 121.806719 
L 355.364702 123.776798 
L 355.88796 122.724871 
L 356.40635 123.013479 
L 356.919963 122.981206 
L 357.428884 123.210538 
L 357.933201 123.726347 
L 358.432994 123.688559 
L 358.928344 126.304411 
L 359.41933 125.358959 
L 359.906028 125.614597 
L 360.388512 125.489164 
L 360.866855 126.06594 
L 361.341126 126.079901 
L 362.277729 126.478047 
L 362.740193 126.831323 
L 363.198851 126.997578 
L 363.653764 128.44605 
L 364.104993 127.469985 
L 364.552599 128.035696 
L 364.996637 127.799276 
L 365.437166 128.173115 
L 365.874239 130.740468 
L 366.307911 130.656581 
L 366.738234 130.85855 
L 367.16526 129.901573 
L 367.589038 130.547007 
L 368.009618 132.777224 
L 368.427047 131.39556 
L 369.252641 132.465367 
L 369.660896 132.129062 
L 370.066182 132.665561 
L 370.468542 132.621834 
L 370.868017 132.904001 
L 371.264649 135.866782 
L 371.658478 134.031347 
L 372.049543 134.353819 
L 372.437883 134.268232 
L 373.206537 134.976466 
L 373.586925 134.961715 
L 373.964734 135.179089 
L 374.339998 137.079173 
L 374.712752 136.414849 
L 375.08303 137.963803 
L 375.450863 137.059691 
L 376.179325 137.668819 
L 376.898388 137.983559 
L 377.254469 140.399941 
L 377.60829 139.067686 
L 378.309262 139.494606 
L 378.656469 139.50697 
L 379.001527 140.127121 
L 379.34446 139.83219 
L 379.685297 140.202623 
L 380.024061 143.081985 
L 380.360778 141.910987 
L 380.695473 142.880483 
L 381.02817 142.487714 
L 381.358893 142.457332 
L 381.687664 142.924178 
L 382.014507 143.857894 
L 382.339444 143.565347 
L 382.662498 145.223269 
L 382.983689 144.396594 
L 383.30304 144.54951 
L 383.620571 144.934119 
L 383.936303 144.916153 
L 384.250256 145.204165 
L 384.562451 147.442236 
L 384.872906 146.375191 
L 385.181641 147.313339 
L 385.488675 146.671177 
L 385.794027 147.256534 
L 386.097715 148.165462 
L 386.399757 147.759738 
L 386.70017 148.548064 
L 386.998973 148.111812 
L 387.591814 149.001437 
L 387.885886 148.974308 
L 388.178415 150.15035 
L 388.469416 149.388327 
L 388.758905 149.905419 
L 389.046898 149.885388 
L 389.333411 150.06506 
L 389.618458 152.398047 
L 389.902054 151.126696 
L 390.184215 151.50709 
L 390.464954 151.382194 
L 390.744285 151.564625 
L 391.022224 154.975653 
L 391.298783 153.577726 
L 391.573976 153.648125 
L 391.847818 153.036277 
L 392.12032 153.763675 
L 392.391496 154.812675 
L 392.661359 154.576873 
L 392.929921 157.43795 
L 393.197195 155.280441 
L 393.463193 156.256004 
L 393.727928 155.947964 
L 393.991411 156.332242 
L 394.253654 156.320409 
L 394.514669 156.60188 
L 394.774467 158.586096 
L 395.03306 157.939248 
L 395.290457 159.225845 
L 395.546672 158.243736 
L 395.801714 159.207215 
L 396.308323 159.097298 
L 396.55991 159.580912 
L 396.810367 162.561054 
L 397.059703 160.981938 
L 397.555054 161.986018 
L 397.801088 161.296173 
L 398.04604 162.459933 
L 398.28992 161.658131 
L 398.532738 162.646036 
L 398.774502 163.133904 
L 399.015222 163.043416 
L 399.254906 163.410648 
L 399.731205 163.61834 
L 399.967836 165.064775 
L 400.203467 164.356108 
L 400.67176 164.914873 
L 400.904439 165.017827 
L 401.13615 167.020026 
L 401.366903 165.95713 
L 401.82556 166.532222 
L 402.053481 166.502485 
L 402.280473 169.463605 
L 402.506545 167.737749 
L 402.731703 168.364767 
L 402.955955 167.612488 
L 403.179308 168.694049 
L 403.40177 168.056447 
L 403.623347 168.706869 
L 403.844047 171.876679 
L 404.063875 170.338472 
L 404.282841 170.778883 
L 404.500949 169.934433 
L 404.718207 170.478802 
L 404.934621 172.986948 
L 405.150198 171.00594 
L 405.364944 171.735051 
L 405.578866 173.165667 
L 405.791969 172.898245 
L 406.004261 174.02287 
L 406.215748 172.930511 
L 406.426434 174.198808 
L 406.636327 173.705727 
L 406.845433 174.06127 
L 407.053757 175.542342 
L 407.261305 174.704786 
L 407.468083 175.761386 
L 407.674096 175.271036 
L 407.879351 176.08589 
L 408.083852 175.622631 
L 408.287606 176.321346 
L 408.490617 176.074982 
L 408.692891 176.728978 
L 408.894434 176.718326 
L 409.095251 177.098153 
L 409.295347 177.208106 
L 409.494726 177.754087 
L 409.693395 177.577725 
L 409.891358 179.34263 
L 410.088621 178.503375 
L 410.285187 180.17826 
L 410.481063 178.825318 
L 410.676252 179.866085 
L 410.870761 179.366451 
L 411.064592 179.789819 
L 411.257752 183.836236 
L 411.450245 181.823215 
L 411.642075 182.342458 
L 412.023765 181.838549 
L 412.213634 184.029221 
L 412.402859 182.910557 
L 412.591443 183.412526 
L 412.779391 185.223844 
L 412.966708 184.58229 
L 413.153396 184.874369 
L 413.339462 184.752708 
L 413.524908 185.45079 
L 413.709739 185.004071 
L 413.89396 185.534204 
L 414.077573 187.881515 
L 414.260583 186.823043 
L 414.442994 187.178235 
L 414.62481 188.099959 
L 414.806035 187.349883 
L 414.986672 189.607004 
L 415.166726 187.970011 
L 415.3462 188.854432 
L 415.525097 188.25894 
L 415.703423 188.86456 
L 415.881179 190.468024 
L 416.05837 189.307631 
L 416.234999 189.980022 
L 416.411071 190.036331 
L 416.586588 190.573079 
L 416.761554 192.754785 
L 416.935972 190.976048 
L 417.109846 192.740372 
L 417.283179 192.121433 
L 417.455975 192.193914 
L 417.628236 192.407624 
L 417.799967 196.036423 
L 417.97117 194.01498 
L 418.141849 194.025164 
L 418.312006 195.170008 
L 418.481646 194.795897 
L 418.650771 194.993405 
L 418.819384 196.107909 
L 418.987488 195.490025 
L 419.155087 197.37072 
L 419.48878 196.695499 
L 419.65488 197.225953 
L 419.820486 197.259786 
L 420.314374 198.09037 
L 420.478035 198.239647 
L 420.641216 198.731306 
L 420.803922 198.817621 
L 421.610399 200.113832 
L 421.770303 200.291662 
L 421.929749 200.938659 
L 422.088741 200.896821 
L 422.24728 201.448269 
L 422.40537 201.352191 
L 422.563013 201.566563 
L 422.72021 202.266529 
L 422.876966 202.077027 
L 423.654197 203.559432 
L 423.808351 203.494363 
L 424.115385 204.782336 
L 424.26827 204.272114 
L 424.420737 205.112453 
L 424.572787 205.116354 
L 424.724424 205.612573 
L 424.87565 205.660578 
L 425.026466 206.302465 
L 425.176875 206.316859 
L 425.625682 207.127847 
L 425.774485 208.034277 
L 425.922891 207.626429 
L 426.512596 209.086883 
L 426.659052 209.233036 
L 426.950815 210.05165 
L 427.096125 209.816952 
L 427.241058 210.712591 
L 427.529797 211.181885 
L 428.810924 214.058202 
L 428.95147 214.256645 
L 429.091663 214.726224 
L 429.231504 214.688252 
L 429.370995 215.292726 
L 429.510137 215.330422 
L 429.648933 215.908226 
L 429.787384 215.847993 
L 429.925492 216.49777 
L 430.063259 216.439748 
L 430.200686 217.022048 
L 430.337775 217.021925 
L 430.610945 217.606633 
L 430.882782 218.183177 
L 431.1533 218.266923 
L 480.432727 218.266923 
L 480.432727 218.266923 
" clip-path="url(#pf8c6601ac7)" style="fill: none; stroke: #1f77b4; stroke-linecap: square"/>
   </g>
   <g id="line2d_37">
    <path d="M -1 49.073822 
L 95.487273 49.07567 
L 134.113982 50.736962 
L 156.709159 56.413178 
L 172.740692 59.709388 
L 185.175715 62.846129 
L 195.335868 68.741165 
L 203.926156 72.448928 
L 211.367401 74.279481 
L 223.802424 77.835703 
L 229.113733 78.772267 
L 233.962578 80.208277 
L 238.423083 80.693421 
L 242.552865 82.202038 
L 246.397601 82.999018 
L 249.994111 84.368433 
L 253.372513 84.959777 
L 256.557754 85.711754 
L 259.570735 87.09797 
L 262.429134 87.705238 
L 265.148042 88.830961 
L 267.740442 88.814149 
L 270.217586 90.13521 
L 272.589287 90.725083 
L 274.864157 90.872328 
L 277.049792 91.619087 
L 279.152931 91.962886 
L 281.179575 92.595542 
L 283.135093 93.693486 
L 285.02431 93.461111 
L 286.851574 94.151872 
L 290.335619 95.293886 
L 291.999222 95.546056 
L 293.614598 96.787155 
L 295.184464 96.603334 
L 296.711315 97.123669 
L 298.197444 97.791396 
L 299.644969 98.721841 
L 301.055843 98.819545 
L 303.774751 100.384235 
L 305.086025 100.503486 
L 306.367152 101.33368 
L 307.619487 101.532841 
L 308.844296 102.248979 
L 310.042763 102.430991 
L 311.215997 103.244579 
L 312.365039 103.049375 
L 313.490866 104.232844 
L 314.594399 104.464716 
L 315.676502 105.084483 
L 316.737992 105.241262 
L 317.779641 106.393128 
L 318.802175 106.431459 
L 319.806284 107.859267 
L 320.792621 107.764431 
L 321.761803 108.146335 
L 322.714417 109.103918 
L 323.65102 109.240617 
L 324.572141 110.256062 
L 325.478284 110.486298 
L 326.369928 111.106643 
L 327.24753 111.314019 
L 328.111525 112.767148 
L 328.962329 112.42889 
L 329.800338 113.434112 
L 331.439472 114.596962 
L 332.241307 114.66199 
L 333.031768 115.810523 
L 333.811173 115.608353 
L 334.579828 116.806188 
L 335.338024 116.526755 
L 336.086043 117.901424 
L 336.824154 117.537403 
L 337.552616 119.256352 
L 338.271678 118.826728 
L 338.98158 120.371038 
L 340.374817 120.675119 
L 341.058587 121.468688 
L 342.401461 121.644819 
L 343.712735 123.7587 
L 344.356979 123.564278 
L 344.993861 123.785906 
L 345.623547 124.985759 
L 346.246196 124.852034 
L 346.861966 126.677838 
L 347.471005 126.046853 
L 348.073461 127.894587 
L 348.669472 127.615744 
L 349.842706 130.058535 
L 350.420189 130.594753 
L 350.991748 130.918031 
L 351.557505 131.576737 
L 352.117576 131.660704 
L 352.672073 133.977805 
L 353.221108 133.12209 
L 353.764786 134.880298 
L 354.303211 135.743417 
L 354.836484 135.676559 
L 355.364702 134.597852 
L 355.88796 137.365448 
L 356.40635 136.305163 
L 356.919963 138.142321 
L 357.428884 138.829369 
L 357.933201 138.46802 
L 358.432994 138.435168 
L 359.41933 140.4281 
L 359.906028 141.26508 
L 360.388512 140.68557 
L 360.866855 142.941563 
L 361.341126 142.185056 
L 361.811396 145.243749 
L 362.277729 143.866686 
L 362.740193 145.194871 
L 363.198851 145.492395 
L 363.653764 146.172511 
L 364.104993 146.363418 
L 364.552599 147.340047 
L 364.996637 147.229919 
L 365.874239 150.362396 
L 366.307911 149.845958 
L 366.738234 150.7152 
L 367.16526 150.779761 
L 367.589038 152.200476 
L 368.009618 151.678741 
L 368.427047 152.854744 
L 368.841373 153.39472 
L 369.252641 153.310259 
L 369.660896 156.170173 
L 370.066182 156.315901 
L 370.468542 158.31313 
L 370.868017 157.825573 
L 371.264649 157.582119 
L 371.658478 159.6001 
L 372.437883 159.790877 
L 372.823535 160.601056 
L 373.206537 164.123554 
L 373.586925 163.755388 
L 373.964734 164.325618 
L 374.339998 163.839497 
L 374.712752 166.162076 
L 375.08303 165.246864 
L 375.450863 166.340904 
L 375.816285 167.879948 
L 376.179325 167.296699 
L 376.898388 168.822487 
L 377.254469 169.148075 
L 377.60829 172.461863 
L 377.959878 171.169072 
L 378.309262 173.051483 
L 378.656469 172.384967 
L 379.001527 171.213108 
L 379.34446 174.411052 
L 379.685297 175.235143 
L 380.024061 174.045517 
L 380.360778 175.991336 
L 380.695473 175.215016 
L 381.02817 176.962881 
L 381.358893 176.682098 
L 381.687664 177.636197 
L 382.014507 177.950612 
L 382.339444 178.710718 
L 382.662498 180.825265 
L 382.983689 181.281697 
L 383.30304 181.376939 
L 383.620571 183.17991 
L 383.936303 182.617092 
L 384.250256 183.314933 
L 384.562451 185.995722 
L 384.872906 185.184126 
L 385.181641 186.132065 
L 385.488675 186.14737 
L 386.097715 187.664842 
L 386.399757 188.275733 
L 386.70017 189.73444 
L 386.998973 189.425474 
L 387.296182 190.131285 
L 387.591814 190.138871 
L 387.885886 191.474136 
L 388.178415 191.158123 
L 388.469416 193.810525 
L 388.758905 193.744185 
L 389.333411 195.216137 
L 389.618458 196.265719 
L 389.902054 196.055985 
L 390.184215 197.538336 
L 390.464954 197.707701 
L 390.744285 198.920945 
L 391.022224 200.838295 
L 391.298783 199.694868 
L 391.573976 200.018124 
L 391.847818 202.230567 
L 392.12032 202.861664 
L 392.391496 202.564521 
L 392.929921 204.745061 
L 393.197195 206.677938 
L 393.463193 206.562565 
L 393.727928 206.93555 
L 393.991411 208.00636 
L 394.253654 208.263212 
L 394.514669 209.399852 
L 394.774467 209.490269 
L 395.290457 210.718824 
L 395.546672 211.022992 
L 395.801714 213.132838 
L 396.055594 213.970217 
L 396.308323 214.3359 
L 396.810367 216.462922 
L 398.28992 221.007285 
L 399.015222 221.029568 
L 399.254906 222.074952 
L 399.493564 222.341648 
L 399.731205 222.885544 
L 399.967836 222.885715 
L 400.203467 223.156334 
L 400.904439 223.305494 
L 401.366903 223.398655 
L 401.82556 223.425286 
L 402.280473 223.592539 
L 417.97117 224.362474 
L 427.096125 224.592326 
L 480.432727 224.606415 
L 480.432727 224.606415 
" clip-path="url(#pf8c6601ac7)" style="fill: none; stroke: #ff7f0e; stroke-linecap: square"/>
   </g>
   <g id="line2d_38">
    <path d="M -1 51.823426 
L 95.487273 51.825957 
L 134.113982 53.330372 
L 172.740692 62.912904 
L 185.175715 68.231367 
L 195.335868 73.387185 
L 211.367401 78.178527 
L 217.931045 80.021918 
L 223.802424 81.97342 
L 229.113733 83.960449 
L 233.962578 85.42911 
L 238.423083 87.408996 
L 242.552865 88.591701 
L 246.397601 90.431021 
L 253.372513 92.740352 
L 256.557754 94.777704 
L 262.429134 96.71598 
L 265.148042 98.346014 
L 267.740442 99.583769 
L 272.589287 102.365279 
L 274.864157 104.368762 
L 277.049792 105.368624 
L 281.179575 108.650383 
L 283.135093 109.770179 
L 286.851574 112.412196 
L 288.62082 114.449459 
L 290.335619 115.379244 
L 291.999222 116.514445 
L 293.614598 118.727608 
L 295.184464 119.070994 
L 296.711315 121.989965 
L 298.197444 122.353422 
L 299.644969 124.538629 
L 301.055843 125.729145 
L 302.431878 128.484901 
L 303.774751 129.245871 
L 305.086025 130.373927 
L 306.367152 132.863562 
L 307.619487 134.173359 
L 308.844296 134.965489 
L 310.042763 137.834247 
L 311.215997 139.25487 
L 312.365039 140.061971 
L 313.490866 141.630839 
L 314.594399 144.377776 
L 315.676502 145.173118 
L 316.737992 146.421838 
L 319.806284 152.126111 
L 320.792621 154.01135 
L 321.761803 154.753077 
L 322.714417 156.93974 
L 324.572141 159.349609 
L 326.369928 163.646542 
L 327.24753 165.097185 
L 328.111525 167.886937 
L 328.962329 169.32647 
L 329.800338 169.706269 
L 330.625932 172.081881 
L 331.439472 172.930171 
L 332.241307 175.560114 
L 333.031768 175.660667 
L 333.811173 177.970799 
L 334.579828 181.626247 
L 336.086043 182.561287 
L 336.824154 185.674347 
L 337.552616 185.270094 
L 338.271678 188.447129 
L 338.98158 188.989517 
L 339.682553 192.079269 
L 340.374817 190.596257 
L 341.058587 195.38069 
L 341.734069 197.87648 
L 342.401461 199.279701 
L 343.060955 198.769983 
L 343.712735 204.24566 
L 344.356979 203.41967 
L 344.993861 205.036687 
L 345.623547 207.657593 
L 346.861966 209.518312 
L 347.471005 213.588585 
L 348.073461 212.908861 
L 349.259177 220.446064 
L 349.842706 220.058829 
L 350.991748 222.829874 
L 351.557505 222.842657 
L 352.117576 223.873752 
L 355.364702 224.038103 
L 359.906028 224.131656 
L 394.253654 224.606496 
L 470.383916 224.619863 
L 480.432727 224.619864 
L 480.432727 224.619864 
" clip-path="url(#pf8c6601ac7)" style="fill: none; stroke: #2ca02c; stroke-linecap: square"/>
   </g>
   <g id="line2d_39">
    <path d="M -1 53.437891 
L 95.487273 53.440829 
L 134.113982 54.804519 
L 156.709159 60.447538 
L 172.740692 64.841712 
L 185.175715 70.609659 
L 195.335868 75.150436 
L 203.926156 78.671622 
L 211.367401 81.096626 
L 217.931045 83.53493 
L 223.802424 86.276471 
L 229.113733 88.22965 
L 242.552865 94.39208 
L 246.397601 97.123696 
L 249.994111 100.213948 
L 253.372513 102.006225 
L 256.557754 103.934806 
L 259.570735 107.028165 
L 262.429134 108.79456 
L 265.148042 110.83532 
L 267.740442 113.01307 
L 270.217586 114.438075 
L 272.589287 116.277253 
L 274.864157 118.762751 
L 277.049792 120.617629 
L 279.152931 122.951085 
L 281.179575 125.395988 
L 283.135093 127.524367 
L 285.02431 129.975999 
L 286.851574 131.43597 
L 288.62082 132.524597 
L 290.335619 135.814559 
L 291.999222 137.078715 
L 293.614598 137.933168 
L 295.184464 140.684298 
L 296.711315 143.67596 
L 298.197444 144.897952 
L 299.644969 147.531854 
L 301.055843 147.726921 
L 302.431878 151.097594 
L 303.774751 154.028351 
L 305.086025 156.283535 
L 306.367152 160.683826 
L 307.619487 160.18458 
L 308.844296 162.619992 
L 310.042763 166.274782 
L 311.215997 167.380802 
L 312.365039 170.007022 
L 313.490866 171.789325 
L 314.594399 172.793309 
L 315.676502 177.613262 
L 316.737992 178.937721 
L 317.779641 181.21711 
L 318.802175 180.734877 
L 319.806284 184.188016 
L 320.792621 189.063065 
L 321.761803 188.745162 
L 322.714417 189.877372 
L 323.65102 192.404039 
L 324.572141 195.307216 
L 325.478284 198.862608 
L 326.369928 201.306805 
L 327.24753 202.617551 
L 328.111525 204.56586 
L 328.962329 206.990569 
L 329.800338 208.274431 
L 330.625932 211.673932 
L 331.439472 214.355445 
L 332.241307 215.15844 
L 333.031768 219.493166 
L 333.811173 220.89427 
L 334.579828 221.896296 
L 335.338024 223.466484 
L 336.086043 223.555242 
L 336.824154 223.792219 
L 337.552616 223.808589 
L 338.271678 223.984743 
L 346.246196 224.441715 
L 358.432994 224.587588 
L 391.847818 224.627526 
L 480.432727 224.624962 
L 480.432727 224.624962 
" clip-path="url(#pf8c6601ac7)" style="fill: none; stroke: #d62728; stroke-linecap: square"/>
   </g>
   <g id="line2d_40">
    <path d="M -1 61.983734 
L 95.487273 61.988769 
L 134.113982 63.268146 
L 156.709159 67.682933 
L 172.740692 74.308346 
L 185.175715 80.73344 
L 195.335868 88.965471 
L 203.926156 95.569927 
L 211.367401 100.51698 
L 217.931045 105.787107 
L 223.802424 112.583143 
L 229.113733 117.926458 
L 233.962578 124.126183 
L 238.423083 132.421781 
L 242.552865 135.92086 
L 246.397601 142.689252 
L 249.994111 150.109881 
L 253.372513 154.694788 
L 256.557754 162.05876 
L 259.570735 168.412865 
L 262.429134 174.910718 
L 267.740442 187.814932 
L 270.217586 193.016389 
L 272.589287 199.496373 
L 274.864157 206.985719 
L 277.049792 211.235597 
L 279.152931 217.725061 
L 281.179575 223.059511 
L 283.135093 224.302572 
L 285.02431 224.915615 
L 286.851574 225.226068 
L 291.999222 225.701943 
L 298.197444 225.717587 
L 306.367152 225.583067 
L 315.676502 225.466304 
L 324.572141 225.368525 
L 333.811173 225.286336 
L 342.401461 225.3659 
L 350.991748 225.424373 
L 365.874239 225.218832 
L 377.959878 225.071877 
L 396.055594 225.052075 
L 402.053481 225.093731 
L 431.018205 224.899499 
L 443.776907 224.859983 
L 480.432727 224.857852 
L 480.432727 224.857852 
" clip-path="url(#pf8c6601ac7)" style="fill: none; stroke: #9467bd; stroke-linecap: square"/>
   </g>
   <g id="patch_3">
    <path d="M 76.24 234.78125 
L 76.24 35.757812 
" style="fill: none; stroke: #000000; stroke-width: 0.8; stroke-linejoin: miter; stroke-linecap: square"/>
   </g>
   <g id="patch_4">
    <path d="M 499.68 234.78125 
L 499.68 35.757812 
" style="fill: none; stroke: #000000; stroke-width: 0.8; stroke-linejoin: miter; stroke-linecap: square"/>
   </g>
   <g id="patch_5">
    <path d="M 76.24 234.78125 
L 499.68 234.78125 
" style="fill: none; stroke: #000000; stroke-width: 0.8; stroke-linejoin: miter; stroke-linecap: square"/>
   </g>
   <g id="patch_6">
    <path d="M 76.24 35.757812 
L 499.68 35.757812 
" style="fill: none; stroke: #000000; stroke-width: 0.8; stroke-linejoin: miter; stroke-linecap: square"/>
   </g>
   <g id="text_12">
    <!-- Absolute error to optimal (ipopt) control action on test data -->
    <g transform="translate(79.845625 25.757812) scale(0.14 -0.14)">
     <defs>
      <path id="DejaVuSans-41" d="M 2188 4044 
L 1331 1722 
L 3047 1722 
L 2188 4044 
z
M 1831 4666 
L 2547 4666 
L 4325 0 
L 3669 0 
L 3244 1197 
L 1141 1197 
L 716 0 
L 50 0 
L 1831 4666 
z
" transform="scale(0.015625)"/>
      <path id="DejaVuSans-62" d="M 3116 1747 
Q 3116 2381 2855 2742 
Q 2594 3103 2138 3103 
Q 1681 3103 1420 2742 
Q 1159 2381 1159 1747 
Q 1159 1113 1420 752 
Q 1681 391 2138 391 
Q 2594 391 2855 752 
Q 3116 1113 3116 1747 
z
M 1159 2969 
Q 1341 3281 1617 3432 
Q 1894 3584 2278 3584 
Q 2916 3584 3314 3078 
Q 3713 2572 3713 1747 
Q 3713 922 3314 415 
Q 2916 -91 2278 -91 
Q 1894 -91 1617 61 
Q 1341 213 1159 525 
L 1159 0 
L 581 0 
L 581 4863 
L 1159 4863 
L 1159 2969 
z
" transform="scale(0.015625)"/>
      <path id="DejaVuSans-73" d="M 2834 3397 
L 2834 2853 
Q 2591 2978 2328 3040 
Q 2066 3103 1784 3103 
Q 1356 3103 1142 2972 
Q 928 2841 928 2578 
Q 928 2378 1081 2264 
Q 1234 2150 1697 2047 
L 1894 2003 
Q 2506 1872 2764 1633 
Q 3022 1394 3022 966 
Q 3022 478 2636 193 
Q 2250 -91 1575 -91 
Q 1294 -91 989 -36 
Q 684 19 347 128 
L 347 722 
Q 666 556 975 473 
Q 1284 391 1588 391 
Q 1994 391 2212 530 
Q 2431 669 2431 922 
Q 2431 1156 2273 1281 
Q 2116 1406 1581 1522 
L 1381 1569 
Q 847 1681 609 1914 
Q 372 2147 372 2553 
Q 372 3047 722 3315 
Q 1072 3584 1716 3584 
Q 2034 3584 2315 3537 
Q 2597 3491 2834 3397 
z
" transform="scale(0.015625)"/>
      <path id="DejaVuSans-6c" d="M 603 4863 
L 1178 4863 
L 1178 0 
L 603 0 
L 603 4863 
z
" transform="scale(0.015625)"/>
      <path id="DejaVuSans-75" d="M 544 1381 
L 544 3500 
L 1119 3500 
L 1119 1403 
Q 1119 906 1312 657 
Q 1506 409 1894 409 
Q 2359 409 2629 706 
Q 2900 1003 2900 1516 
L 2900 3500 
L 3475 3500 
L 3475 0 
L 2900 0 
L 2900 538 
Q 2691 219 2414 64 
Q 2138 -91 1772 -91 
Q 1169 -91 856 284 
Q 544 659 544 1381 
z
M 1991 3584 
L 1991 3584 
z
" transform="scale(0.015625)"/>
      <path id="DejaVuSans-20" transform="scale(0.015625)"/>
      <path id="DejaVuSans-70" d="M 1159 525 
L 1159 -1331 
L 581 -1331 
L 581 3500 
L 1159 3500 
L 1159 2969 
Q 1341 3281 1617 3432 
Q 1894 3584 2278 3584 
Q 2916 3584 3314 3078 
Q 3713 2572 3713 1747 
Q 3713 922 3314 415 
Q 2916 -91 2278 -91 
Q 1894 -91 1617 61 
Q 1341 213 1159 525 
z
M 3116 1747 
Q 3116 2381 2855 2742 
Q 2594 3103 2138 3103 
Q 1681 3103 1420 2742 
Q 1159 2381 1159 1747 
Q 1159 1113 1420 752 
Q 1681 391 2138 391 
Q 2594 391 2855 752 
Q 3116 1113 3116 1747 
z
" transform="scale(0.015625)"/>
      <path id="DejaVuSans-6d" d="M 3328 2828 
Q 3544 3216 3844 3400 
Q 4144 3584 4550 3584 
Q 5097 3584 5394 3201 
Q 5691 2819 5691 2113 
L 5691 0 
L 5113 0 
L 5113 2094 
Q 5113 2597 4934 2840 
Q 4756 3084 4391 3084 
Q 3944 3084 3684 2787 
Q 3425 2491 3425 1978 
L 3425 0 
L 2847 0 
L 2847 2094 
Q 2847 2600 2669 2842 
Q 2491 3084 2119 3084 
Q 1678 3084 1418 2786 
Q 1159 2488 1159 1978 
L 1159 0 
L 581 0 
L 581 3500 
L 1159 3500 
L 1159 2956 
Q 1356 3278 1631 3431 
Q 1906 3584 2284 3584 
Q 2666 3584 2933 3390 
Q 3200 3197 3328 2828 
z
" transform="scale(0.015625)"/>
      <path id="DejaVuSans-28" d="M 1984 4856 
Q 1566 4138 1362 3434 
Q 1159 2731 1159 2009 
Q 1159 1288 1364 580 
Q 1569 -128 1984 -844 
L 1484 -844 
Q 1016 -109 783 600 
Q 550 1309 550 2009 
Q 550 2706 781 3412 
Q 1013 4119 1484 4856 
L 1984 4856 
z
" transform="scale(0.015625)"/>
      <path id="DejaVuSans-29" d="M 513 4856 
L 1013 4856 
Q 1481 4119 1714 3412 
Q 1947 2706 1947 2009 
Q 1947 1309 1714 600 
Q 1481 -109 1013 -844 
L 513 -844 
Q 928 -128 1133 580 
Q 1338 1288 1338 2009 
Q 1338 2731 1133 3434 
Q 928 4138 513 4856 
z
" transform="scale(0.015625)"/>
      <path id="DejaVuSans-63" d="M 3122 3366 
L 3122 2828 
Q 2878 2963 2633 3030 
Q 2388 3097 2138 3097 
Q 1578 3097 1268 2742 
Q 959 2388 959 1747 
Q 959 1106 1268 751 
Q 1578 397 2138 397 
Q 2388 397 2633 464 
Q 2878 531 3122 666 
L 3122 134 
Q 2881 22 2623 -34 
Q 2366 -91 2075 -91 
Q 1284 -91 818 406 
Q 353 903 353 1747 
Q 353 2603 823 3093 
Q 1294 3584 2113 3584 
Q 2378 3584 2631 3529 
Q 2884 3475 3122 3366 
z
" transform="scale(0.015625)"/>
      <path id="DejaVuSans-64" d="M 2906 2969 
L 2906 4863 
L 3481 4863 
L 3481 0 
L 2906 0 
L 2906 525 
Q 2725 213 2448 61 
Q 2172 -91 1784 -91 
Q 1150 -91 751 415 
Q 353 922 353 1747 
Q 353 2572 751 3078 
Q 1150 3584 1784 3584 
Q 2172 3584 2448 3432 
Q 2725 3281 2906 2969 
z
M 947 1747 
Q 947 1113 1208 752 
Q 1469 391 1925 391 
Q 2381 391 2643 752 
Q 2906 1113 2906 1747 
Q 2906 2381 2643 2742 
Q 2381 3103 1925 3103 
Q 1469 3103 1208 2742 
Q 947 2381 947 1747 
z
" transform="scale(0.015625)"/>
     </defs>
     <use xlink:href="#DejaVuSans-41"/>
     <use xlink:href="#DejaVuSans-62" x="68.408203"/>
     <use xlink:href="#DejaVuSans-73" x="131.884766"/>
     <use xlink:href="#DejaVuSans-6f" x="183.984375"/>
     <use xlink:href="#DejaVuSans-6c" x="245.166016"/>
     <use xlink:href="#DejaVuSans-75" x="272.949219"/>
     <use xlink:href="#DejaVuSans-74" x="336.328125"/>
     <use xlink:href="#DejaVuSans-65" x="375.537109"/>
     <use xlink:href="#DejaVuSans-20" x="437.060547"/>
     <use xlink:href="#DejaVuSans-65" x="468.847656"/>
     <use xlink:href="#DejaVuSans-72" x="530.371094"/>
     <use xlink:href="#DejaVuSans-72" x="569.734375"/>
     <use xlink:href="#DejaVuSans-6f" x="608.597656"/>
     <use xlink:href="#DejaVuSans-72" x="669.779297"/>
     <use xlink:href="#DejaVuSans-20" x="710.892578"/>
     <use xlink:href="#DejaVuSans-74" x="742.679688"/>
     <use xlink:href="#DejaVuSans-6f" x="781.888672"/>
     <use xlink:href="#DejaVuSans-20" x="843.070312"/>
     <use xlink:href="#DejaVuSans-6f" x="874.857422"/>
     <use xlink:href="#DejaVuSans-70" x="936.039062"/>
     <use xlink:href="#DejaVuSans-74" x="999.515625"/>
     <use xlink:href="#DejaVuSans-69" x="1038.724609"/>
     <use xlink:href="#DejaVuSans-6d" x="1066.507812"/>
     <use xlink:href="#DejaVuSans-61" x="1163.919922"/>
     <use xlink:href="#DejaVuSans-6c" x="1225.199219"/>
     <use xlink:href="#DejaVuSans-20" x="1252.982422"/>
     <use xlink:href="#DejaVuSans-28" x="1284.769531"/>
     <use xlink:href="#DejaVuSans-69" x="1323.783203"/>
     <use xlink:href="#DejaVuSans-70" x="1351.566406"/>
     <use xlink:href="#DejaVuSans-6f" x="1415.042969"/>
     <use xlink:href="#DejaVuSans-70" x="1476.224609"/>
     <use xlink:href="#DejaVuSans-74" x="1539.701172"/>
     <use xlink:href="#DejaVuSans-29" x="1578.910156"/>
     <use xlink:href="#DejaVuSans-20" x="1617.923828"/>
     <use xlink:href="#DejaVuSans-63" x="1649.710938"/>
     <use xlink:href="#DejaVuSans-6f" x="1704.691406"/>
     <use xlink:href="#DejaVuSans-6e" x="1765.873047"/>
     <use xlink:href="#DejaVuSans-74" x="1829.251953"/>
     <use xlink:href="#DejaVuSans-72" x="1868.460938"/>
     <use xlink:href="#DejaVuSans-6f" x="1907.324219"/>
     <use xlink:href="#DejaVuSans-6c" x="1968.505859"/>
     <use xlink:href="#DejaVuSans-20" x="1996.289062"/>
     <use xlink:href="#DejaVuSans-61" x="2028.076172"/>
     <use xlink:href="#DejaVuSans-63" x="2089.355469"/>
     <use xlink:href="#DejaVuSans-74" x="2144.335938"/>
     <use xlink:href="#DejaVuSans-69" x="2183.544922"/>
     <use xlink:href="#DejaVuSans-6f" x="2211.328125"/>
     <use xlink:href="#DejaVuSans-6e" x="2272.509766"/>
     <use xlink:href="#DejaVuSans-20" x="2335.888672"/>
     <use xlink:href="#DejaVuSans-6f" x="2367.675781"/>
     <use xlink:href="#DejaVuSans-6e" x="2428.857422"/>
     <use xlink:href="#DejaVuSans-20" x="2492.236328"/>
     <use xlink:href="#DejaVuSans-74" x="2524.023438"/>
     <use xlink:href="#DejaVuSans-65" x="2563.232422"/>
     <use xlink:href="#DejaVuSans-73" x="2624.755859"/>
     <use xlink:href="#DejaVuSans-74" x="2676.855469"/>
     <use xlink:href="#DejaVuSans-20" x="2716.064453"/>
     <use xlink:href="#DejaVuSans-64" x="2747.851562"/>
     <use xlink:href="#DejaVuSans-61" x="2811.328125"/>
     <use xlink:href="#DejaVuSans-74" x="2872.607422"/>
     <use xlink:href="#DejaVuSans-61" x="2911.816406"/>
    </g>
   </g>
   <g id="legend_1">
    <g id="patch_7">
     <path d="M 391.41 133.426562 
L 491.28 133.426562 
Q 493.68 133.426562 493.68 131.026562 
L 493.68 44.157812 
Q 493.68 41.757812 491.28 41.757812 
L 391.41 41.757812 
Q 389.01 41.757812 389.01 44.157812 
L 389.01 131.026562 
Q 389.01 133.426562 391.41 133.426562 
z
" style="fill: #ffffff; opacity: 0.8; stroke: #cccccc; stroke-linejoin: miter"/>
    </g>
    <g id="line2d_41">
     <path d="M 393.81 51.475937 
L 405.81 51.475937 
L 417.81 51.475937 
" style="fill: none; stroke: #1f77b4; stroke-linecap: square"/>
    </g>
    <g id="text_13">
     <!-- max -->
     <g transform="translate(427.41 55.675937) scale(0.12 -0.12)">
      <defs>
       <path id="DejaVuSans-78" d="M 3513 3500 
L 2247 1797 
L 3578 0 
L 2900 0 
L 1881 1375 
L 863 0 
L 184 0 
L 1544 1831 
L 300 3500 
L 978 3500 
L 1906 2253 
L 2834 3500 
L 3513 3500 
z
" transform="scale(0.015625)"/>
      </defs>
      <use xlink:href="#DejaVuSans-6d"/>
      <use xlink:href="#DejaVuSans-61" x="97.412109"/>
      <use xlink:href="#DejaVuSans-78" x="158.691406"/>
     </g>
    </g>
    <g id="line2d_42">
     <path d="M 393.81 69.089687 
L 405.81 69.089687 
L 417.81 69.089687 
" style="fill: none; stroke: #ff7f0e; stroke-linecap: square"/>
    </g>
    <g id="text_14">
     <!-- 99th perc. -->
     <g transform="translate(427.41 73.289687) scale(0.12 -0.12)">
      <defs>
       <path id="DejaVuSans-39" d="M 703 97 
L 703 672 
Q 941 559 1184 500 
Q 1428 441 1663 441 
Q 2288 441 2617 861 
Q 2947 1281 2994 2138 
Q 2813 1869 2534 1725 
Q 2256 1581 1919 1581 
Q 1219 1581 811 2004 
Q 403 2428 403 3163 
Q 403 3881 828 4315 
Q 1253 4750 1959 4750 
Q 2769 4750 3195 4129 
Q 3622 3509 3622 2328 
Q 3622 1225 3098 567 
Q 2575 -91 1691 -91 
Q 1453 -91 1209 -44 
Q 966 3 703 97 
z
M 1959 2075 
Q 2384 2075 2632 2365 
Q 2881 2656 2881 3163 
Q 2881 3666 2632 3958 
Q 2384 4250 1959 4250 
Q 1534 4250 1286 3958 
Q 1038 3666 1038 3163 
Q 1038 2656 1286 2365 
Q 1534 2075 1959 2075 
z
" transform="scale(0.015625)"/>
       <path id="DejaVuSans-68" d="M 3513 2113 
L 3513 0 
L 2938 0 
L 2938 2094 
Q 2938 2591 2744 2837 
Q 2550 3084 2163 3084 
Q 1697 3084 1428 2787 
Q 1159 2491 1159 1978 
L 1159 0 
L 581 0 
L 581 4863 
L 1159 4863 
L 1159 2956 
Q 1366 3272 1645 3428 
Q 1925 3584 2291 3584 
Q 2894 3584 3203 3211 
Q 3513 2838 3513 2113 
z
" transform="scale(0.015625)"/>
       <path id="DejaVuSans-2e" d="M 684 794 
L 1344 794 
L 1344 0 
L 684 0 
L 684 794 
z
" transform="scale(0.015625)"/>
      </defs>
      <use xlink:href="#DejaVuSans-39"/>
      <use xlink:href="#DejaVuSans-39" x="63.623047"/>
      <use xlink:href="#DejaVuSans-74" x="127.246094"/>
      <use xlink:href="#DejaVuSans-68" x="166.455078"/>
      <use xlink:href="#DejaVuSans-20" x="229.833984"/>
      <use xlink:href="#DejaVuSans-70" x="261.621094"/>
      <use xlink:href="#DejaVuSans-65" x="325.097656"/>
      <use xlink:href="#DejaVuSans-72" x="386.621094"/>
      <use xlink:href="#DejaVuSans-63" x="425.484375"/>
      <use xlink:href="#DejaVuSans-2e" x="480.464844"/>
     </g>
    </g>
    <g id="line2d_43">
     <path d="M 393.81 86.703437 
L 405.81 86.703437 
L 417.81 86.703437 
" style="fill: none; stroke: #2ca02c; stroke-linecap: square"/>
    </g>
    <g id="text_15">
     <!-- 95th perc. -->
     <g transform="translate(427.41 90.903437) scale(0.12 -0.12)">
      <use xlink:href="#DejaVuSans-39"/>
      <use xlink:href="#DejaVuSans-35" x="63.623047"/>
      <use xlink:href="#DejaVuSans-74" x="127.246094"/>
      <use xlink:href="#DejaVuSans-68" x="166.455078"/>
      <use xlink:href="#DejaVuSans-20" x="229.833984"/>
      <use xlink:href="#DejaVuSans-70" x="261.621094"/>
      <use xlink:href="#DejaVuSans-65" x="325.097656"/>
      <use xlink:href="#DejaVuSans-72" x="386.621094"/>
      <use xlink:href="#DejaVuSans-63" x="425.484375"/>
      <use xlink:href="#DejaVuSans-2e" x="480.464844"/>
     </g>
    </g>
    <g id="line2d_44">
     <path d="M 393.81 104.317187 
L 405.81 104.317187 
L 417.81 104.317187 
" style="fill: none; stroke: #d62728; stroke-linecap: square"/>
    </g>
    <g id="text_16">
     <!-- 90th perc. -->
     <g transform="translate(427.41 108.517187) scale(0.12 -0.12)">
      <use xlink:href="#DejaVuSans-39"/>
      <use xlink:href="#DejaVuSans-30" x="63.623047"/>
      <use xlink:href="#DejaVuSans-74" x="127.246094"/>
      <use xlink:href="#DejaVuSans-68" x="166.455078"/>
      <use xlink:href="#DejaVuSans-20" x="229.833984"/>
      <use xlink:href="#DejaVuSans-70" x="261.621094"/>
      <use xlink:href="#DejaVuSans-65" x="325.097656"/>
      <use xlink:href="#DejaVuSans-72" x="386.621094"/>
      <use xlink:href="#DejaVuSans-63" x="425.484375"/>
      <use xlink:href="#DejaVuSans-2e" x="480.464844"/>
     </g>
    </g>
    <g id="line2d_45">
     <path d="M 393.81 121.930937 
L 405.81 121.930937 
L 417.81 121.930937 
" style="fill: none; stroke: #9467bd; stroke-linecap: square"/>
    </g>
    <g id="text_17">
     <!-- 50th perc. -->
     <g transform="translate(427.41 126.130937) scale(0.12 -0.12)">
      <use xlink:href="#DejaVuSans-35"/>
      <use xlink:href="#DejaVuSans-30" x="63.623047"/>
      <use xlink:href="#DejaVuSans-74" x="127.246094"/>
      <use xlink:href="#DejaVuSans-68" x="166.455078"/>
      <use xlink:href="#DejaVuSans-20" x="229.833984"/>
      <use xlink:href="#DejaVuSans-70" x="261.621094"/>
      <use xlink:href="#DejaVuSans-65" x="325.097656"/>
      <use xlink:href="#DejaVuSans-72" x="386.621094"/>
      <use xlink:href="#DejaVuSans-63" x="425.484375"/>
      <use xlink:href="#DejaVuSans-2e" x="480.464844"/>
     </g>
    </g>
   </g>
  </g>
 </g>
 <defs>
  <clipPath id="pf8c6601ac7">
   <rect x="76.24" y="35.757812" width="423.44" height="199.023438"/>
  </clipPath>
 </defs>
</svg>
